SplineFontDB: 3.2
FontName: LiberationMono-Italic
FullName: Liberation Mono Italic
FamilyName: Liberation Mono
Weight: Book
Copyright: Digitized data copyright (c) 2010 Google Corporation.\nCopyright (c) 2012 Red Hat, Inc.
Version: 2.1.5
ItalicAngle: -12
UnderlinePosition: -435
UnderlineWidth: 84
Ascent: 1638
Descent: 410
InvalidEm: 0
LayerCount: 2
Layer: 0 1 "Back" 1
Layer: 1 1 "Fore" 0
XUID: [1021 445 290132255 1814308]
FSType: 0
OS2Version: 3
OS2_WeightWidthSlopeOnly: 0
OS2_UseTypoMetrics: 0
CreationTime: 1277886966
ModificationTime: 1633005890
PfmFamily: 17
TTFWeight: 400
TTFWidth: 5
LineGap: 0
VLineGap: 0
Panose: 2 7 4 9 2 2 5 9 4 4
OS2TypoAscent: 1255
OS2TypoAOffset: 0
OS2TypoDescent: -386
OS2TypoDOffset: 0
OS2TypoLinegap: 0
OS2WinAscent: 1705
OS2WinAOffset: 0
OS2WinDescent: 615
OS2WinDOffset: 0
HheadAscent: 1705
HheadAOffset: 0
HheadDescent: -615
HheadDOffset: 0
OS2SubXSize: 1434
OS2SubYSize: 1331
OS2SubXOff: 30
OS2SubYOff: 285
OS2SupXSize: 1434
OS2SupYSize: 1331
OS2SupXOff: 80
OS2SupYOff: 865
OS2StrikeYSize: 102
OS2StrikeYPos: 530
OS2FamilyClass: 2053
OS2Vendor: '1ASC'
OS2CodePages: 600001bf.dff70000
OS2UnicodeRanges: e0000aff.400078ff.00000001.00000000
Lookup: 4 1 0 "'dlig' Discretionary Ligatures in Hebrew lookup 0" { "'dlig' Discretionary Ligatures in Hebrew lookup 0 subtable"  } ['dlig' ('hebr' <'dflt' > ) ]
Lookup: 4 1 0 "'ccmp' Glyph Composition/Decomposition in Hebrew lookup 1" { "'ccmp' Glyph Composition/Decomposition in Hebrew lookup 1 subtable"  } ['ccmp' ('hebr' <'dflt' > ) ]
Lookup: 6 1 0 "'ccmp' Glyph Composition/Decomposition in Hebrew lookup 2" { "'ccmp' Glyph Composition/Decomposition in Hebrew lookup 2 subtable"  } ['ccmp' ('hebr' <'dflt' > ) ]
Lookup: 4 1 0 "Ligature Substitution lookup 3" { "Ligature Substitution lookup 3 subtable"  } []

StartChar: .notdef
Encoding: 65536 -1 0
Width: 1229
GlyphClass: 2
Flags: W
LayerCount: 2
Fore
SplineSet
147 0 m 1,0,-1
 147 1349 l 1,1,-1
 1082 1349 l 1,2,-1
 1082 0 l 1,3,-1
 147 0 l 1,0,-1
963 1230 m 1,4,-1
 266 1230 l 1,5,-1
 266 119 l 1,6,-1
 963 119 l 1,7,-1
 963 1230 l 1,4,-1
EndSplineSet
Validated: 1
EndChar

StartChar: exclam
Encoding: 33 33 4
Width: 1229
GlyphClass: 2
Flags: W
LayerCount: 2
Fore
SplineSet
661 397 m 1,0,-1
 513 397 l 1,1,-1
 674 1348 l 1,2,-1
 870 1348 l 1,3,-1
 661 397 l 1,0,-1
410 0 m 1,4,-1
 449 201 l 1,5,-1
 643 201 l 1,6,-1
 604 0 l 1,7,-1
 410 0 l 1,4,-1
EndSplineSet
Validated: 1
EndChar

StartChar: quotedbl
Encoding: 34 34 5
Width: 1229
GlyphClass: 2
Flags: W
LayerCount: 2
Fore
SplineSet
967 845 m 1,0,-1
 825 845 l 1,1,-1
 909 1484 l 1,2,-1
 1133 1484 l 1,3,-1
 967 845 l 1,0,-1
518 845 m 1,4,-1
 377 845 l 1,5,-1
 460 1484 l 1,6,-1
 684 1484 l 1,7,-1
 518 845 l 1,4,-1
EndSplineSet
Validated: 1
EndChar

StartChar: numbersign
Encoding: 35 35 6
Width: 1229
GlyphClass: 2
Flags: W
LayerCount: 2
Fore
SplineSet
987 833 m 1,0,-1
 858 516 l 1,1,-1
 1118 516 l 1,2,-1
 1097 408 l 1,3,-1
 814 408 l 1,4,-1
 647 0 l 1,5,-1
 537 0 l 1,6,-1
 702 408 l 1,7,-1
 339 408 l 1,8,-1
 176 0 l 1,9,-1
 66 0 l 1,10,-1
 229 408 l 1,11,-1
 28 408 l 1,12,-1
 49 516 l 1,13,-1
 274 516 l 1,14,-1
 403 833 l 1,15,-1
 162 833 l 1,16,-1
 183 941 l 1,17,-1
 446 941 l 1,18,-1
 614 1349 l 1,19,-1
 724 1349 l 1,20,-1
 557 941 l 1,21,-1
 920 941 l 1,22,-1
 1087 1349 l 1,23,-1
 1197 1349 l 1,24,-1
 1030 941 l 1,25,-1
 1241 941 l 1,26,-1
 1220 833 l 1,27,-1
 987 833 l 1,0,-1
516 833 m 1,28,-1
 385 516 l 1,29,-1
 747 516 l 1,30,-1
 876 833 l 1,31,-1
 516 833 l 1,28,-1
EndSplineSet
Validated: 1
EndChar

StartChar: dollar
Encoding: 36 36 7
Width: 1229
GlyphClass: 2
Flags: W
LayerCount: 2
Fore
SplineSet
554 -141 m 1,0,-1
 426 -141 l 1,1,-1
 457 20 l 1,2,3
 37 34 37 34 35 379 c 1,4,-1
 212 416 l 1,5,6
 212 172 212 172 484 158 c 1,7,-1
 579 647 l 1,8,9
 531 658 531 658 452 683.5 c 128,-1,10
 373 709 373 709 324 742.5 c 128,-1,11
 275 776 275 776 245.5 825 c 128,-1,12
 216 874 216 874 216 946 c 0,13,14
 216 1027 216 1027 247.5 1101 c 128,-1,15
 279 1175 279 1175 345 1230 c 128,-1,16
 411 1285 411 1285 505.5 1314 c 128,-1,17
 600 1343 600 1343 715 1346 c 1,18,-1
 740 1476 l 1,19,-1
 868 1476 l 1,20,-1
 843 1346 l 1,21,22
 1028 1339 1028 1339 1115 1266 c 128,-1,23
 1202 1193 1202 1193 1213 1025 c 1,24,-1
 1033 992 l 1,25,26
 1031 1097 1031 1097 979.5 1151 c 128,-1,27
 928 1205 928 1205 817 1213 c 1,28,-1
 734 787 l 1,29,30
 913 741 913 741 982.5 702.5 c 128,-1,31
 1052 664 1052 664 1090 607 c 128,-1,32
 1128 550 1128 550 1128 465 c 0,33,34
 1128 345 1128 345 1065 243 c 128,-1,35
 1002 141 1002 141 878 84 c 128,-1,36
 754 27 754 27 585 20 c 1,37,-1
 554 -141 l 1,0,-1
390 974 m 1,38,39
 390 914 390 914 433.5 875.5 c 128,-1,40
 477 837 477 837 609 802 c 1,41,-1
 689 1215 l 1,42,43
 433 1204 433 1204 395 1018 c 1,44,-1
 390 974 l 1,38,39
952 432 m 0,45,46
 952 481 952 481 928.5 515 c 128,-1,47
 905 549 905 549 861 573 c 128,-1,48
 817 597 817 597 703 627 c 1,49,-1
 611 156 l 1,50,51
 777 166 777 166 864.5 240.5 c 128,-1,52
 952 315 952 315 952 432 c 0,45,46
EndSplineSet
Validated: 1
EndChar

StartChar: percent
Encoding: 37 37 8
Width: 1229
GlyphClass: 2
Flags: W
LayerCount: 2
Fore
SplineSet
116 0 m 1,0,-1
 -29 0 l 1,1,-1
 1166 1353 l 1,2,-1
 1313 1353 l 1,3,-1
 116 0 l 1,0,-1
451 1361 m 0,4,5
 680 1361 680 1361 680 1141 c 0,6,7
 680 1062 680 1062 656.5 972.5 c 128,-1,8
 633 883 633 883 585 817 c 128,-1,9
 537 751 537 751 470.5 717.5 c 128,-1,10
 404 684 404 684 315 684 c 0,11,12
 82 684 82 684 82 912 c 0,13,14
 82 988 82 988 106.5 1080.5 c 128,-1,15
 131 1173 131 1173 178.5 1237 c 128,-1,16
 226 1301 226 1301 292.5 1331 c 128,-1,17
 359 1361 359 1361 451 1361 c 0,4,5
534 1134 m 0,18,19
 534 1195 534 1195 509 1224 c 128,-1,20
 484 1253 484 1253 429 1253 c 0,21,22
 360 1253 360 1253 319 1211.5 c 128,-1,23
 278 1170 278 1170 253.5 1078.5 c 128,-1,24
 229 987 229 987 229 922 c 0,25,26
 229 853 229 853 257.5 825 c 128,-1,27
 286 797 286 797 339 797 c 0,28,29
 405 797 405 797 446.5 844 c 128,-1,30
 488 891 488 891 511 979 c 128,-1,31
 534 1067 534 1067 534 1134 c 0,18,19
971 665 m 0,32,33
 1201 665 1201 665 1201 444 c 0,34,35
 1201 330 1201 330 1158 218 c 128,-1,36
 1115 106 1115 106 1033.5 47 c 128,-1,37
 952 -12 952 -12 836 -12 c 0,38,39
 603 -12 603 -12 603 216 c 0,40,41
 603 292 603 292 627.5 383.5 c 128,-1,42
 652 475 652 475 698.5 539 c 128,-1,43
 745 603 745 603 811.5 634 c 128,-1,44
 878 665 878 665 971 665 c 0,32,33
1054 437 m 0,45,46
 1054 505 1054 505 1026.5 531 c 128,-1,47
 999 557 999 557 949 557 c 0,48,49
 880 557 880 557 839.5 515 c 128,-1,50
 799 473 799 473 774.5 382.5 c 128,-1,51
 750 292 750 292 750 226 c 0,52,53
 750 157 750 157 778.5 129 c 128,-1,54
 807 101 807 101 860 101 c 0,55,56
 925 101 925 101 967 147.5 c 128,-1,57
 1009 194 1009 194 1031.5 281 c 128,-1,58
 1054 368 1054 368 1054 437 c 0,45,46
EndSplineSet
Validated: 1
EndChar

StartChar: ampersand
Encoding: 38 38 9
Width: 1229
GlyphClass: 2
Flags: W
LayerCount: 2
Fore
SplineSet
965 -12 m 0,0,1
 894 -12 894 -12 830 22 c 128,-1,2
 766 56 766 56 726 117 c 1,3,4
 545 -20 545 -20 352 -20 c 0,5,6
 179 -20 179 -20 89 55.5 c 128,-1,7
 -1 131 -1 131 -1 267 c 0,8,9
 -1 424 -1 424 93.5 555 c 128,-1,10
 188 686 188 686 381 777 c 1,11,12
 352 862 352 862 352 962 c 0,13,14
 352 1146 352 1146 466.5 1251.5 c 128,-1,15
 581 1357 581 1357 770 1357 c 0,16,17
 898 1357 898 1357 971.5 1300 c 128,-1,18
 1045 1243 1045 1243 1045 1145 c 0,19,20
 1045 1062 1045 1062 1000.5 992.5 c 128,-1,21
 956 923 956 923 862 862.5 c 128,-1,22
 768 802 768 802 560 722 c 1,23,24
 650 486 650 486 762 333 c 1,25,26
 884 512 884 512 966 739 c 1,27,-1
 1102 696 l 1,28,29
 1014 461 1014 461 850 234 c 1,30,31
 883 180 883 180 926.5 154.5 c 128,-1,32
 970 129 970 129 1010 129 c 0,33,34
 1067 129 1067 129 1108 145 c 1,35,-1
 1082 10 l 1,36,37
 1030 -12 1030 -12 965 -12 c 0,0,1
889 1117 m 0,38,39
 889 1172 889 1172 850.5 1204 c 128,-1,40
 812 1236 812 1236 743 1236 c 0,41,42
 637 1236 637 1236 569 1170.5 c 128,-1,43
 501 1105 501 1105 501 981 c 0,44,45
 501 907 501 907 526 832 c 1,46,47
 695 898 695 898 745.5 926 c 128,-1,48
 796 954 796 954 828 984.5 c 128,-1,49
 860 1015 860 1015 874.5 1048 c 128,-1,50
 889 1081 889 1081 889 1117 c 0,38,39
643 217 m 1,51,52
 504 419 504 419 413 658 c 1,53,54
 297 601 297 601 233.5 505.5 c 128,-1,55
 170 410 170 410 170 302 c 0,56,57
 170 212 170 212 225 161.5 c 128,-1,58
 280 111 280 111 386 111 c 0,59,60
 452 111 452 111 522 140.5 c 128,-1,61
 592 170 592 170 643 217 c 1,51,52
EndSplineSet
Validated: 1
EndChar

StartChar: quotesingle
Encoding: 39 39 10
Width: 1229
GlyphClass: 2
Flags: W
LayerCount: 2
Fore
SplineSet
743 845 m 1,0,-1
 602 845 l 1,1,-1
 685 1484 l 1,2,-1
 909 1484 l 1,3,-1
 743 845 l 1,0,-1
EndSplineSet
Validated: 1
EndChar

StartChar: parenleft
Encoding: 40 40 11
Width: 1229
GlyphClass: 2
Flags: W
LayerCount: 2
Fore
SplineSet
497 240 m 0,0,1
 497 71 497 71 545 -87 c 128,-1,2
 593 -245 593 -245 703 -425 c 1,3,-1
 513 -425 l 1,4,5
 408 -258 408 -258 358.5 -97 c 128,-1,6
 309 64 309 64 309 234 c 0,7,8
 309 433 309 433 368.5 657 c 128,-1,9
 428 881 428 881 547.5 1074.5 c 128,-1,10
 667 1268 667 1268 884 1484 c 1,11,-1
 1074 1484 l 1,12,13
 863 1275 863 1275 742 1082.5 c 128,-1,14
 621 890 621 890 559 666 c 128,-1,15
 497 442 497 442 497 240 c 0,0,1
EndSplineSet
Validated: 1
EndChar

StartChar: parenright
Encoding: 41 41 12
Width: 1229
GlyphClass: 2
Flags: W
LayerCount: 2
Fore
SplineSet
340 -425 m 1,0,-1
 148 -425 l 1,1,2
 362 -213 362 -213 484 -19.5 c 128,-1,3
 606 174 606 174 667 397 c 128,-1,4
 728 620 728 620 728 816 c 0,5,6
 728 990 728 990 675.5 1154 c 128,-1,7
 623 1318 623 1318 519 1484 c 1,8,-1
 711 1484 l 1,9,10
 818 1314 818 1314 866.5 1156 c 128,-1,11
 915 998 915 998 915 832 c 0,12,13
 915 636 915 636 854.5 406.5 c 128,-1,14
 794 177 794 177 675 -16.5 c 128,-1,15
 556 -210 556 -210 340 -425 c 1,0,-1
EndSplineSet
Validated: 1
EndChar

StartChar: asterisk
Encoding: 42 42 13
Width: 1229
GlyphClass: 2
Flags: W
LayerCount: 2
Fore
SplineSet
797 1188 m 1,0,-1
 1081 1291 l 1,1,-1
 1100 1159 l 1,2,-1
 804 1086 l 1,3,-1
 941 836 l 1,4,-1
 808 764 l 1,5,-1
 708 1022 l 1,6,-1
 502 766 l 1,7,-1
 397 838 l 1,8,-1
 634 1086 l 1,9,-1
 368 1159 l 1,10,-1
 439 1293 l 1,11,-1
 686 1186 l 1,12,-1
 731 1483 l 1,13,-1
 867 1483 l 1,14,-1
 797 1188 l 1,0,-1
EndSplineSet
Validated: 1
EndChar

StartChar: plus
Encoding: 43 43 14
Width: 1229
GlyphClass: 2
Flags: W
LayerCount: 2
Fore
SplineSet
687 608 m 1,0,-1
 687 180 l 1,1,-1
 540 180 l 1,2,-1
 540 608 l 1,3,-1
 116 608 l 1,4,-1
 116 754 l 1,5,-1
 540 754 l 1,6,-1
 540 1182 l 1,7,-1
 687 1182 l 1,8,-1
 687 754 l 1,9,-1
 1111 754 l 1,10,-1
 1111 608 l 1,11,-1
 687 608 l 1,0,-1
EndSplineSet
Validated: 1
EndChar

StartChar: comma
Encoding: 44 44 15
Width: 1229
GlyphClass: 2
Flags: W
LayerCount: 2
Fore
SplineSet
83 -363 m 1,0,-1
 381 299 l 1,1,-1
 646 299 l 1,2,-1
 206 -363 l 1,3,-1
 83 -363 l 1,0,-1
EndSplineSet
Validated: 1
EndChar

StartChar: hyphen
Encoding: 45 45 16
Width: 1229
GlyphClass: 2
Flags: W
LayerCount: 2
Fore
SplineSet
319 464 m 1,0,-1
 350 624 l 1,1,-1
 910 624 l 1,2,-1
 879 464 l 1,3,-1
 319 464 l 1,0,-1
EndSplineSet
Validated: 1
EndChar

StartChar: period
Encoding: 46 46 17
Width: 1229
GlyphClass: 2
Flags: W
LayerCount: 2
Fore
SplineSet
391 0 m 1,0,-1
 449 299 l 1,1,-1
 684 299 l 1,2,-1
 626 0 l 1,3,-1
 391 0 l 1,0,-1
EndSplineSet
Validated: 1
EndChar

StartChar: slash
Encoding: 47 47 18
Width: 1229
GlyphClass: 2
Flags: W
LayerCount: 2
Fore
SplineSet
5 -20 m 1,0,-1
 1118 1484 l 1,1,-1
 1296 1484 l 1,2,-1
 187 -20 l 1,3,-1
 5 -20 l 1,0,-1
EndSplineSet
Validated: 1
EndChar

StartChar: zero
Encoding: 48 48 19
Width: 1229
GlyphClass: 2
Flags: W
LayerCount: 2
Fore
SplineSet
502 -20 m 0,0,1
 311 -20 311 -20 216 89.5 c 128,-1,2
 121 199 121 199 121 411 c 0,3,4
 121 564 121 564 169.5 765 c 128,-1,5
 218 966 218 966 301.5 1102.5 c 128,-1,6
 385 1239 385 1239 500.5 1304.5 c 128,-1,7
 616 1370 616 1370 778 1370 c 0,8,9
 971 1370 971 1370 1065 1265 c 128,-1,10
 1159 1160 1159 1160 1159 949 c 0,11,12
 1159 792 1159 792 1112 595 c 128,-1,13
 1065 398 1065 398 978 258.5 c 128,-1,14
 891 119 891 119 772.5 49.5 c 128,-1,15
 654 -20 654 -20 502 -20 c 0,0,1
978 947 m 0,16,17
 978 1091 978 1091 923 1157.5 c 128,-1,18
 868 1224 868 1224 750 1224 c 0,19,20
 601 1224 601 1224 508.5 1122.5 c 128,-1,21
 416 1021 416 1021 359 797 c 128,-1,22
 302 573 302 573 302 415 c 0,23,24
 302 267 302 267 359 197 c 128,-1,25
 416 127 416 127 533 127 c 0,26,27
 638 127 638 127 715.5 184 c 128,-1,28
 793 241 793 241 848.5 356.5 c 128,-1,29
 904 472 904 472 941 651.5 c 128,-1,30
 978 831 978 831 978 947 c 0,16,17
498 555 m 1,31,-1
 547 804 l 1,32,-1
 782 804 l 1,33,-1
 733 555 l 1,34,-1
 498 555 l 1,31,-1
EndSplineSet
Validated: 1
Substitution2: "'subs' Subscript lookup 5 subtable" zero.subs
EndChar

StartChar: one
Encoding: 49 49 20
Width: 1229
GlyphClass: 2
Flags: W
LayerCount: 2
Fore
SplineSet
52 0 m 1,0,-1
 80 145 l 1,1,-1
 519 145 l 1,2,-1
 718 1166 l 1,3,4
 665 1087 665 1087 515.5 1029.5 c 128,-1,5
 366 972 366 972 232 972 c 1,6,-1
 261 1120 l 1,7,8
 411 1120 411 1120 554.5 1185 c 128,-1,9
 698 1250 698 1250 768 1349 c 1,10,-1
 934 1349 l 1,11,-1
 700 145 l 1,12,-1
 1053 145 l 1,13,-1
 1025 0 l 1,14,-1
 52 0 l 1,0,-1
EndSplineSet
Validated: 1
Substitution2: "'subs' Subscript lookup 5 subtable" one.subs
EndChar

StartChar: two
Encoding: 50 50 21
Width: 1229
GlyphClass: 2
Flags: W
LayerCount: 2
Fore
SplineSet
39 0 m 1,0,-1
 62 117 l 1,1,2
 120 207 120 207 218 300.5 c 128,-1,3
 316 394 316 394 444 486 c 128,-1,4
 572 578 572 578 587 589 c 0,5,6
 754 708 754 708 828.5 778.5 c 128,-1,7
 903 849 903 849 937 913.5 c 128,-1,8
 971 978 971 978 971 1047 c 0,9,10
 971 1130 971 1130 913 1176 c 128,-1,11
 855 1222 855 1222 744 1222 c 0,12,13
 635 1222 635 1222 550.5 1162.5 c 128,-1,14
 466 1103 466 1103 429 984 c 1,15,-1
 249 1001 l 1,16,17
 303 1173 303 1173 441 1271.5 c 128,-1,18
 579 1370 579 1370 772 1370 c 0,19,20
 956 1370 956 1370 1058 1297 c 128,-1,21
 1160 1224 1160 1224 1160 1084 c 0,22,23
 1160 1012 1160 1012 1136 944 c 128,-1,24
 1112 876 1112 876 1057 804 c 128,-1,25
 1002 732 1002 732 916 658.5 c 128,-1,26
 830 585 830 585 619 441 c 0,27,28
 487 350 487 350 405.5 279.5 c 128,-1,29
 324 209 324 209 284 146 c 1,30,-1
 1007 146 l 1,31,-1
 979 0 l 1,32,-1
 39 0 l 1,0,-1
EndSplineSet
Validated: 1
Substitution2: "'subs' Subscript lookup 5 subtable" two.subs
EndChar

StartChar: three
Encoding: 51 51 22
Width: 1229
GlyphClass: 2
Flags: W
LayerCount: 2
Fore
SplineSet
512 -20 m 0,0,1
 306 -20 306 -20 199 68 c 128,-1,2
 92 156 92 156 92 325 c 0,3,4
 92 353 92 353 93 362 c 1,5,-1
 283 379 l 1,6,-1
 282 358 l 1,7,8
 282 129 282 129 541 129 c 0,9,10
 644 129 644 129 721 165.5 c 128,-1,11
 798 202 798 202 841 272.5 c 128,-1,12
 884 343 884 343 884 417 c 0,13,14
 884 506 884 506 801.5 557.5 c 128,-1,15
 719 609 719 609 581 609 c 2,16,-1
 479 609 l 1,17,-1
 510 765 l 1,18,-1
 608 765 l 2,19,20
 704 765 704 765 787.5 799.5 c 128,-1,21
 871 834 871 834 920 896.5 c 128,-1,22
 969 959 969 959 969 1051 c 0,23,24
 969 1132 969 1132 913.5 1177 c 128,-1,25
 858 1222 858 1222 744 1222 c 0,26,27
 625 1222 625 1222 539.5 1161 c 128,-1,28
 454 1100 454 1100 420 989 c 1,29,-1
 242 1003 l 1,30,31
 296 1175 296 1175 438 1272.5 c 128,-1,32
 580 1370 580 1370 774 1370 c 0,33,34
 962 1370 962 1370 1061 1297 c 128,-1,35
 1160 1224 1160 1224 1160 1091 c 0,36,37
 1160 944 1160 944 1059.5 834.5 c 128,-1,38
 959 725 959 725 795 693 c 1,39,-1
 794 689 l 1,40,41
 923 674 923 674 997 602.5 c 128,-1,42
 1071 531 1071 531 1071 426 c 0,43,44
 1071 347 1071 347 1030.5 258 c 128,-1,45
 990 169 990 169 917 107.5 c 128,-1,46
 844 46 844 46 741 13 c 128,-1,47
 638 -20 638 -20 512 -20 c 0,0,1
EndSplineSet
Validated: 1
Substitution2: "'subs' Subscript lookup 5 subtable" three.subs
EndChar

StartChar: four
Encoding: 52 52 23
Width: 1229
GlyphClass: 2
Flags: W
LayerCount: 2
Fore
SplineSet
894 319 m 1,0,-1
 832 0 l 1,1,-1
 652 0 l 1,2,-1
 714 319 l 1,3,-1
 60 319 l 1,4,-1
 87 459 l 1,5,-1
 895 1349 l 1,6,-1
 1094 1349 l 1,7,-1
 922 461 l 1,8,-1
 1110 461 l 1,9,-1
 1082 319 l 1,10,-1
 894 319 l 1,0,-1
876 1154 m 1,11,-1
 242 461 l 1,12,-1
 742 461 l 1,13,-1
 876 1154 l 1,11,-1
EndSplineSet
Validated: 1
Substitution2: "'subs' Subscript lookup 5 subtable" four.subs
Substitution2: "'sups' Superscript lookup 4 subtable" four.sups
EndChar

StartChar: five
Encoding: 53 53 24
Width: 1229
GlyphClass: 2
Flags: W
LayerCount: 2
Fore
SplineSet
490 -20 m 0,0,1
 292 -20 292 -20 188 67 c 128,-1,2
 84 154 84 154 84 315 c 1,3,-1
 270 336 l 1,4,5
 286 127 286 127 523 127 c 0,6,7
 629 127 629 127 715 176.5 c 128,-1,8
 801 226 801 226 850 318.5 c 128,-1,9
 899 411 899 411 899 498 c 0,10,11
 899 601 899 601 830.5 661.5 c 128,-1,12
 762 722 762 722 642 722 c 0,13,14
 569 722 569 722 502.5 699.5 c 128,-1,15
 436 677 436 677 361 621 c 1,16,-1
 185 621 l 1,17,-1
 373 1349 l 1,18,-1
 1174 1349 l 1,19,-1
 1146 1204 l 1,20,-1
 511 1204 l 1,21,-1
 399 779 l 1,22,23
 535 869 535 869 708 869 c 0,24,25
 884 869 884 869 986.5 778.5 c 128,-1,26
 1089 688 1089 688 1089 535 c 0,27,28
 1089 394 1089 394 1013 259.5 c 128,-1,29
 937 125 937 125 799.5 52.5 c 128,-1,30
 662 -20 662 -20 490 -20 c 0,0,1
EndSplineSet
Validated: 1
Substitution2: "'subs' Subscript lookup 5 subtable" five.subs
Substitution2: "'sups' Superscript lookup 4 subtable" five.sups
EndChar

StartChar: six
Encoding: 54 54 25
Width: 1229
GlyphClass: 2
Flags: W
LayerCount: 2
Fore
SplineSet
532 -20 m 0,0,1
 343 -20 343 -20 245 91 c 128,-1,2
 147 202 147 202 147 413 c 0,3,4
 147 571 147 571 199.5 764 c 128,-1,5
 252 957 252 957 340.5 1092.5 c 128,-1,6
 429 1228 429 1228 550.5 1299 c 128,-1,7
 672 1370 672 1370 816 1370 c 0,8,9
 1134 1370 1134 1370 1163 1083 c 1,10,-1
 984 1052 l 1,11,12
 974 1143 974 1143 920.5 1183.5 c 128,-1,13
 867 1224 867 1224 786 1224 c 0,14,15
 633 1224 633 1224 520.5 1083.5 c 128,-1,16
 408 943 408 943 360 695 c 1,17,18
 427 786 427 786 525 833.5 c 128,-1,19
 623 881 623 881 738 881 c 0,20,21
 903 881 903 881 996 792.5 c 128,-1,22
 1089 704 1089 704 1089 551 c 0,23,24
 1089 448 1089 448 1048 338 c 128,-1,25
 1007 228 1007 228 933 148 c 128,-1,26
 859 68 859 68 757.5 24 c 128,-1,27
 656 -20 656 -20 532 -20 c 0,0,1
901 520 m 0,28,29
 901 626 901 626 840 684 c 128,-1,30
 779 742 779 742 668 742 c 0,31,32
 580 742 580 742 498.5 697 c 128,-1,33
 417 652 417 652 372 576.5 c 128,-1,34
 327 501 327 501 327 391 c 0,35,36
 327 269 327 269 389 197 c 128,-1,37
 451 125 451 125 554 125 c 0,38,39
 652 125 652 125 731 176.5 c 128,-1,40
 810 228 810 228 855.5 322 c 128,-1,41
 901 416 901 416 901 520 c 0,28,29
EndSplineSet
Validated: 1
Substitution2: "'subs' Subscript lookup 5 subtable" six.subs
Substitution2: "'sups' Superscript lookup 4 subtable" six.sups
EndChar

StartChar: seven
Encoding: 55 55 26
Width: 1229
GlyphClass: 2
Flags: W
LayerCount: 2
Fore
SplineSet
491 0 m 1,0,-1
 303 0 l 1,1,2
 355 263 355 263 535.5 567 c 128,-1,3
 716 871 716 871 1024 1204 c 1,4,-1
 287 1204 l 1,5,-1
 315 1349 l 1,6,-1
 1226 1349 l 1,7,-1
 1199 1210 l 1,8,9
 884 854 884 854 713 558 c 128,-1,10
 542 262 542 262 491 0 c 1,0,-1
EndSplineSet
Validated: 1
Substitution2: "'subs' Subscript lookup 5 subtable" seven.subs
Substitution2: "'sups' Superscript lookup 4 subtable" seven.sups
EndChar

StartChar: eight
Encoding: 56 56 27
Width: 1229
GlyphClass: 2
Flags: W
LayerCount: 2
Fore
SplineSet
505 -20 m 0,0,1
 309 -20 309 -20 200.5 60.5 c 128,-1,2
 92 141 92 141 92 291 c 0,3,4
 92 396 92 396 139 485 c 128,-1,5
 186 574 186 574 268 633 c 128,-1,6
 350 692 350 692 446 707 c 1,7,-1
 447 711 l 1,8,9
 357 733 357 733 305.5 799.5 c 128,-1,10
 254 866 254 866 254 961 c 0,11,12
 254 1070 254 1070 321 1165.5 c 128,-1,13
 388 1261 388 1261 506.5 1315.5 c 128,-1,14
 625 1370 625 1370 771 1370 c 0,15,16
 954 1370 954 1370 1056.5 1293.5 c 128,-1,17
 1159 1217 1159 1217 1159 1086 c 256,18,19
 1159 955 1159 955 1067.5 847 c 128,-1,20
 976 739 976 739 843 713 c 1,21,-1
 842 709 l 1,22,23
 948 692 948 692 1009 624 c 128,-1,24
 1070 556 1070 556 1070 453 c 0,25,26
 1070 366 1070 366 1030 273.5 c 128,-1,27
 990 181 990 181 917 115.5 c 128,-1,28
 844 50 844 50 740.5 15 c 128,-1,29
 637 -20 637 -20 505 -20 c 0,0,1
970 1068 m 0,30,31
 970 1236 970 1236 745 1236 c 0,32,33
 649 1236 649 1236 578 1200.5 c 128,-1,34
 507 1165 507 1165 472 1098.5 c 128,-1,35
 437 1032 437 1032 437 958 c 0,36,37
 437 871 437 871 493 825 c 128,-1,38
 549 779 549 779 658 779 c 0,39,40
 766 779 766 779 839 821 c 128,-1,41
 912 863 912 863 941 936.5 c 128,-1,42
 970 1010 970 1010 970 1068 c 0,30,31
885 451 m 0,43,44
 885 546 885 546 819 595 c 128,-1,45
 753 644 753 644 630 644 c 0,46,47
 525 644 525 644 444.5 601 c 128,-1,48
 364 558 364 558 323 481.5 c 128,-1,49
 282 405 282 405 282 316 c 0,50,51
 282 115 282 115 533 115 c 0,52,53
 650 115 650 115 728 159 c 128,-1,54
 806 203 806 203 845.5 289 c 128,-1,55
 885 375 885 375 885 451 c 0,43,44
EndSplineSet
Validated: 1
Substitution2: "'subs' Subscript lookup 5 subtable" eight.subs
Substitution2: "'sups' Superscript lookup 4 subtable" eight.sups
EndChar

StartChar: nine
Encoding: 57 57 28
Width: 1229
GlyphClass: 2
Flags: W
LayerCount: 2
Fore
SplineSet
468 -20 m 0,0,1
 302 -20 302 -20 216.5 50 c 128,-1,2
 131 120 131 120 118 274 c 1,3,-1
 296 301 l 1,4,5
 315 125 315 125 499 125 c 0,6,7
 650 125 650 125 764.5 262 c 128,-1,8
 879 399 879 399 930 650 c 1,9,10
 873 561 873 561 766 506 c 128,-1,11
 659 451 659 451 542 451 c 0,12,13
 384 451 384 451 292.5 543 c 128,-1,14
 201 635 201 635 201 796 c 0,15,16
 201 904 201 904 241.5 1013.5 c 128,-1,17
 282 1123 282 1123 358 1203 c 128,-1,18
 434 1283 434 1283 540 1326.5 c 128,-1,19
 646 1370 646 1370 771 1370 c 0,20,21
 1146 1370 1146 1370 1146 955 c 0,22,23
 1146 795 1146 795 1096.5 601.5 c 128,-1,24
 1047 408 1047 408 955.5 266 c 128,-1,25
 864 124 864 124 740.5 52 c 128,-1,26
 617 -20 617 -20 468 -20 c 0,0,1
964 960 m 0,27,28
 964 1082 964 1082 903.5 1153 c 128,-1,29
 843 1224 843 1224 737 1224 c 0,30,31
 638 1224 638 1224 558.5 1172 c 128,-1,32
 479 1120 479 1120 433 1023.5 c 128,-1,33
 387 927 387 927 387 826 c 0,34,35
 387 715 387 715 447 654 c 128,-1,36
 507 593 507 593 612 593 c 0,37,38
 702 593 702 593 787 640.5 c 128,-1,39
 872 688 872 688 918 765 c 128,-1,40
 964 842 964 842 964 960 c 0,27,28
EndSplineSet
Validated: 1
Substitution2: "'subs' Subscript lookup 5 subtable" nine.subs
Substitution2: "'sups' Superscript lookup 4 subtable" nine.sups
EndChar

StartChar: colon
Encoding: 58 58 29
Width: 1229
GlyphClass: 2
Flags: W
LayerCount: 2
Fore
SplineSet
391 0 m 1,0,-1
 449 299 l 1,1,-1
 684 299 l 1,2,-1
 626 0 l 1,3,-1
 391 0 l 1,0,-1
543 783 m 1,4,-1
 601 1082 l 1,5,-1
 836 1082 l 1,6,-1
 778 783 l 1,7,-1
 543 783 l 1,4,-1
EndSplineSet
Validated: 1
EndChar

StartChar: semicolon
Encoding: 59 59 30
Width: 1229
GlyphClass: 2
Flags: W
LayerCount: 2
Fore
SplineSet
543 783 m 1,0,-1
 601 1082 l 1,1,-1
 836 1082 l 1,2,-1
 778 783 l 1,3,-1
 543 783 l 1,0,-1
176 -363 m 1,4,-1
 474 299 l 1,5,-1
 739 299 l 1,6,-1
 299 -363 l 1,7,-1
 176 -363 l 1,4,-1
EndSplineSet
Validated: 1
EndChar

StartChar: less
Encoding: 60 60 31
Width: 1229
GlyphClass: 2
Flags: W
LayerCount: 2
Fore
SplineSet
116 571 m 1,0,-1
 116 776 l 1,1,-1
 1111 1194 l 1,2,-1
 1111 1040 l 1,3,-1
 253 674 l 1,4,-1
 1111 307 l 1,5,-1
 1111 154 l 1,6,-1
 116 571 l 1,0,-1
EndSplineSet
Validated: 1
EndChar

StartChar: equal
Encoding: 61 61 32
Width: 1229
GlyphClass: 2
Flags: W
LayerCount: 2
Fore
SplineSet
116 856 m 1,0,-1
 116 1004 l 1,1,-1
 1111 1004 l 1,2,-1
 1111 856 l 1,3,-1
 116 856 l 1,0,-1
116 344 m 1,4,-1
 116 492 l 1,5,-1
 1111 492 l 1,6,-1
 1111 344 l 1,7,-1
 116 344 l 1,4,-1
EndSplineSet
Validated: 1
EndChar

StartChar: greater
Encoding: 62 62 33
Width: 1229
GlyphClass: 2
Flags: W
LayerCount: 2
Fore
SplineSet
116 154 m 1,0,-1
 116 307 l 1,1,-1
 974 674 l 1,2,-1
 116 1040 l 1,3,-1
 116 1194 l 1,4,-1
 1111 776 l 1,5,-1
 1111 571 l 1,6,-1
 116 154 l 1,0,-1
EndSplineSet
Validated: 1
EndChar

StartChar: question
Encoding: 63 63 34
Width: 1229
GlyphClass: 2
Flags: W
LayerCount: 2
Fore
SplineSet
595 357 m 1,0,-1
 420 357 l 1,1,2
 444 462 444 462 514 544.5 c 128,-1,3
 584 627 584 627 708 702 c 0,4,5
 857 792 857 792 920.5 868 c 128,-1,6
 984 944 984 944 984 1042 c 0,7,8
 984 1129 984 1129 916.5 1174.5 c 128,-1,9
 849 1220 849 1220 728 1220 c 0,10,11
 594 1220 594 1220 495 1147.5 c 128,-1,12
 396 1075 396 1075 357 948 c 1,13,-1
 176 960 l 1,14,15
 238 1154 238 1154 391 1262 c 128,-1,16
 544 1370 544 1370 755 1370 c 0,17,18
 952 1370 952 1370 1061.5 1293.5 c 128,-1,19
 1171 1217 1171 1217 1171 1078 c 0,20,21
 1171 1007 1171 1007 1144 931.5 c 128,-1,22
 1117 856 1117 856 1051 785.5 c 128,-1,23
 985 715 985 715 876 651 c 0,24,25
 738 569 738 569 675.5 504 c 128,-1,26
 613 439 613 439 595 357 c 1,0,-1
343 0 m 1,27,-1
 382 201 l 1,28,-1
 577 201 l 1,29,-1
 538 0 l 1,30,-1
 343 0 l 1,27,-1
EndSplineSet
Validated: 1
EndChar

StartChar: at
Encoding: 64 64 35
Width: 1229
GlyphClass: 2
Flags: W
LayerCount: 2
Fore
SplineSet
799 104 m 0,0,1
 682 104 682 104 682 212 c 0,2,3
 682 238 682 238 687 261 c 2,4,-1
 696 299 l 1,5,-1
 690 299 l 1,6,7
 641 212 641 212 567.5 158 c 128,-1,8
 494 104 494 104 417 104 c 0,9,10
 336 104 336 104 293.5 163.5 c 128,-1,11
 251 223 251 223 251 336 c 0,12,13
 251 503 251 503 327.5 691.5 c 128,-1,14
 404 880 404 880 519 990.5 c 128,-1,15
 634 1101 634 1101 753 1101 c 0,16,17
 898 1101 898 1101 903 928 c 1,18,-1
 908 928 l 1,19,-1
 970 1079 l 1,20,-1
 1086 1079 l 1,21,-1
 888 572 l 1,22,23
 827 411 827 411 808.5 350 c 128,-1,24
 790 289 790 289 790 254 c 0,25,26
 790 206 790 206 826 206 c 0,27,28
 895 206 895 206 963.5 321 c 128,-1,29
 1032 436 1032 436 1081 627 c 128,-1,30
 1130 818 1130 818 1130 960 c 0,31,32
 1130 1152 1130 1152 1051.5 1260 c 128,-1,33
 973 1368 973 1368 831 1368 c 0,34,35
 699 1368 699 1368 578 1284 c 128,-1,36
 457 1200 457 1200 359 1041 c 128,-1,37
 261 882 261 882 200.5 665.5 c 128,-1,38
 140 449 140 449 140 273 c 0,39,40
 140 66 140 66 225 -49.5 c 128,-1,41
 310 -165 310 -165 467 -165 c 0,42,43
 558 -165 558 -165 650 -131.5 c 128,-1,44
 742 -98 742 -98 867 -7 c 1,45,-1
 921 -94 l 1,46,47
 781 -196 781 -196 665.5 -239.5 c 128,-1,48
 550 -283 550 -283 434 -283 c 0,49,50
 231 -283 231 -283 121 -141 c 128,-1,51
 11 1 11 1 11 249 c 0,52,53
 11 444 11 444 80.5 687 c 128,-1,54
 150 930 150 930 266 1109.5 c 128,-1,55
 382 1289 382 1289 533.5 1386.5 c 128,-1,56
 685 1484 685 1484 855 1484 c 0,57,58
 1047 1484 1047 1484 1151 1352.5 c 128,-1,59
 1255 1221 1255 1221 1255 987 c 0,60,61
 1255 802 1255 802 1188 578.5 c 128,-1,62
 1121 355 1121 355 1017.5 229.5 c 128,-1,63
 914 104 914 104 799 104 c 0,0,1
831 869 m 0,64,65
 831 934 831 934 805.5 966.5 c 128,-1,66
 780 999 780 999 735 999 c 0,67,68
 659 999 659 999 580.5 903.5 c 128,-1,69
 502 808 502 808 443.5 640.5 c 128,-1,70
 385 473 385 473 385 339 c 0,71,72
 385 210 385 210 462 210 c 0,73,74
 514 210 514 210 570 259.5 c 128,-1,75
 626 309 626 309 677.5 400.5 c 128,-1,76
 729 492 729 492 780 640.5 c 128,-1,77
 831 789 831 789 831 869 c 0,64,65
EndSplineSet
Validated: 1
EndChar

StartChar: A
Encoding: 65 65 36
Width: 1229
GlyphClass: 2
Flags: W
AnchorPoint: "bottom-right" 1022 25 basechar 0
AnchorPoint: "bottom" 495 0 basechar 0
AnchorPoint: "top" 773 1349 basechar 0
LayerCount: 2
Fore
SplineSet
929 0 m 1,0,-1
 865 382 l 1,1,-1
 302 382 l 1,2,-1
 91 0 l 1,3,-1
 -105 0 l 1,4,-1
 667 1349 l 1,5,-1
 884 1349 l 1,6,-1
 1123 0 l 1,7,-1
 929 0 l 1,0,-1
745 1205 m 1,8,9
 699 1114 699 1114 662.5 1044 c 128,-1,10
 626 974 626 974 382 531 c 1,11,-1
 845 531 l 1,12,-1
 769 1031 l 1,13,-1
 745 1205 l 1,8,9
EndSplineSet
EndChar

StartChar: B
Encoding: 66 66 37
Width: 1229
GlyphClass: 2
Flags: W
AnchorPoint: "bottom" 464 -5 basechar 0
AnchorPoint: "top" 696 1349 basechar 0
LayerCount: 2
Fore
SplineSet
529 0 m 2,0,-1
 57 0 l 1,1,-1
 319 1349 l 1,2,-1
 731 1349 l 2,3,4
 1171 1349 1171 1349 1171 1091 c 0,5,6
 1171 1004 1171 1004 1130 922 c 128,-1,7
 1089 840 1089 840 1012.5 785.5 c 128,-1,8
 936 731 936 731 835 711 c 1,9,10
 981 694 981 694 1054.5 623.5 c 128,-1,11
 1128 553 1128 553 1128 446 c 0,12,13
 1128 364 1128 364 1089.5 279 c 128,-1,14
 1051 194 1051 194 971 129.5 c 128,-1,15
 891 65 891 65 777 32.5 c 128,-1,16
 663 0 663 0 529 0 c 2,0,-1
972 1044 m 1,17,18
 972 1125 972 1125 904.5 1160.5 c 128,-1,19
 837 1196 837 1196 703 1196 c 2,20,-1
 480 1196 l 1,21,-1
 400 780 l 1,22,-1
 625 780 l 2,23,24
 923 780 923 780 967 998 c 1,25,-1
 972 1044 l 1,17,18
936 446 m 1,26,27
 936 631 936 631 623 631 c 2,28,-1
 371 631 l 1,29,-1
 278 153 l 1,30,-1
 544 153 l 2,31,32
 719 153 719 153 813 213.5 c 128,-1,33
 907 274 907 274 931 397 c 1,34,-1
 936 446 l 1,26,27
EndSplineSet
EndChar

StartChar: C
Encoding: 67 67 38
Width: 1229
GlyphClass: 2
Flags: W
AnchorPoint: "bottom" 524 -21 basechar 0
AnchorPoint: "top" 799 1367 basechar 0
LayerCount: 2
Fore
SplineSet
316 452 m 0,0,1
 316 135 316 135 582 135 c 0,2,3
 685 135 685 135 782 206.5 c 128,-1,4
 879 278 879 278 959 417 c 1,5,-1
 1105 352 l 1,6,7
 882 -20 882 -20 550 -20 c 0,8,9
 338 -20 338 -20 227 98.5 c 128,-1,10
 116 217 116 217 116 447 c 0,11,12
 116 612 116 612 168 802 c 128,-1,13
 220 992 220 992 308.5 1117 c 128,-1,14
 397 1242 397 1242 523 1306 c 128,-1,15
 649 1370 649 1370 810 1370 c 0,16,17
 1145 1370 1145 1370 1211 1035 c 1,18,-1
 1031 970 l 1,19,20
 1013 1089 1013 1089 947 1151.5 c 128,-1,21
 881 1214 881 1214 781 1214 c 0,22,23
 673 1214 673 1214 591.5 1163 c 128,-1,24
 510 1112 510 1112 451.5 1009 c 128,-1,25
 393 906 393 906 354.5 742.5 c 128,-1,26
 316 579 316 579 316 452 c 0,0,1
EndSplineSet
EndChar

StartChar: D
Encoding: 68 68 39
Width: 1229
GlyphClass: 2
Flags: W
AnchorPoint: "bottom" 397 1 basechar 0
AnchorPoint: "top" 673 1347 basechar 0
LayerCount: 2
Fore
SplineSet
427 0 m 2,0,-1
 57 0 l 1,1,-1
 319 1349 l 1,2,-1
 630 1349 l 2,3,4
 1175 1349 1175 1349 1175 890 c 0,5,6
 1175 732 1175 732 1121 555 c 128,-1,7
 1067 378 1067 378 969 253.5 c 128,-1,8
 871 129 871 129 734 64.5 c 128,-1,9
 597 0 597 0 427 0 c 2,0,-1
981 865 m 0,10,11
 981 1038 981 1038 886.5 1115.5 c 128,-1,12
 792 1193 792 1193 601 1193 c 2,13,-1
 480 1193 l 1,14,-1
 278 156 l 1,15,-1
 440 156 l 2,16,17
 568 156 568 156 665.5 204.5 c 128,-1,18
 763 253 763 253 832 351 c 128,-1,19
 901 449 901 449 941 597 c 128,-1,20
 981 745 981 745 981 865 c 0,10,11
EndSplineSet
EndChar

StartChar: E
Encoding: 69 69 40
Width: 1229
GlyphClass: 2
Flags: W
AnchorPoint: "bottom-right" 934 33 basechar 0
AnchorPoint: "bottom" 552 -6 basechar 0
AnchorPoint: "top" 799 1346 basechar 0
LayerCount: 2
Fore
SplineSet
57 0 m 1,0,-1
 319 1349 l 1,1,-1
 1238 1349 l 1,2,-1
 1208 1193 l 1,3,-1
 480 1193 l 1,4,-1
 398 771 l 1,5,-1
 1066 771 l 1,6,-1
 1036 617 l 1,7,-1
 368 617 l 1,8,-1
 278 156 l 1,9,-1
 1047 156 l 1,10,-1
 1017 0 l 1,11,-1
 57 0 l 1,0,-1
EndSplineSet
EndChar

StartChar: F
Encoding: 70 70 41
Width: 1229
GlyphClass: 2
Flags: W
AnchorPoint: "bottom" 546 -1 basechar 0
AnchorPoint: "top" 804 1347 basechar 0
LayerCount: 2
Fore
SplineSet
512 1193 m 1,0,-1
 416 699 l 1,1,-1
 1092 699 l 1,2,-1
 1061 541 l 1,3,-1
 385 541 l 1,4,-1
 280 0 l 1,5,-1
 89 0 l 1,6,-1
 351 1349 l 1,7,-1
 1242 1349 l 1,8,-1
 1212 1193 l 1,9,-1
 512 1193 l 1,0,-1
EndSplineSet
EndChar

StartChar: G
Encoding: 71 71 42
Width: 1229
GlyphClass: 2
Flags: W
AnchorPoint: "bottom" 522 -18 basechar 0
AnchorPoint: "top" 794 1369 basechar 0
LayerCount: 2
Fore
SplineSet
530 -20 m 0,0,1
 331 -20 331 -20 223.5 100.5 c 128,-1,2
 116 221 116 221 116 451 c 0,3,4
 116 612 116 612 169 804.5 c 128,-1,5
 222 997 222 997 309 1121 c 128,-1,6
 396 1245 396 1245 519 1307.5 c 128,-1,7
 642 1370 642 1370 803 1370 c 0,8,9
 1147 1370 1147 1370 1200 1039 c 1,10,-1
 1018 983 l 1,11,12
 982 1214 982 1214 775 1214 c 0,13,14
 668 1214 668 1214 588.5 1164.5 c 128,-1,15
 509 1115 509 1115 452 1015 c 128,-1,16
 395 915 395 915 355.5 748.5 c 128,-1,17
 316 582 316 582 316 455 c 0,18,19
 316 135 316 135 576 135 c 0,20,21
 644 135 644 135 720.5 156 c 128,-1,22
 797 177 797 177 851 209 c 1,23,-1
 916 545 l 1,24,-1
 623 545 l 1,25,-1
 654 705 l 1,26,-1
 1133 705 l 1,27,-1
 1022 133 l 1,28,29
 767 -20 767 -20 530 -20 c 0,0,1
EndSplineSet
EndChar

StartChar: H
Encoding: 72 72 43
Width: 1229
GlyphClass: 2
Flags: W
AnchorPoint: "bottom" 490 1 basechar 0
AnchorPoint: "top" 743 1346 basechar 0
LayerCount: 2
Fore
SplineSet
770 0 m 1,0,-1
 891 623 l 1,1,-1
 369 623 l 1,2,-1
 248 0 l 1,3,-1
 57 0 l 1,4,-1
 319 1349 l 1,5,-1
 510 1349 l 1,6,-1
 400 783 l 1,7,-1
 922 783 l 1,8,-1
 1032 1349 l 1,9,-1
 1223 1349 l 1,10,-1
 961 0 l 1,11,-1
 770 0 l 1,0,-1
EndSplineSet
EndChar

StartChar: I
Encoding: 73 73 44
Width: 1229
GlyphClass: 2
Flags: W
AnchorPoint: "bottom-right" 532 27 basechar 0
AnchorPoint: "bottom" 519 -5 basechar 0
AnchorPoint: "top" 774 1350 basechar 0
LayerCount: 2
Fore
SplineSet
359 1349 m 1,0,-1
 1182 1349 l 1,1,-1
 1152 1193 l 1,2,-1
 836 1193 l 1,3,-1
 634 156 l 1,4,-1
 950 156 l 1,5,-1
 920 0 l 1,6,-1
 97 0 l 1,7,-1
 127 156 l 1,8,-1
 443 156 l 1,9,-1
 645 1193 l 1,10,-1
 329 1193 l 1,11,-1
 359 1349 l 1,0,-1
EndSplineSet
EndChar

StartChar: J
Encoding: 74 74 45
Width: 1229
GlyphClass: 2
Flags: W
AnchorPoint: "bottom" 475 -22 basechar 0
AnchorPoint: "top" 878 1351 basechar 0
LayerCount: 2
Fore
SplineSet
477 -20 m 0,0,1
 308 -20 308 -20 223.5 67 c 128,-1,2
 139 154 139 154 139 341 c 2,3,-1
 139 350 l 1,4,-1
 332 381 l 1,5,-1
 332 362 l 2,6,7
 332 250 332 250 378 192.5 c 128,-1,8
 424 135 424 135 508 135 c 0,9,10
 717 135 717 135 772 416 c 2,11,-1
 923 1193 l 1,12,-1
 612 1193 l 1,13,-1
 642 1349 l 1,14,-1
 1143 1349 l 1,15,-1
 963 420 l 2,16,17
 924 215 924 215 796.5 97.5 c 128,-1,18
 669 -20 669 -20 477 -20 c 0,0,1
EndSplineSet
EndChar

StartChar: K
Encoding: 75 75 46
Width: 1229
GlyphClass: 2
Flags: W
AnchorPoint: "bottom" 533 0 basechar 0
AnchorPoint: "top" 734 1339 basechar 0
LayerCount: 2
Fore
SplineSet
898 0 m 1,0,-1
 539 641 l 1,1,-1
 339 469 l 1,2,-1
 248 0 l 1,3,-1
 57 0 l 1,4,-1
 319 1349 l 1,5,-1
 510 1349 l 1,6,-1
 379 676 l 1,7,-1
 1082 1349 l 1,8,-1
 1307 1349 l 1,9,-1
 692 777 l 1,10,-1
 1122 0 l 1,11,-1
 898 0 l 1,0,-1
EndSplineSet
EndChar

StartChar: L
Encoding: 76 76 47
Width: 1229
GlyphClass: 2
Flags: W
AnchorPoint: "bottom" 565 2 basechar 0
AnchorPoint: "top" 758 1346 basechar 0
LayerCount: 2
Fore
SplineSet
132 0 m 1,0,-1
 394 1349 l 1,1,-1
 585 1349 l 1,2,-1
 353 156 l 1,3,-1
 1025 156 l 1,4,-1
 995 0 l 1,5,-1
 132 0 l 1,0,-1
EndSplineSet
EndChar

StartChar: M
Encoding: 77 77 48
Width: 1229
GlyphClass: 2
Flags: W
AnchorPoint: "bottom" 506 1 basechar 0
AnchorPoint: "top" 748 1342 basechar 0
LayerCount: 2
Fore
SplineSet
832 0 m 1,0,-1
 1001 868 l 2,1,2
 1026 994 1026 994 1065 1169 c 1,3,-1
 1010 1061 l 1,4,-1
 914 878 l 1,5,-1
 665 440 l 1,6,-1
 528 440 l 1,7,-1
 447 878 l 1,8,9
 432 951 432 951 407 1169 c 1,10,-1
 353 868 l 1,11,-1
 184 0 l 1,12,-1
 24 0 l 1,13,-1
 286 1349 l 1,14,-1
 523 1349 l 1,15,-1
 613 860 l 1,16,17
 625 803 625 803 636 629 c 1,18,-1
 679 719 l 1,19,-1
 751 859 l 1,20,-1
 1031 1349 l 1,21,-1
 1256 1349 l 1,22,-1
 994 0 l 1,23,-1
 832 0 l 1,0,-1
EndSplineSet
EndChar

StartChar: N
Encoding: 78 78 49
Width: 1229
GlyphClass: 2
Flags: W
AnchorPoint: "bottom" 488 2 basechar 0
AnchorPoint: "top" 756 1342 basechar 0
LayerCount: 2
Fore
SplineSet
731 0 m 1,0,-1
 431 1130 l 1,1,2
 416 969 416 969 397 876 c 2,3,-1
 227 0 l 1,4,-1
 57 0 l 1,5,-1
 319 1349 l 1,6,-1
 541 1349 l 1,7,-1
 848 211 l 1,8,9
 860 366 860 366 883 485 c 2,10,-1
 1051 1349 l 1,11,-1
 1223 1349 l 1,12,-1
 961 0 l 1,13,-1
 731 0 l 1,0,-1
EndSplineSet
EndChar

StartChar: O
Encoding: 79 79 50
Width: 1229
GlyphClass: 2
Flags: W
AnchorPoint: "bottom-right" 480 5 basechar 0
AnchorPoint: "bottom" 473 -24 basechar 0
AnchorPoint: "top" 803 1371 basechar 0
LayerCount: 2
Fore
SplineSet
504 -20 m 0,0,1
 302 -20 302 -20 202 96.5 c 128,-1,2
 102 213 102 213 102 430 c 0,3,4
 102 590 102 590 151.5 781 c 128,-1,5
 201 972 201 972 288.5 1104.5 c 128,-1,6
 376 1237 376 1237 498 1303.5 c 128,-1,7
 620 1370 620 1370 776 1370 c 0,8,9
 974 1370 974 1370 1077 1259.5 c 128,-1,10
 1180 1149 1180 1149 1180 928 c 0,11,12
 1180 773 1180 773 1131 582 c 128,-1,13
 1082 391 1082 391 992 254.5 c 128,-1,14
 902 118 902 118 778 49 c 128,-1,15
 654 -20 654 -20 504 -20 c 0,0,1
978 913 m 0,16,17
 978 1214 978 1214 746 1214 c 0,18,19
 610 1214 610 1214 514.5 1114.5 c 128,-1,20
 419 1015 419 1015 361.5 813 c 128,-1,21
 304 611 304 611 304 446 c 0,22,23
 304 135 304 135 535 135 c 0,24,25
 635 135 635 135 711 187 c 128,-1,26
 787 239 787 239 845.5 351 c 128,-1,27
 904 463 904 463 941 628.5 c 128,-1,28
 978 794 978 794 978 913 c 0,16,17
EndSplineSet
EndChar

StartChar: P
Encoding: 80 80 51
Width: 1229
GlyphClass: 2
Flags: W
AnchorPoint: "bottom" 458 2 basechar 0
AnchorPoint: "top" 702 1348 basechar 0
LayerCount: 2
Fore
SplineSet
629 514 m 2,0,-1
 348 514 l 1,1,-1
 248 0 l 1,2,-1
 57 0 l 1,3,-1
 319 1349 l 1,4,-1
 779 1349 l 2,5,6
 987 1349 987 1349 1097 1267.5 c 128,-1,7
 1207 1186 1207 1186 1207 1035 c 0,8,9
 1207 899 1207 899 1132.5 776 c 128,-1,10
 1058 653 1058 653 925.5 583.5 c 128,-1,11
 793 514 793 514 629 514 c 2,0,-1
1011 1002 m 0,12,13
 1011 1196 1011 1196 726 1196 c 2,14,-1
 480 1196 l 1,15,-1
 377 665 l 1,16,-1
 631 665 l 2,17,18
 745 665 745 665 832.5 709 c 128,-1,19
 920 753 920 753 965.5 833 c 128,-1,20
 1011 913 1011 913 1011 1002 c 0,12,13
EndSplineSet
EndChar

StartChar: Q
Encoding: 81 81 52
Width: 1229
GlyphClass: 2
Flags: W
AnchorPoint: "bottom" 602 -388 basechar 0
AnchorPoint: "top" 782 1372 basechar 0
LayerCount: 2
Fore
SplineSet
640 -4 m 1,0,1
 657 -130 657 -130 713 -187 c 128,-1,2
 769 -244 769 -244 870 -244 c 0,3,4
 925 -244 925 -244 987 -231 c 1,5,-1
 961 -365 l 1,6,7
 863 -387 863 -387 779 -387 c 0,8,9
 628 -387 628 -387 547 -301 c 128,-1,10
 466 -215 466 -215 443 -16 c 1,11,12
 272 1 272 1 187 116 c 128,-1,13
 102 231 102 231 102 430 c 0,14,15
 102 590 102 590 151.5 781 c 128,-1,16
 201 972 201 972 288.5 1104.5 c 128,-1,17
 376 1237 376 1237 498 1303.5 c 128,-1,18
 620 1370 620 1370 776 1370 c 0,19,20
 974 1370 974 1370 1077 1259.5 c 128,-1,21
 1180 1149 1180 1149 1180 928 c 0,22,23
 1180 795 1180 795 1141 623.5 c 128,-1,24
 1102 452 1102 452 1031 320 c 128,-1,25
 960 188 960 188 861 106 c 128,-1,26
 762 24 762 24 640 -4 c 1,0,1
978 913 m 0,27,28
 978 1214 978 1214 746 1214 c 0,29,30
 610 1214 610 1214 514.5 1114.5 c 128,-1,31
 419 1015 419 1015 361.5 813 c 128,-1,32
 304 611 304 611 304 446 c 0,33,34
 304 135 304 135 535 135 c 0,35,36
 635 135 635 135 711 187 c 128,-1,37
 787 239 787 239 845.5 351 c 128,-1,38
 904 463 904 463 941 628.5 c 128,-1,39
 978 794 978 794 978 913 c 0,27,28
EndSplineSet
EndChar

StartChar: R
Encoding: 82 82 53
Width: 1229
GlyphClass: 2
Flags: W
AnchorPoint: "bottom" 524 0 basechar 0
AnchorPoint: "top" 737 1348 basechar 0
LayerCount: 2
Fore
SplineSet
852 0 m 1,0,-1
 598 575 l 1,1,-1
 360 575 l 1,2,-1
 248 0 l 1,3,-1
 57 0 l 1,4,-1
 319 1349 l 1,5,-1
 801 1349 l 2,6,7
 1010 1349 1010 1349 1112.5 1273 c 128,-1,8
 1215 1197 1215 1197 1215 1060 c 0,9,10
 1215 956 1215 956 1163.5 855 c 128,-1,11
 1112 754 1112 754 1013 685.5 c 128,-1,12
 914 617 914 617 788 597 c 1,13,-1
 1072 0 l 1,14,-1
 852 0 l 1,0,-1
1018 1026 m 0,15,16
 1018 1196 1018 1196 752 1196 c 2,17,-1
 480 1196 l 1,18,-1
 389 726 l 1,19,-1
 669 726 l 2,20,21
 780 726 780 726 860 765.5 c 128,-1,22
 940 805 940 805 979 877.5 c 128,-1,23
 1018 950 1018 950 1018 1026 c 0,15,16
EndSplineSet
EndChar

StartChar: S
Encoding: 83 83 54
Width: 1229
GlyphClass: 2
Flags: W
AnchorPoint: "bottom" 515 -20 basechar 0
AnchorPoint: "top" 772 1368 basechar 0
LayerCount: 2
Fore
SplineSet
501 -20 m 0,0,1
 44 -20 44 -20 40 338 c 1,2,-1
 232 375 l 1,3,4
 234 248 234 248 310 188.5 c 128,-1,5
 386 129 386 129 535 129 c 0,6,7
 694 129 694 129 788.5 190.5 c 128,-1,8
 883 252 883 252 905 367 c 1,9,-1
 910 412 l 1,10,11
 910 468 910 468 879.5 505 c 128,-1,12
 849 542 849 542 795 567.5 c 128,-1,13
 741 593 741 593 585 633 c 1,14,15
 440 673 440 673 385 700 c 128,-1,16
 330 727 330 727 296.5 760 c 128,-1,17
 263 793 263 793 245.5 835 c 128,-1,18
 228 877 228 877 228 932 c 0,19,20
 228 1018 228 1018 264 1102.5 c 128,-1,21
 300 1187 300 1187 371.5 1248 c 128,-1,22
 443 1309 443 1309 546 1339.5 c 128,-1,23
 649 1370 649 1370 776 1370 c 0,24,25
 990 1370 990 1370 1087 1295 c 128,-1,26
 1184 1220 1184 1220 1193 1046 c 1,27,-1
 999 1013 l 1,28,29
 997 1124 997 1124 936 1175 c 128,-1,30
 875 1226 875 1226 747 1226 c 0,31,32
 466 1226 466 1226 423 1013 c 1,33,-1
 419 972 l 1,34,35
 419 925 419 925 442.5 895 c 128,-1,36
 466 865 466 865 506 844.5 c 128,-1,37
 546 824 546 824 599 809.5 c 128,-1,38
 652 795 652 795 711 779 c 0,39,40
 889 731 889 731 957.5 693 c 128,-1,41
 1026 655 1026 655 1065 598.5 c 128,-1,42
 1104 542 1104 542 1104 455 c 0,43,44
 1104 359 1104 359 1063 267.5 c 128,-1,45
 1022 176 1022 176 944.5 112.5 c 128,-1,46
 867 49 867 49 756 14.5 c 128,-1,47
 645 -20 645 -20 501 -20 c 0,0,1
EndSplineSet
EndChar

StartChar: T
Encoding: 84 84 55
Width: 1229
GlyphClass: 2
Flags: W
AnchorPoint: "bottom" 513 2 basechar 0
AnchorPoint: "top" 767 1350 basechar 0
LayerCount: 2
Fore
SplineSet
836 1193 m 1,0,-1
 604 0 l 1,1,-1
 414 0 l 1,2,-1
 646 1193 l 1,3,-1
 203 1193 l 1,4,-1
 233 1349 l 1,5,-1
 1309 1349 l 1,6,-1
 1279 1193 l 1,7,-1
 836 1193 l 1,0,-1
EndSplineSet
EndChar

StartChar: U
Encoding: 85 85 56
Width: 1229
GlyphClass: 2
Flags: W
AnchorPoint: "bottom-right" 482 9 basechar 0
AnchorPoint: "bottom" 460 -24 basechar 0
AnchorPoint: "top" 756 1353 basechar 0
LayerCount: 2
Fore
SplineSet
496 -20 m 0,0,1
 295 -20 295 -20 202.5 57.5 c 128,-1,2
 110 135 110 135 110 301 c 0,3,4
 110 378 110 378 129 472 c 2,5,-1
 299 1349 l 1,6,-1
 490 1349 l 1,7,-1
 325 498 l 2,8,9
 305 396 305 396 305 328 c 0,10,11
 305 226 305 226 355.5 180.5 c 128,-1,12
 406 135 406 135 525 135 c 0,13,14
 686 135 686 135 766.5 217 c 128,-1,15
 847 299 847 299 889 511 c 2,16,-1
 1052 1349 l 1,17,-1
 1242 1349 l 1,18,-1
 1075 490 l 2,19,20
 1023 224 1023 224 886 102 c 128,-1,21
 749 -20 749 -20 496 -20 c 0,0,1
EndSplineSet
EndChar

StartChar: V
Encoding: 86 86 57
Width: 1229
GlyphClass: 2
Flags: W
AnchorPoint: "bottom" 509 0 basechar 0
AnchorPoint: "top" 753 1351 basechar 0
LayerCount: 2
Fore
SplineSet
608 0 m 1,0,-1
 410 0 l 1,1,-1
 167 1349 l 1,2,-1
 368 1349 l 1,3,-1
 513 447 l 2,4,5
 527 358 527 358 543 168 c 1,6,-1
 587 261 l 1,7,-1
 681 447 l 1,8,-1
 1174 1349 l 1,9,-1
 1375 1349 l 1,10,-1
 608 0 l 1,0,-1
EndSplineSet
EndChar

StartChar: W
Encoding: 87 87 58
Width: 1229
GlyphClass: 2
Flags: W
AnchorPoint: "bottom" 502 2 basechar 0
AnchorPoint: "top" 740 1348 basechar 0
LayerCount: 2
Fore
SplineSet
913 0 m 1,0,-1
 705 0 l 1,1,-1
 673 432 l 2,2,3
 668 491 668 491 658 756 c 1,4,5
 625 676 625 676 575.5 564.5 c 128,-1,6
 526 453 526 453 314 0 c 1,7,-1
 106 0 l 1,8,-1
 157 1349 l 1,9,-1
 346 1349 l 1,10,-1
 293 514 l 1,11,12
 280 349 280 349 259 168 c 1,13,14
 341 363 341 363 391.5 475 c 128,-1,15
 442 587 442 587 604 931 c 1,16,-1
 779 931 l 1,17,18
 801 654 801 654 812.5 505.5 c 128,-1,19
 824 357 824 357 828 168 c 1,20,-1
 930 514 l 1,21,-1
 1196 1349 l 1,22,-1
 1385 1349 l 1,23,-1
 913 0 l 1,0,-1
EndSplineSet
EndChar

StartChar: X
Encoding: 88 88 59
Width: 1229
GlyphClass: 2
Flags: W
AnchorPoint: "bottom" 505 1 basechar 0
AnchorPoint: "top" 759 1353 basechar 0
LayerCount: 2
Fore
SplineSet
672 836 m 1,0,-1
 1104 1349 l 1,1,-1
 1309 1349 l 1,2,-1
 749 705 l 1,3,-1
 1088 0 l 1,4,-1
 883 0 l 1,5,-1
 620 573 l 1,6,-1
 136 0 l 1,7,-1
 -69 0 l 1,8,-1
 544 705 l 1,9,-1
 234 1349 l 1,10,-1
 439 1349 l 1,11,-1
 672 836 l 1,0,-1
EndSplineSet
EndChar

StartChar: Y
Encoding: 89 89 60
Width: 1229
GlyphClass: 2
Flags: W
AnchorPoint: "bottom" 513 1 basechar 0
AnchorPoint: "top" 760 1347 basechar 0
LayerCount: 2
Fore
SplineSet
603 0 m 1,0,-1
 415 0 l 1,1,-1
 529 584 l 1,2,-1
 193 1349 l 1,3,-1
 398 1349 l 1,4,-1
 653 738 l 1,5,-1
 1144 1349 l 1,6,-1
 1349 1349 l 1,7,-1
 717 584 l 1,8,-1
 603 0 l 1,0,-1
EndSplineSet
EndChar

StartChar: Z
Encoding: 90 90 61
Width: 1229
GlyphClass: 2
Flags: W
AnchorPoint: "bottom" 511 2 basechar 0
AnchorPoint: "top" 757 1350 basechar 0
LayerCount: 2
Fore
SplineSet
1050 0 m 1,0,-1
 -32 0 l 1,1,-1
 -4 143 l 1,2,-1
 1018 1193 l 1,3,-1
 273 1193 l 1,4,-1
 303 1349 l 1,5,-1
 1265 1349 l 1,6,-1
 1238 1210 l 1,7,-1
 215 156 l 1,8,-1
 1080 156 l 1,9,-1
 1050 0 l 1,0,-1
EndSplineSet
EndChar

StartChar: bracketleft
Encoding: 91 91 62
Width: 1229
GlyphClass: 2
Flags: W
LayerCount: 2
Fore
SplineSet
222 -425 m 1,0,-1
 593 1484 l 1,1,-1
 1140 1484 l 1,2,-1
 1113 1345 l 1,3,-1
 746 1345 l 1,4,-1
 429 -286 l 1,5,-1
 796 -286 l 1,6,-1
 769 -425 l 1,7,-1
 222 -425 l 1,0,-1
EndSplineSet
Validated: 1
EndChar

StartChar: backslash
Encoding: 92 92 63
Width: 1229
GlyphClass: 2
Flags: W
LayerCount: 2
Fore
SplineSet
823 -20 m 1,0,-1
 298 1484 l 1,1,-1
 476 1484 l 1,2,-1
 1005 -20 l 1,3,-1
 823 -20 l 1,0,-1
EndSplineSet
Validated: 1
EndChar

StartChar: bracketright
Encoding: 93 93 64
Width: 1229
GlyphClass: 2
Flags: W
LayerCount: 2
Fore
SplineSet
82 -425 m 1,0,-1
 109 -286 l 1,1,-1
 476 -286 l 1,2,-1
 793 1345 l 1,3,-1
 426 1345 l 1,4,-1
 453 1484 l 1,5,-1
 1000 1484 l 1,6,-1
 629 -425 l 1,7,-1
 82 -425 l 1,0,-1
EndSplineSet
Validated: 1
EndChar

StartChar: asciicircum
Encoding: 94 94 65
Width: 1229
GlyphClass: 2
Flags: W
LayerCount: 2
Fore
SplineSet
921 442 m 1,0,-1
 748 1245 l 1,1,-1
 266 442 l 1,2,-1
 114 442 l 1,3,-1
 668 1349 l 1,4,-1
 871 1349 l 1,5,-1
 1075 442 l 1,6,-1
 921 442 l 1,0,-1
EndSplineSet
Validated: 1
EndChar

StartChar: underscore
Encoding: 95 95 66
Width: 1229
GlyphClass: 2
Flags: W
LayerCount: 2
Fore
SplineSet
-153 -220 m 1,0,-1
 -134 -124 l 1,1,-1
 1104 -124 l 1,2,-1
 1085 -220 l 1,3,-1
 -153 -220 l 1,0,-1
EndSplineSet
Validated: 1
EndChar

StartChar: grave
Encoding: 96 96 67
Width: 1229
GlyphClass: 2
Flags: W
LayerCount: 2
Fore
SplineSet
830 1201 m 1,0,-1
 575 1431 l 1,1,-1
 581 1460 l 1,2,-1
 778 1460 l 1,3,-1
 958 1221 l 1,4,-1
 954 1201 l 1,5,-1
 830 1201 l 1,0,-1
EndSplineSet
Validated: 1
EndChar

StartChar: a
Encoding: 97 97 68
Width: 1229
GlyphClass: 2
Flags: W
AnchorPoint: "bottom-right" 979 21 basechar 0
AnchorPoint: "bottom" 542 -30 basechar 0
AnchorPoint: "top" 716 1106 basechar 0
LayerCount: 2
Fore
SplineSet
1018 111 m 0,0,1
 1045 111 1045 111 1078 118 c 1,2,-1
 1056 6 l 1,3,4
 986 -10 986 -10 914 -10 c 0,5,6
 827 -10 827 -10 790.5 28 c 128,-1,7
 754 66 754 66 754 142 c 1,8,-1
 759 207 l 1,9,-1
 753 207 l 1,10,11
 664 85 664 85 564.5 32.5 c 128,-1,12
 465 -20 465 -20 337 -20 c 0,13,14
 204 -20 204 -20 138.5 42 c 128,-1,15
 73 104 73 104 73 213 c 0,16,17
 73 254 73 254 82 302 c 0,18,19
 150 651 150 651 605 656 c 1,20,-1
 841 660 l 1,21,22
 858 741 858 741 860.5 762.5 c 128,-1,23
 863 784 863 784 863 808 c 0,24,25
 863 893 863 893 817 929 c 128,-1,26
 771 965 771 965 679 965 c 0,27,28
 563 965 563 965 503.5 925.5 c 128,-1,29
 444 886 444 886 413 793 c 1,30,-1
 228 810 l 1,31,32
 282 959 282 959 400.5 1030.5 c 128,-1,33
 519 1102 519 1102 708 1102 c 0,34,35
 1048 1102 1048 1102 1048 835 c 0,36,37
 1048 790 1048 790 1038 738 c 2,38,-1
 948 272 l 2,39,40
 939 229 939 229 939 196 c 0,41,42
 939 154 939 154 957 132.5 c 128,-1,43
 975 111 975 111 1018 111 c 0,0,1
410 117 m 0,44,45
 505 117 505 117 588 162.5 c 128,-1,46
 671 208 671 208 727 285 c 128,-1,47
 783 362 783 362 799 445 c 2,48,-1
 817 534 l 1,49,-1
 626 530 l 2,50,51
 491 528 491 528 416.5 494.5 c 128,-1,52
 342 461 342 461 303.5 394.5 c 128,-1,53
 265 328 265 328 265 251 c 0,54,55
 265 189 265 189 301.5 153 c 128,-1,56
 338 117 338 117 410 117 c 0,44,45
EndSplineSet
EndChar

StartChar: b
Encoding: 98 98 69
Width: 1229
GlyphClass: 2
Flags: W
AnchorPoint: "bottom" 454 -70 basechar 0
AnchorPoint: "top" 466 1542 basechar 0
LayerCount: 2
Fore
SplineSet
589 -20 m 0,0,1
 345 -20 345 -20 291 164 c 1,2,-1
 289 164 l 1,3,4
 281 120 281 120 266 63.5 c 128,-1,5
 251 7 251 7 248 0 c 1,6,-1
 74 0 l 1,7,8
 79 15 79 15 93.5 82 c 128,-1,9
 108 149 108 149 123 223 c 2,10,-1
 368 1484 l 1,11,-1
 548 1484 l 1,12,-1
 466 1061 l 1,13,-1
 432 904 l 1,14,-1
 436 904 l 1,15,16
 566 1104 566 1104 809 1104 c 0,17,18
 1115 1104 1115 1104 1115 761 c 0,19,20
 1115 668 1115 668 1091 546 c 0,21,22
 1036 262 1036 262 907 121 c 128,-1,23
 778 -20 778 -20 589 -20 c 0,0,1
926 736 m 0,24,25
 926 856 926 856 878.5 910.5 c 128,-1,26
 831 965 831 965 733 965 c 0,27,28
 607 965 607 965 523 886 c 128,-1,29
 439 807 439 807 391 644.5 c 128,-1,30
 343 482 343 482 343 351 c 0,31,32
 343 228 343 228 397 170.5 c 128,-1,33
 451 113 451 113 565 113 c 0,34,35
 685 113 685 113 761.5 194.5 c 128,-1,36
 838 276 838 276 882 442.5 c 128,-1,37
 926 609 926 609 926 736 c 0,24,25
EndSplineSet
EndChar

StartChar: c
Encoding: 99 99 70
Width: 1229
GlyphClass: 2
Flags: W
AnchorPoint: "bottom" 522 -72 basechar 0
AnchorPoint: "top" 732 1168 basechar 0
LayerCount: 2
Fore
SplineSet
741 1102 m 0,0,1
 922 1102 922 1102 1023 1015.5 c 128,-1,2
 1124 929 1124 929 1124 779 c 1,3,-1
 930 765 l 1,4,-1
 930 771 l 2,5,6
 930 857 930 857 877 909 c 128,-1,7
 824 961 824 961 706 961 c 0,8,9
 572 961 572 961 485 890.5 c 128,-1,10
 398 820 398 820 349.5 665 c 128,-1,11
 301 510 301 510 301 372 c 0,12,13
 301 241 301 241 361 180 c 128,-1,14
 421 119 421 119 541 119 c 0,15,16
 649 119 649 119 730.5 172 c 128,-1,17
 812 225 812 225 850 334 c 1,18,-1
 1038 322 l 1,19,20
 1006 226 1006 226 931.5 147.5 c 128,-1,21
 857 69 857 69 750.5 24.5 c 128,-1,22
 644 -20 644 -20 522 -20 c 0,23,24
 319 -20 319 -20 215.5 79 c 128,-1,25
 112 178 112 178 112 369 c 0,26,27
 112 496 112 496 153.5 639.5 c 128,-1,28
 195 783 195 783 277.5 889 c 128,-1,29
 360 995 360 995 476.5 1048.5 c 128,-1,30
 593 1102 593 1102 741 1102 c 0,0,1
EndSplineSet
EndChar

StartChar: d
Encoding: 100 100 71
Width: 1229
GlyphClass: 2
Flags: W
AnchorPoint: "bottom" 539 -82 basechar 0
AnchorPoint: "top" 1143 1551 basechar 0
LayerCount: 2
Fore
SplineSet
791 174 m 1,0,1
 722 69 722 69 631.5 21.5 c 128,-1,2
 541 -26 541 -26 420 -26 c 0,3,4
 262 -26 262 -26 187 57.5 c 128,-1,5
 112 141 112 141 112 311 c 0,6,7
 112 408 112 408 136 532 c 0,8,9
 247 1098 247 1098 638 1098 c 0,10,11
 759 1098 759 1098 832.5 1055 c 128,-1,12
 906 1012 906 1012 936 914 c 1,13,-1
 938 914 l 1,14,-1
 959 1034 l 1,15,-1
 1046 1484 l 1,16,-1
 1226 1484 l 1,17,-1
 981 223 l 1,18,19
 949 44 949 44 944 0 c 1,20,-1
 772 0 l 1,21,-1
 772 4 l 2,22,23
 772 47 772 47 796 174 c 1,24,-1
 791 174 l 1,0,1
301 337 m 0,25,26
 301 220 301 220 347.5 166.5 c 128,-1,27
 394 113 394 113 494 113 c 0,28,29
 621 113 621 113 704.5 192 c 128,-1,30
 788 271 788 271 837 436.5 c 128,-1,31
 886 602 886 602 886 728 c 0,32,33
 886 849 886 849 832 907 c 128,-1,34
 778 965 778 965 662 965 c 0,35,36
 575 965 575 965 513 924.5 c 128,-1,37
 451 884 451 884 406.5 798 c 128,-1,38
 362 712 362 712 331.5 573 c 128,-1,39
 301 434 301 434 301 337 c 0,25,26
EndSplineSet
EndChar

StartChar: e
Encoding: 101 101 72
Width: 1229
GlyphClass: 2
Flags: W
AnchorPoint: "bottom-right" 524 15 basechar 0
AnchorPoint: "bottom" 499 -26 basechar 0
AnchorPoint: "top" 734 1104 basechar 0
LayerCount: 2
Fore
SplineSet
315 503 m 1,0,1
 302 434 302 434 302 382 c 0,2,3
 302 253 302 253 364.5 184 c 128,-1,4
 427 115 427 115 540 115 c 0,5,6
 642 115 642 115 728.5 159 c 128,-1,7
 815 203 815 203 857 281 c 1,8,-1
 1006 236 l 1,9,10
 937 112 937 112 807.5 46 c 128,-1,11
 678 -20 678 -20 514 -20 c 0,12,13
 320 -20 320 -20 218 80.5 c 128,-1,14
 116 181 116 181 116 370 c 0,15,16
 116 494 116 494 156 638.5 c 128,-1,17
 196 783 196 783 276 888.5 c 128,-1,18
 356 994 356 994 469 1048 c 128,-1,19
 582 1102 582 1102 726 1102 c 0,20,21
 1112 1102 1112 1102 1112 723 c 0,22,23
 1112 632 1112 632 1091 527 c 1,24,-1
 1087 503 l 1,25,-1
 315 503 l 1,0,1
702 969 m 0,26,27
 569 969 569 969 474.5 882 c 128,-1,28
 380 795 380 795 344 641 c 1,29,-1
 928 641 l 1,30,-1
 932 713 l 1,31,32
 932 969 932 969 702 969 c 0,26,27
EndSplineSet
EndChar

StartChar: f
Encoding: 102 102 73
Width: 1229
GlyphClass: 2
Flags: W
AnchorPoint: "bottom" 381 -50 basechar 0
AnchorPoint: "top" 999 1558 basechar 0
LayerCount: 2
Fore
SplineSet
658 940 m 1,0,-1
 475 0 l 1,1,-1
 295 0 l 1,2,-1
 478 940 l 1,3,-1
 216 940 l 1,4,-1
 243 1082 l 1,5,-1
 505 1082 l 1,6,-1
 510 1107 l 2,7,8
 550 1311 550 1311 662.5 1397.5 c 128,-1,9
 775 1484 775 1484 1001 1484 c 0,10,11
 1071 1484 1071 1484 1153 1477.5 c 128,-1,12
 1235 1471 1235 1471 1278 1463 c 1,13,-1
 1250 1318 l 1,14,15
 1221 1323 1221 1323 1129 1329 c 128,-1,16
 1037 1335 1037 1335 993 1335 c 0,17,18
 888 1335 888 1335 831 1312 c 128,-1,19
 774 1289 774 1289 739.5 1236.5 c 128,-1,20
 705 1184 705 1184 685 1082 c 1,21,-1
 1176 1082 l 1,22,-1
 1149 940 l 1,23,-1
 658 940 l 1,0,-1
EndSplineSet
EndChar

StartChar: g
Encoding: 103 103 74
Width: 1229
GlyphClass: 2
Flags: W
AnchorPoint: "bottom" 451 -426 basechar 0
AnchorPoint: "top" 707 1102 basechar 0
LayerCount: 2
Fore
SplineSet
428 -424 m 0,0,1
 259 -424 259 -424 171 -355 c 128,-1,2
 83 -286 83 -286 79 -157 c 1,3,-1
 268 -132 l 1,4,5
 270 -207 270 -207 319 -247.5 c 128,-1,6
 368 -288 368 -288 460 -288 c 0,7,8
 710 -288 710 -288 769 27 c 1,9,-1
 807 221 l 1,10,-1
 805 221 l 1,11,12
 664 12 664 12 421 12 c 0,13,14
 265 12 265 12 192.5 90.5 c 128,-1,15
 120 169 120 169 120 328 c 0,16,17
 120 452 120 452 160 619.5 c 128,-1,18
 200 787 200 787 266 890.5 c 128,-1,19
 332 994 332 994 427.5 1046.5 c 128,-1,20
 523 1099 523 1099 652 1099 c 0,21,22
 765 1099 765 1099 838 1046.5 c 128,-1,23
 911 994 911 994 937 897 c 1,24,-1
 940 897 l 1,25,26
 947 934 947 934 965 1003.5 c 128,-1,27
 983 1073 983 1073 988 1082 c 1,28,-1
 1159 1082 l 1,29,-1
 1140 1000 l 1,30,-1
 1110 858 l 1,31,-1
 949 32 l 2,32,33
 905 -195 905 -195 777 -309.5 c 128,-1,34
 649 -424 649 -424 428 -424 c 0,0,1
887 697 m 0,35,36
 887 823 887 823 830.5 894 c 128,-1,37
 774 965 774 965 671 965 c 0,38,39
 581 965 581 965 518 926 c 128,-1,40
 455 887 455 887 411 804 c 128,-1,41
 367 721 367 721 337.5 583.5 c 128,-1,42
 308 446 308 446 308 355 c 0,43,44
 308 245 308 245 354.5 195 c 128,-1,45
 401 145 401 145 508 145 c 0,46,47
 588 145 588 145 658.5 188 c 128,-1,48
 729 231 729 231 781 311.5 c 128,-1,49
 833 392 833 392 860 500.5 c 128,-1,50
 887 609 887 609 887 697 c 0,35,36
EndSplineSet
EndChar

StartChar: h
Encoding: 104 104 75
Width: 1229
GlyphClass: 2
Flags: W
AnchorPoint: "bottom" 508 2 basechar 0
AnchorPoint: "top" 686 1481 basechar 0
LayerCount: 2
Fore
SplineSet
368 1484 m 1,0,-1
 549 1484 l 1,1,-1
 474 1094 l 2,2,3
 463 1038 463 1038 426 897 c 1,4,-1
 429 897 l 1,5,6
 496 992 496 992 587.5 1047 c 128,-1,7
 679 1102 679 1102 808 1102 c 0,8,9
 1097 1102 1097 1102 1097 843 c 0,10,11
 1097 786 1097 786 1084 721 c 2,12,-1
 944 0 l 1,13,-1
 763 0 l 1,14,-1
 898 695 l 2,15,16
 909 753 909 753 909 793 c 0,17,18
 909 881 909 881 865.5 922 c 128,-1,19
 822 963 822 963 730 963 c 0,20,21
 606 963 606 963 509.5 872.5 c 128,-1,22
 413 782 413 782 382 627 c 2,23,-1
 260 0 l 1,24,-1
 80 0 l 1,25,-1
 368 1484 l 1,0,-1
EndSplineSet
EndChar

StartChar: i
Encoding: 105 105 76
Width: 1229
GlyphClass: 2
Flags: W
AnchorPoint: "bottom-right" 570 35 basechar 0
AnchorPoint: "bottom" 560 -3 basechar 0
AnchorPoint: "top" 829 1489 basechar 0
LayerCount: 2
Fore
SplineSet
668 142 m 1,0,-1
 1048 142 l 1,1,-1
 1020 0 l 1,2,-1
 38 0 l 1,3,-1
 66 142 l 1,4,-1
 488 142 l 1,5,-1
 643 940 l 1,6,-1
 324 940 l 1,7,-1
 351 1082 l 1,8,-1
 850 1082 l 1,9,-1
 668 142 l 1,0,-1
691 1292 m 1,10,-1
 728 1484 l 1,11,-1
 928 1484 l 1,12,-1
 891 1292 l 1,13,-1
 691 1292 l 1,10,-1
EndSplineSet
EndChar

StartChar: j
Encoding: 106 106 77
Width: 1229
GlyphClass: 2
Flags: W
AnchorPoint: "bottom" 315 -426 basechar 0
AnchorPoint: "top" 918 1481 basechar 0
LayerCount: 2
Fore
SplineSet
217 -425 m 0,0,1
 138 -425 138 -425 59.5 -412 c 128,-1,2
 -19 -399 -19 -399 -62 -382 c 1,3,-1
 -35 -242 l 1,4,5
 108 -276 108 -276 231 -276 c 0,6,7
 358 -276 358 -276 440 -210.5 c 128,-1,8
 522 -145 522 -145 546 -25 c 2,9,-1
 734 940 l 1,10,-1
 327 940 l 1,11,-1
 354 1082 l 1,12,-1
 941 1082 l 1,13,-1
 726 -28 l 2,14,15
 690 -214 690 -214 557 -319.5 c 128,-1,16
 424 -425 424 -425 217 -425 c 0,0,1
782 1292 m 1,17,-1
 819 1484 l 1,18,-1
 1019 1484 l 1,19,-1
 982 1292 l 1,20,-1
 782 1292 l 1,17,-1
EndSplineSet
EndChar

StartChar: k
Encoding: 107 107 78
Width: 1229
GlyphClass: 2
Flags: W
AnchorPoint: "bottom" 551 -4 basechar 0
AnchorPoint: "top" 756 1473 basechar 0
LayerCount: 2
Fore
SplineSet
809 0 m 1,0,-1
 540 499 l 1,1,-1
 389 401 l 1,2,-1
 311 0 l 1,3,-1
 131 0 l 1,4,-1
 419 1484 l 1,5,-1
 599 1484 l 1,6,-1
 419 557 l 1,7,-1
 996 1082 l 1,8,-1
 1207 1082 l 1,9,-1
 678 617 l 1,10,-1
 1020 0 l 1,11,-1
 809 0 l 1,0,-1
EndSplineSet
EndChar

StartChar: l
Encoding: 108 108 79
Width: 1229
GlyphClass: 2
Flags: W
HStem: 5 141<697.479 1011> 1342 142<450 712>
VStem: 423 616
AnchorPoint: "bottom" 711 3 basechar 0
AnchorPoint: "top" 688 1480 basechar 0
LayerCount: 2
Fore
SplineSet
769 146 m 0,0,-1
 1039 142 l 1,1,-1
 1011 0 l 1,2,-1
 712 5 l 8,3,4
 588 26 588 26 552 76 c 16,5,6
 504 142 504 142 504 236 c 0,7,8
 504 263 504 263 508 291 c 1,9,-1
 712 1342 l 1,10,-1
 423 1342 l 1,11,-1
 450 1484 l 1,12,-1
 919 1484 l 1,13,-1
 682 259 l 1,14,15
 680 248 680 248 680 238 c 0,16,17
 680 208 680 208 697 179 c 8,18,19
 712 154 712 154 769 146 c 0,0,-1
774 142 m 1025,20,-1
682 259 m 1025,21,-1
715 0 m 1025,22,-1
EndSplineSet
EndChar

StartChar: m
Encoding: 109 109 80
Width: 1229
GlyphClass: 2
Flags: W
AnchorPoint: "bottom" 528 0 basechar 0
AnchorPoint: "top" 702 1092 basechar 0
LayerCount: 2
Fore
SplineSet
426 0 m 1,0,-1
 559 686 l 2,1,2
 581 796 581 796 581 857 c 0,3,4
 581 916 581 916 561 939.5 c 128,-1,5
 541 963 541 963 499 963 c 0,6,7
 436 963 436 963 378 869 c 128,-1,8
 320 775 320 775 287 607 c 2,9,-1
 169 0 l 1,10,-1
 0 0 l 1,11,-1
 165 851 l 2,12,13
 172 885 172 885 178.5 922.5 c 128,-1,14
 185 960 185 960 190.5 993.5 c 128,-1,15
 196 1027 196 1027 200 1051 c 128,-1,16
 204 1075 204 1075 204 1082 c 1,17,-1
 353 1082 l 1,18,-1
 334 955 l 1,19,-1
 325 907 l 1,20,-1
 327 907 l 1,21,22
 384 1014 384 1014 445 1058 c 128,-1,23
 506 1102 506 1102 581 1102 c 0,24,25
 669 1102 669 1102 703 1054.5 c 128,-1,26
 737 1007 737 1007 737 912 c 2,27,-1
 737 906 l 1,28,-1
 739 906 l 1,29,30
 800 1012 800 1012 864.5 1057 c 128,-1,31
 929 1102 929 1102 1013 1102 c 0,32,33
 1101 1102 1101 1102 1141 1056 c 128,-1,34
 1181 1010 1181 1010 1181 910 c 0,35,36
 1181 835 1181 835 1159 721 c 2,37,-1
 1019 0 l 1,38,-1
 851 0 l 1,39,-1
 984 686 l 2,40,41
 1006 796 1006 796 1006 857 c 0,42,43
 1006 916 1006 916 986 939.5 c 128,-1,44
 966 963 966 963 924 963 c 0,45,46
 859 963 859 963 803.5 878.5 c 128,-1,47
 748 794 748 794 716 627 c 2,48,-1
 594 0 l 1,49,-1
 426 0 l 1,0,-1
EndSplineSet
EndChar

StartChar: n
Encoding: 110 110 81
Width: 1229
GlyphClass: 2
Flags: W
AnchorPoint: "bottom" 503 3 basechar 0
AnchorPoint: "top" 743 1095 basechar 0
LayerCount: 2
Fore
SplineSet
763 0 m 1,0,-1
 898 695 l 2,1,2
 909 753 909 753 909 793 c 0,3,4
 909 881 909 881 865.5 922 c 128,-1,5
 822 963 822 963 730 963 c 0,6,7
 606 963 606 963 509.5 872.5 c 128,-1,8
 413 782 413 782 382 627 c 2,9,-1
 260 0 l 1,10,-1
 80 0 l 1,11,-1
 245 851 l 2,12,13
 252 885 252 885 258.5 922.5 c 128,-1,14
 265 960 265 960 270.5 993.5 c 128,-1,15
 276 1027 276 1027 280 1051 c 128,-1,16
 284 1075 284 1075 284 1082 c 1,17,-1
 454 1082 l 1,18,19
 454 1076 454 1076 445.5 1014.5 c 128,-1,20
 437 953 437 953 426 897 c 1,21,-1
 429 897 l 1,22,23
 497 992 497 992 590 1047 c 128,-1,24
 683 1102 683 1102 815 1102 c 0,25,26
 1098 1102 1098 1102 1098 848 c 0,27,28
 1098 791 1098 791 1084 721 c 2,29,-1
 944 0 l 1,30,-1
 763 0 l 1,0,-1
EndSplineSet
EndChar

StartChar: o
Encoding: 111 111 82
Width: 1229
GlyphClass: 2
Flags: W
AnchorPoint: "bottom-right" 498 19 basechar 0
AnchorPoint: "bottom" 472 -22 basechar 0
AnchorPoint: "top" 758 1100 basechar 0
LayerCount: 2
Fore
SplineSet
500 -20 m 0,0,1
 312 -20 312 -20 212 78.5 c 128,-1,2
 112 177 112 177 112 367 c 0,3,4
 112 446 112 446 130 542 c 0,5,6
 185 821 185 821 338.5 961.5 c 128,-1,7
 492 1102 492 1102 724 1102 c 0,8,9
 923 1102 923 1102 1020 1010 c 128,-1,10
 1117 918 1117 918 1117 732 c 0,11,12
 1117 597 1117 597 1075 447.5 c 128,-1,13
 1033 298 1033 298 952 192 c 128,-1,14
 871 86 871 86 756 33 c 128,-1,15
 641 -20 641 -20 500 -20 c 0,0,1
928 720 m 0,16,17
 928 845 928 845 873.5 907 c 128,-1,18
 819 969 819 969 701 969 c 0,19,20
 569 969 569 969 482.5 892 c 128,-1,21
 396 815 396 815 348.5 662 c 128,-1,22
 301 509 301 509 301 373 c 0,23,24
 301 113 301 113 524 113 c 0,25,26
 625 113 625 113 696 154.5 c 128,-1,27
 767 196 767 196 818.5 283 c 128,-1,28
 870 370 870 370 899 498.5 c 128,-1,29
 928 627 928 627 928 720 c 0,16,17
EndSplineSet
EndChar

StartChar: p
Encoding: 112 112 83
Width: 1229
GlyphClass: 2
Flags: W
AnchorPoint: "bottom" 378 -414 basechar 0
AnchorPoint: "top" 702 1107 basechar 0
LayerCount: 2
Fore
SplineSet
589 -20 m 0,0,1
 342 -20 342 -20 294 164 c 1,2,-1
 289 164 l 1,3,4
 289 154 289 154 281 108 c 128,-1,5
 273 62 273 62 178 -425 c 1,6,-1
 -3 -425 l 1,7,-1
 247 858 l 2,8,9
 274 994 274 994 284 1082 c 1,10,-1
 459 1082 l 1,11,12
 459 1062 459 1062 450 998.5 c 128,-1,13
 441 935 441 935 435 904 c 1,14,-1
 439 904 l 1,15,16
 509 1009 509 1009 596.5 1056.5 c 128,-1,17
 684 1104 684 1104 808 1104 c 0,18,19
 1116 1104 1116 1104 1116 768 c 0,20,21
 1116 673 1116 673 1091 546 c 0,22,23
 981 -20 981 -20 589 -20 c 0,0,1
928 743 m 0,24,25
 928 851 928 851 883.5 908 c 128,-1,26
 839 965 839 965 734 965 c 0,27,28
 637 965 637 965 569.5 922.5 c 128,-1,29
 502 880 502 880 452.5 791.5 c 128,-1,30
 403 703 403 703 373 571.5 c 128,-1,31
 343 440 343 440 343 350 c 0,32,33
 343 229 343 229 397 171 c 128,-1,34
 451 113 451 113 566 113 c 0,35,36
 683 113 683 113 759.5 191 c 128,-1,37
 836 269 836 269 882 444 c 128,-1,38
 928 619 928 619 928 743 c 0,24,25
EndSplineSet
EndChar

StartChar: q
Encoding: 113 113 84
Width: 1229
GlyphClass: 2
Flags: W
AnchorPoint: "bottom" 522 -415 basechar 0
AnchorPoint: "top" 729 1107 basechar 0
LayerCount: 2
Fore
SplineSet
637 1098 m 0,0,1
 767 1098 767 1098 835.5 1053 c 128,-1,2
 904 1008 904 1008 934 914 c 1,3,-1
 936 914 l 1,4,5
 949 979 949 979 963 1028 c 128,-1,6
 977 1077 977 1077 981 1083 c 1,7,-1
 1156 1083 l 1,8,9
 1149 1061 1149 1061 1133 987.5 c 128,-1,10
 1117 914 1117 914 856 -425 c 1,11,-1
 675 -425 l 1,12,13
 783 125 783 125 797 182 c 1,14,-1
 795 182 l 1,15,16
 719 72 719 72 630.5 23 c 128,-1,17
 542 -26 542 -26 420 -26 c 0,18,19
 262 -26 262 -26 187 58 c 128,-1,20
 112 142 112 142 112 311 c 0,21,22
 112 408 112 408 136 532 c 0,23,24
 246 1098 246 1098 637 1098 c 0,0,1
885 725 m 0,25,26
 885 848 885 848 831.5 906.5 c 128,-1,27
 778 965 778 965 662 965 c 0,28,29
 545 965 545 965 468 886 c 128,-1,30
 391 807 391 807 346.5 638 c 128,-1,31
 302 469 302 469 302 342 c 0,32,33
 302 227 302 227 347.5 170 c 128,-1,34
 393 113 393 113 494 113 c 0,35,36
 621 113 621 113 704.5 193 c 128,-1,37
 788 273 788 273 836.5 433 c 128,-1,38
 885 593 885 593 885 725 c 0,25,26
EndSplineSet
EndChar

StartChar: r
Encoding: 114 114 85
Width: 1229
GlyphClass: 2
Flags: W
AnchorPoint: "bottom" 402 1 basechar 0
AnchorPoint: "top" 765 1109 basechar 0
LayerCount: 2
Fore
SplineSet
1118 918 m 1,0,1
 1011 937 1011 937 910 937 c 0,2,3
 750 937 750 937 627 816 c 128,-1,4
 504 695 504 695 468 508 c 2,5,-1
 369 0 l 1,6,-1
 189 0 l 1,7,-1
 325 701 l 1,8,9
 350 837 350 837 350 990 c 1,10,-1
 347 1082 l 1,11,-1
 518 1082 l 1,12,13
 524 1032 524 1032 524 954 c 0,14,15
 524 888 524 888 518 832 c 1,16,-1
 523 832 l 1,17,18
 596 945 596 945 653.5 997 c 128,-1,19
 711 1049 711 1049 782 1075.5 c 128,-1,20
 853 1102 853 1102 948 1102 c 0,21,22
 1054 1102 1054 1102 1151 1085 c 1,23,-1
 1118 918 l 1,0,1
EndSplineSet
EndChar

StartChar: s
Encoding: 115 115 86
Width: 1229
GlyphClass: 2
Flags: W
AnchorPoint: "bottom" 507 -21 basechar 0
AnchorPoint: "top" 717 1098 basechar 0
LayerCount: 2
Fore
SplineSet
512 -20 m 0,0,1
 307 -20 307 -20 212 43.5 c 128,-1,2
 117 107 117 107 110 248 c 1,3,-1
 275 279 l 1,4,5
 278 191 278 191 333.5 152.5 c 128,-1,6
 389 114 389 114 538 114 c 0,7,8
 690 114 690 114 767 169 c 128,-1,9
 844 224 844 224 844 315 c 0,10,11
 844 364 844 364 802.5 397 c 128,-1,12
 761 430 761 430 666 456 c 2,13,-1
 550 487 l 2,14,15
 418 523 418 523 364.5 552.5 c 128,-1,16
 311 582 311 582 281.5 624.5 c 128,-1,17
 252 667 252 667 252 728 c 0,18,19
 252 800 252 800 285 872 c 128,-1,20
 318 944 318 944 380.5 995 c 128,-1,21
 443 1046 443 1046 533 1072.5 c 128,-1,22
 623 1099 623 1099 732 1099 c 0,23,24
 908 1099 908 1099 1000.5 1032 c 128,-1,25
 1093 965 1093 965 1093 839 c 1,26,-1
 927 819 l 1,27,-1
 927 824 l 2,28,29
 927 894 927 894 875 929.5 c 128,-1,30
 823 965 823 965 706 965 c 0,31,32
 568 965 568 965 498 917 c 128,-1,33
 428 869 428 869 428 784 c 0,34,35
 428 738 428 738 463.5 708.5 c 128,-1,36
 499 679 499 679 585 657 c 0,37,38
 806 599 806 599 864 573 c 128,-1,39
 922 547 922 547 957 513.5 c 128,-1,40
 992 480 992 480 1006.5 445 c 128,-1,41
 1021 410 1021 410 1021 366 c 0,42,43
 1021 263 1021 263 958 170.5 c 128,-1,44
 895 78 895 78 779 29 c 128,-1,45
 663 -20 663 -20 512 -20 c 0,0,1
EndSplineSet
EndChar

StartChar: t
Encoding: 116 116 87
Width: 1229
GlyphClass: 2
Flags: W
AnchorPoint: "bottom" 574 -18 basechar 0
AnchorPoint: "top" 638 1364 basechar 0
LayerCount: 2
Fore
SplineSet
268 940 m 1,0,-1
 295 1082 l 1,1,-1
 465 1082 l 1,2,-1
 578 1364 l 1,3,-1
 698 1364 l 1,4,-1
 643 1082 l 1,5,-1
 1075 1082 l 1,6,-1
 1048 940 l 1,7,-1
 616 940 l 1,8,-1
 489 288 l 1,9,-1
 484 244 l 1,10,11
 484 187 484 187 522 160 c 128,-1,12
 560 133 560 133 641 133 c 0,13,14
 774 133 774 133 944 167 c 1,15,-1
 918 30 l 1,16,17
 742 -16 742 -16 574 -16 c 0,18,19
 435 -16 435 -16 366 33.5 c 128,-1,20
 297 83 297 83 297 189 c 0,21,22
 297 234 297 234 305 269 c 1,23,-1
 436 940 l 1,24,-1
 268 940 l 1,0,-1
EndSplineSet
EndChar

StartChar: u
Encoding: 117 117 88
Width: 1229
GlyphClass: 2
Flags: W
AnchorPoint: "bottom-right" 872 34 basechar 0
AnchorPoint: "bottom" 518 -40 basechar 0
AnchorPoint: "top" 706 1072 basechar 0
LayerCount: 2
Fore
SplineSet
470 1082 m 1,0,-1
 337 396 l 2,1,2
 323 324 323 324 323 273 c 0,3,4
 323 189 323 189 365.5 154 c 128,-1,5
 408 119 408 119 507 119 c 0,6,7
 638 119 638 119 730 209 c 128,-1,8
 822 299 822 299 851 455 c 1,9,-1
 973 1082 l 1,10,-1
 1154 1082 l 1,11,-1
 989 231 l 2,12,13
 982 197 982 197 975.5 159.5 c 128,-1,14
 969 122 969 122 963.5 88.5 c 128,-1,15
 958 55 958 55 954 31 c 128,-1,16
 950 7 950 7 950 0 c 1,17,-1
 780 0 l 1,18,19
 780 11 780 11 790.5 77.5 c 128,-1,20
 801 144 801 144 808 185 c 1,21,-1
 805 185 l 1,22,23
 722 73 722 73 629.5 26.5 c 128,-1,24
 537 -20 537 -20 419 -20 c 0,25,26
 273 -20 273 -20 204 38 c 128,-1,27
 135 96 135 96 135 223 c 0,28,29
 135 283 135 283 150 361 c 2,30,-1
 290 1082 l 1,31,-1
 470 1082 l 1,0,-1
EndSplineSet
EndChar

StartChar: v
Encoding: 118 118 89
Width: 1229
GlyphClass: 2
Flags: W
AnchorPoint: "bottom" 504 2 basechar 0
AnchorPoint: "top" 687 1080 basechar 0
LayerCount: 2
Fore
SplineSet
610 0 m 1,0,-1
 397 0 l 1,1,-1
 174 1082 l 1,2,-1
 376 1082 l 1,3,-1
 507 378 l 1,4,5
 516 310 516 310 526 194 c 1,6,-1
 530 141 l 1,7,-1
 556 194 l 1,8,9
 594 274 594 274 650 376 c 1,10,-1
 1063 1082 l 1,11,-1
 1264 1082 l 1,12,-1
 610 0 l 1,0,-1
EndSplineSet
EndChar

StartChar: w
Encoding: 119 119 90
Width: 1229
GlyphClass: 2
Flags: W
AnchorPoint: "bottom" 503 3 basechar 0
AnchorPoint: "top" 685 1077 basechar 0
LayerCount: 2
Fore
SplineSet
913 0 m 1,0,-1
 709 0 l 1,1,-1
 658 471 l 1,2,-1
 640 673 l 1,3,-1
 574 534 l 1,4,-1
 302 0 l 1,5,-1
 99 0 l 1,6,-1
 126 1082 l 1,7,-1
 304 1082 l 1,8,-1
 279 475 l 2,9,10
 277 418 277 418 266.5 300.5 c 128,-1,11
 256 183 256 183 249 149 c 1,12,-1
 288 235 l 1,13,-1
 349 363 l 1,14,-1
 566 787 l 1,15,-1
 759 787 l 1,16,-1
 806 362 l 1,17,-1
 820 149 l 1,18,19
 825 175 825 175 836 213 c 128,-1,20
 847 251 847 251 918 475 c 1,21,-1
 1137 1082 l 1,22,-1
 1313 1082 l 1,23,-1
 913 0 l 1,0,-1
EndSplineSet
EndChar

StartChar: x
Encoding: 120 120 91
Width: 1229
GlyphClass: 2
Flags: W
AnchorPoint: "bottom" 513 2 basechar 0
AnchorPoint: "top" 716 1082 basechar 0
LayerCount: 2
Fore
SplineSet
827 0 m 1,0,-1
 592 444 l 1,1,-1
 183 0 l 1,2,-1
 -11 0 l 1,3,-1
 512 556 l 1,4,-1
 217 1082 l 1,5,-1
 416 1082 l 1,6,-1
 634 661 l 1,7,-1
 1014 1082 l 1,8,-1
 1215 1082 l 1,9,-1
 716 558 l 1,10,-1
 1028 0 l 1,11,-1
 827 0 l 1,0,-1
EndSplineSet
EndChar

StartChar: y
Encoding: 121 121 92
Width: 1229
GlyphClass: 2
Flags: W
AnchorPoint: "bottom" 230 -429 basechar 0
AnchorPoint: "top" 710 1073 basechar 0
LayerCount: 2
Fore
SplineSet
104 -425 m 0,0,1
 32 -425 32 -425 -17 -414 c 1,2,-1
 9 -279 l 1,3,4
 45 -285 45 -285 92 -285 c 0,5,6
 171 -285 171 -285 252 -226 c 128,-1,7
 333 -167 333 -167 406 -38 c 1,8,-1
 433 11 l 1,9,-1
 171 1082 l 1,10,-1
 363 1082 l 1,11,-1
 503 440 l 2,12,13
 514 391 514 391 532.5 296.5 c 128,-1,14
 551 202 551 202 551 186 c 1,15,16
 561 208 561 208 614 296 c 1,17,-1
 1076 1082 l 1,18,-1
 1266 1082 l 1,19,-1
 600 0 l 1,20,21
 460 -242 460 -242 347.5 -333.5 c 128,-1,22
 235 -425 235 -425 104 -425 c 0,0,1
EndSplineSet
EndChar

StartChar: z
Encoding: 122 122 93
Width: 1229
GlyphClass: 2
Flags: W
AnchorPoint: "bottom" 523 5 basechar 0
AnchorPoint: "top" 716 1082 basechar 0
LayerCount: 2
Fore
SplineSet
42 0 m 1,0,-1
 69 137 l 1,1,-1
 906 943 l 1,2,-1
 265 943 l 1,3,-1
 292 1082 l 1,4,-1
 1136 1082 l 1,5,-1
 1110 945 l 1,6,-1
 271 139 l 1,7,-1
 990 139 l 1,8,-1
 963 0 l 1,9,-1
 42 0 l 1,0,-1
EndSplineSet
EndChar

StartChar: braceleft
Encoding: 123 123 94
Width: 1229
GlyphClass: 2
Flags: W
LayerCount: 2
Fore
SplineSet
608 -425 m 2,0,1
 498 -425 498 -425 432 -363.5 c 128,-1,2
 366 -302 366 -302 366 -193 c 0,3,4
 366 -155 366 -155 373 -122 c 2,5,-1
 442 229 l 1,6,-1
 447 279 l 1,7,8
 447 362 447 362 385.5 409 c 128,-1,9
 324 456 324 456 212 461 c 1,10,-1
 238 598 l 1,11,12
 370 603 370 603 454.5 664.5 c 128,-1,13
 539 726 539 726 558 829 c 1,14,-1
 627 1181 l 2,15,16
 655 1320 655 1320 751 1402 c 128,-1,17
 847 1484 847 1484 979 1484 c 2,18,-1
 1244 1484 l 1,19,-1
 1217 1345 l 1,20,-1
 1004 1345 l 2,21,22
 911 1345 911 1345 863 1299.5 c 128,-1,23
 815 1254 815 1254 796 1150 c 1,24,-1
 728 804 l 2,25,26
 709 707 709 707 631 632 c 128,-1,27
 553 557 553 557 444 532 c 1,28,-1
 444 530 l 1,29,30
 526 509 526 509 576.5 450.5 c 128,-1,31
 627 392 627 392 627 310 c 0,32,33
 627 279 627 279 622 256 c 2,34,-1
 554 -91 l 2,35,36
 546 -133 546 -133 546 -165 c 0,37,38
 546 -230 546 -230 580 -258 c 128,-1,39
 614 -286 614 -286 687 -286 c 2,40,-1
 900 -286 l 1,41,-1
 873 -425 l 1,42,-1
 608 -425 l 2,0,1
EndSplineSet
Validated: 1
EndChar

StartChar: bar
Encoding: 124 124 95
Width: 1229
GlyphClass: 2
Flags: W
LayerCount: 2
Fore
SplineSet
531 -425 m 1,0,-1
 531 1484 l 1,1,-1
 697 1484 l 1,2,-1
 697 -425 l 1,3,-1
 531 -425 l 1,0,-1
EndSplineSet
Validated: 1
EndChar

StartChar: braceright
Encoding: 125 125 96
Width: 1229
GlyphClass: 2
Flags: W
LayerCount: 2
Fore
SplineSet
-21 -425 m 1,0,-1
 6 -286 l 1,1,-1
 219 -286 l 2,2,3
 310 -286 310 -286 359.5 -241.5 c 128,-1,4
 409 -197 409 -197 429 -91 c 2,5,-1
 497 256 l 2,6,7
 516 358 516 358 595 432.5 c 128,-1,8
 674 507 674 507 780 530 c 1,9,-1
 780 532 l 1,10,11
 696 554 696 554 647 614 c 128,-1,12
 598 674 598 674 598 752 c 1,13,-1
 603 804 l 1,14,-1
 671 1150 l 2,15,16
 679 1192 679 1192 679 1224 c 0,17,18
 679 1290 679 1290 644 1317.5 c 128,-1,19
 609 1345 609 1345 536 1345 c 2,20,-1
 323 1345 l 1,21,-1
 350 1484 l 1,22,-1
 615 1484 l 2,23,24
 728 1484 728 1484 793 1423 c 128,-1,25
 858 1362 858 1362 858 1254 c 0,26,27
 858 1216 858 1216 851 1181 c 2,28,-1
 782 829 l 1,29,-1
 777 780 l 1,30,31
 777 699 777 699 837 651 c 128,-1,32
 897 603 897 603 1012 598 c 1,33,-1
 986 461 l 1,34,35
 855 456 855 456 771 396 c 128,-1,36
 687 336 687 336 666 229 c 2,37,-1
 597 -122 l 1,38,39
 572 -255 572 -255 474 -340 c 128,-1,40
 376 -425 376 -425 244 -425 c 2,41,-1
 -21 -425 l 1,0,-1
EndSplineSet
Validated: 1
EndChar

StartChar: asciitilde
Encoding: 126 126 97
Width: 1229
GlyphClass: 2
Flags: W
LayerCount: 2
Fore
SplineSet
423 807 m 0,0,1
 504 807 504 807 577 784 c 128,-1,2
 650 761 650 761 718 735 c 0,3,4
 838 690 838 690 905 690 c 0,5,6
 1036 690 1036 690 1167 782 c 1,7,-1
 1138 633 l 1,8,9
 1064 588 1064 588 1004.5 570.5 c 128,-1,10
 945 553 945 553 862 553 c 0,11,12
 793 553 793 553 725 575 c 128,-1,13
 657 597 657 597 589 623 c 0,14,15
 469 668 469 668 381 668 c 0,16,17
 314 668 314 668 253 648 c 128,-1,18
 192 628 192 628 116 580 c 1,19,-1
 144 723 l 1,20,21
 270 807 270 807 423 807 c 0,0,1
EndSplineSet
Validated: 1
EndChar

StartChar: dagger
Encoding: 8224 8224 130
Width: 1229
GlyphClass: 2
Flags: W
LayerCount: 2
Fore
SplineSet
772 989 m 1,0,-1
 525 -213 l 1,1,-1
 410 -213 l 1,2,-1
 629 989 l 1,3,-1
 266 972 l 1,4,-1
 298 1136 l 1,5,-1
 654 1117 l 1,6,-1
 699 1483 l 1,7,-1
 894 1483 l 1,8,-1
 797 1117 l 1,9,-1
 1162 1136 l 1,10,-1
 1130 972 l 1,11,-1
 772 989 l 1,0,-1
EndSplineSet
Validated: 1
EndChar

StartChar: degree
Encoding: 176 176 131
Width: 1229
GlyphClass: 2
Flags: W
LayerCount: 2
Fore
SplineSet
901 1085 m 256,0,1
 901 966 901 966 816.5 883 c 128,-1,2
 732 800 732 800 614 800 c 256,3,4
 496 800 496 800 411.5 884 c 128,-1,5
 327 968 327 968 327 1085 c 256,6,7
 327 1202 327 1202 410.5 1286 c 128,-1,8
 494 1370 494 1370 614 1370 c 256,9,10
 734 1370 734 1370 817.5 1287 c 128,-1,11
 901 1204 901 1204 901 1085 c 256,0,1
792 1085 m 0,12,13
 792 1161 792 1161 740.5 1213 c 128,-1,14
 689 1265 689 1265 614 1265 c 256,15,16
 539 1265 539 1265 487.5 1212 c 128,-1,17
 436 1159 436 1159 436 1085 c 256,18,19
 436 1011 436 1011 488.5 958 c 128,-1,20
 541 905 541 905 614 905 c 0,21,22
 688 905 688 905 740 957.5 c 128,-1,23
 792 1010 792 1010 792 1085 c 0,12,13
EndSplineSet
Validated: 1
EndChar

StartChar: cent
Encoding: 162 162 132
Width: 1229
GlyphClass: 2
Flags: W
HStem: 134 140<648 768.852> 1053 142<541.168 670 825 905.802>
VStem: 141 186<361.94 767.927> 965 188<873 992.663>
LayerCount: 2
Fore
SplineSet
490 134 m 1,0,1
 322 147 322 147 232 243 c 128,-1,2
 142 339 142 339 141 510 c 0,3,4
 141 628 141 628 181 756 c 128,-1,5
 221 884 221 884 294.5 979 c 128,-1,6
 368 1074 368 1074 471 1129.5 c 128,-1,7
 574 1185 574 1185 697 1195 c 1,8,-1
 733 1379 l 1,9,-1
 861 1379 l 1,10,-1
 825 1195 l 1,11,12
 978 1182 978 1182 1064.5 1098 c 128,-1,13
 1151 1014 1151 1014 1153 873 c 1,14,-1
 965 859 l 1,15,16
 966 958 966 958 906 1008 c 0,17,18
 865 1042 865 1042 798 1053 c 1,19,-1
 648 274 l 1,20,21
 720 286 720 286 778 324 c 0,22,23
 862 378 862 378 901 486 c 1,24,-1
 1081 474 l 1,25,26
 1033 332 1033 332 908 240 c 0,27,28
 784 148 784 148 621 134 c 1,29,-1
 584 -61 l 1,30,-1
 581 -61 l 1,31,-1
 453 -61 l 1,32,-1
 452 -61 l 1,33,-1
 490 134 l 1,0,1
670 1053 m 1,34,35
 614 1046 614 1046 566 1022 c 0,36,37
 492 986 492 986 438.5 912.5 c 128,-1,38
 385 839 385 839 356 733.5 c 128,-1,39
 327 628 327 628 327 536 c 0,40,41
 326 402 326 402 392 336 c 0,42,43
 439 288 439 288 518 274 c 1,44,-1
 670 1053 l 1,34,35
EndSplineSet
EndChar

StartChar: sterling
Encoding: 163 163 133
Width: 1229
GlyphClass: 2
Flags: W
LayerCount: 2
Fore
SplineSet
1113 240 m 1,0,1
 1018 0 1018 0 832 0 c 2,2,-1
 -49 0 l 1,3,-1
 -19 154 l 1,4,5
 76 199 76 199 119.5 237.5 c 128,-1,6
 163 276 163 276 192 332.5 c 128,-1,7
 221 389 221 389 238 471 c 1,8,-1
 265 612 l 1,9,-1
 79 612 l 1,10,-1
 107 754 l 1,11,-1
 293 754 l 1,12,-1
 335 974 l 2,13,14
 373 1169 373 1169 500.5 1269.5 c 128,-1,15
 628 1370 628 1370 834 1370 c 0,16,17
 988 1370 988 1370 1078 1309 c 128,-1,18
 1168 1248 1168 1248 1181 1140 c 1,19,-1
 996 1083 l 1,20,21
 986 1146 986 1146 933.5 1178 c 128,-1,22
 881 1210 881 1210 803 1210 c 0,23,24
 681 1210 681 1210 610 1152.5 c 128,-1,25
 539 1095 539 1095 515 970 c 2,26,-1
 473 754 l 1,27,-1
 881 754 l 1,28,-1
 853 612 l 1,29,-1
 445 612 l 1,30,-1
 418 473 l 1,31,32
 391 340 391 340 341 270 c 128,-1,33
 291 200 291 200 202 158 c 1,34,-1
 802 158 l 2,35,36
 861 158 861 158 894.5 184.5 c 128,-1,37
 928 211 928 211 949 264 c 1,38,-1
 1113 240 l 1,0,1
EndSplineSet
Validated: 1
EndChar

StartChar: section
Encoding: 167 167 134
Width: 1229
GlyphClass: 2
Flags: W
LayerCount: 2
Fore
SplineSet
815 1484 m 0,0,1
 988 1484 988 1484 1082 1417 c 128,-1,2
 1176 1350 1176 1350 1178 1224 c 1,3,-1
 1013 1204 l 1,4,-1
 1013 1209 l 2,5,6
 1013 1284 1013 1284 956 1324 c 128,-1,7
 899 1364 899 1364 792 1364 c 0,8,9
 656 1364 656 1364 580 1310.5 c 128,-1,10
 504 1257 504 1257 504 1176 c 0,11,12
 504 1122 504 1122 559 1081.5 c 128,-1,13
 614 1041 614 1041 769 1003 c 0,14,15
 900 970 900 970 964.5 935 c 128,-1,16
 1029 900 1029 900 1065 852 c 128,-1,17
 1101 804 1101 804 1101 738 c 0,18,19
 1101 669 1101 669 1066 599 c 128,-1,20
 1031 529 1031 529 966.5 479.5 c 128,-1,21
 902 430 902 430 824 413 c 1,22,23
 908 373 908 373 949.5 322.5 c 128,-1,24
 991 272 991 272 991 201 c 0,25,26
 991 129 991 129 956 57 c 128,-1,27
 921 -15 921 -15 854.5 -66.5 c 128,-1,28
 788 -118 788 -118 694 -145 c 128,-1,29
 600 -172 600 -172 483 -172 c 0,30,31
 276 -172 276 -172 179 -106.5 c 128,-1,32
 82 -41 82 -41 73 100 c 1,33,-1
 240 131 l 1,34,35
 243 35 243 35 306 -8.5 c 128,-1,36
 369 -52 369 -52 506 -52 c 0,37,38
 652 -52 652 -52 738.5 7.5 c 128,-1,39
 825 67 825 67 825 161 c 0,40,41
 825 207 825 207 797 240 c 128,-1,42
 769 273 769 273 716 297.5 c 128,-1,43
 663 322 663 322 527 358 c 1,44,45
 217 429 217 429 217 619 c 0,46,47
 217 725 217 725 296.5 814.5 c 128,-1,48
 376 904 376 904 502 938 c 1,49,50
 428 964 428 964 384 1018.5 c 128,-1,51
 340 1073 340 1073 340 1145 c 0,52,53
 340 1236 340 1236 397 1317 c 128,-1,54
 454 1398 454 1398 558.5 1441 c 128,-1,55
 663 1484 663 1484 815 1484 c 0,0,1
937 692 m 1,56,57
 937 753 937 753 876 798 c 128,-1,58
 815 843 815 843 661 880 c 1,59,60
 581 876 581 876 516.5 845 c 128,-1,61
 452 814 452 814 417 761 c 128,-1,62
 382 708 382 708 382 655 c 0,63,64
 382 617 382 617 406.5 585.5 c 128,-1,65
 431 554 431 554 480.5 529.5 c 128,-1,66
 530 505 530 505 643 475 c 1,67,68
 729 477 729 477 795 504 c 128,-1,69
 861 531 861 531 898.5 581.5 c 128,-1,70
 936 632 936 632 937 692 c 1,56,57
EndSplineSet
Validated: 1
EndChar

StartChar: bullet
Encoding: 8226 8226 135
Width: 1229
GlyphClass: 2
Flags: W
LayerCount: 2
Fore
SplineSet
583 401 m 0,0,1
 487 401 487 401 423 464.5 c 128,-1,2
 359 528 359 528 359 627 c 0,3,4
 359 714 359 714 406.5 790 c 128,-1,5
 454 866 454 866 532 911 c 128,-1,6
 610 956 610 956 691 956 c 0,7,8
 793 956 793 956 858.5 892.5 c 128,-1,9
 924 829 924 829 924 733 c 0,10,11
 924 647 924 647 873.5 569.5 c 128,-1,12
 823 492 823 492 743.5 446.5 c 128,-1,13
 664 401 664 401 583 401 c 0,0,1
EndSplineSet
Validated: 1
EndChar

StartChar: paragraph
Encoding: 182 182 136
Width: 1229
GlyphClass: 2
Flags: W
LayerCount: 2
Fore
SplineSet
1085 1227 m 1,0,-1
 783 -324 l 1,1,-1
 651 -324 l 1,2,-1
 953 1227 l 1,3,-1
 756 1227 l 1,4,-1
 454 -324 l 1,5,-1
 321 -324 l 1,6,-1
 507 634 l 1,7,8
 361 634 361 634 283 703.5 c 128,-1,9
 205 773 205 773 205 898 c 0,10,11
 205 1019 205 1019 262 1126.5 c 128,-1,12
 319 1234 319 1234 421 1291.5 c 128,-1,13
 523 1349 523 1349 654 1349 c 2,14,-1
 1237 1349 l 1,15,-1
 1214 1227 l 1,16,-1
 1085 1227 l 1,0,-1
EndSplineSet
Validated: 1
EndChar

StartChar: germandbls
Encoding: 223 223 137
Width: 1229
GlyphClass: 2
Flags: W
LayerCount: 2
Fore
SplineSet
698 -29 m 0,0,1
 529 -29 529 -29 425 20 c 1,2,-1
 455 184 l 1,3,4
 506 151 506 151 580 133 c 128,-1,5
 654 115 654 115 722 115 c 0,6,7
 826 115 826 115 888 176.5 c 128,-1,8
 950 238 950 238 950 328 c 0,9,10
 950 380 950 380 918.5 423.5 c 128,-1,11
 887 467 887 467 811 519 c 0,12,13
 742 567 742 567 707 617.5 c 128,-1,14
 672 668 672 668 672 731 c 0,15,16
 672 757 672 757 678 785 c 0,17,18
 700 899 700 899 829 991 c 0,19,20
 899 1042 899 1042 932.5 1083 c 128,-1,21
 966 1124 966 1124 975 1173 c 1,22,-1
 978 1202 l 1,23,24
 978 1267 978 1267 920.5 1305 c 128,-1,25
 863 1343 863 1343 765 1343 c 0,26,27
 619 1343 619 1343 533 1263.5 c 128,-1,28
 447 1184 447 1184 415 1021 c 2,29,-1
 217 0 l 1,30,-1
 37 0 l 1,31,-1
 237 1027 l 2,32,33
 281 1255 281 1255 421 1369.5 c 128,-1,34
 561 1484 561 1484 792 1484 c 0,35,36
 961 1484 961 1484 1058 1419 c 128,-1,37
 1155 1354 1155 1354 1155 1239 c 1,38,-1
 1150 1187 l 1,39,40
 1121 1047 1121 1047 991 948 c 0,41,42
 912 889 912 889 883 857.5 c 128,-1,43
 854 826 854 826 847 791 c 1,44,-1
 845 771 l 1,45,46
 845 738 845 738 872.5 704 c 128,-1,47
 900 670 900 670 976 615 c 0,48,49
 1126 506 1126 506 1126 362 c 0,50,51
 1126 267 1126 267 1074.5 171.5 c 128,-1,52
 1023 76 1023 76 925.5 23.5 c 128,-1,53
 828 -29 828 -29 698 -29 c 0,0,1
EndSplineSet
Validated: 1
EndChar

StartChar: registered
Encoding: 174 174 138
Width: 1229
GlyphClass: 2
Flags: W
LayerCount: 2
Fore
SplineSet
1197 761 m 0,0,1
 1197 534 1197 534 1126 370.5 c 128,-1,2
 1055 207 1055 207 923 122.5 c 128,-1,3
 791 38 791 38 614 38 c 256,4,5
 437 38 437 38 305.5 123.5 c 128,-1,6
 174 209 174 209 102.5 372 c 128,-1,7
 31 535 31 535 31 761 c 256,8,9
 31 987 31 987 102 1150 c 128,-1,10
 173 1313 173 1313 305.5 1398.5 c 128,-1,11
 438 1484 438 1484 614 1484 c 256,12,13
 790 1484 790 1484 922.5 1399 c 128,-1,14
 1055 1314 1055 1314 1126 1151.5 c 128,-1,15
 1197 989 1197 989 1197 761 c 0,0,1
1105 761 m 256,16,17
 1105 1062 1105 1062 975 1225.5 c 128,-1,18
 845 1389 845 1389 614 1389 c 0,19,20
 463 1389 463 1389 353.5 1316.5 c 128,-1,21
 244 1244 244 1244 185 1102.5 c 128,-1,22
 126 961 126 961 126 761 c 0,23,24
 126 462 126 462 253.5 297 c 128,-1,25
 381 132 381 132 614 132 c 256,26,27
 847 132 847 132 976 296 c 128,-1,28
 1105 460 1105 460 1105 761 c 256,16,17
815 343 m 1,29,-1
 616 679 l 1,30,-1
 455 679 l 1,31,-1
 455 343 l 1,32,-1
 328 343 l 1,33,-1
 328 1174 l 1,34,-1
 635 1174 l 2,35,36
 777 1174 777 1174 852.5 1111 c 128,-1,37
 928 1048 928 1048 928 937 c 0,38,39
 928 835 928 835 876 773.5 c 128,-1,40
 824 712 824 712 739 693 c 1,41,-1
 960 343 l 1,42,-1
 815 343 l 1,29,-1
801 935 m 0,43,44
 801 1004 801 1004 753.5 1040 c 128,-1,45
 706 1076 706 1076 625 1076 c 2,46,-1
 455 1076 l 1,47,-1
 455 775 l 1,48,-1
 637 775 l 2,49,50
 717 775 717 775 759 817.5 c 128,-1,51
 801 860 801 860 801 935 c 0,43,44
EndSplineSet
Validated: 1
EndChar

StartChar: copyright
Encoding: 169 169 139
Width: 1229
GlyphClass: 2
Flags: W
LayerCount: 2
Fore
SplineSet
398 763 m 0,0,1
 398 610 398 610 457 523.5 c 128,-1,2
 516 437 516 437 622 437 c 0,3,4
 687 437 687 437 735 474 c 128,-1,5
 783 511 783 511 818 593 c 1,6,-1
 933 558 l 1,7,8
 881 440 881 440 804.5 386.5 c 128,-1,9
 728 333 728 333 622 333 c 0,10,11
 454 333 454 333 361.5 446.5 c 128,-1,12
 269 560 269 560 269 763 c 0,13,14
 269 965 269 965 358 1076 c 128,-1,15
 447 1187 447 1187 615 1187 c 0,16,17
 832 1187 832 1187 918 978 c 1,18,-1
 804 945 l 1,19,20
 778 1012 778 1012 729.5 1047 c 128,-1,21
 681 1082 681 1082 617 1082 c 0,22,23
 510 1082 510 1082 454 1001.5 c 128,-1,24
 398 921 398 921 398 763 c 0,0,1
1197 761 m 0,25,26
 1197 534 1197 534 1126 370.5 c 128,-1,27
 1055 207 1055 207 923 122.5 c 128,-1,28
 791 38 791 38 614 38 c 256,29,30
 437 38 437 38 305.5 123.5 c 128,-1,31
 174 209 174 209 102.5 372 c 128,-1,32
 31 535 31 535 31 761 c 256,33,34
 31 987 31 987 102 1150 c 128,-1,35
 173 1313 173 1313 305.5 1398.5 c 128,-1,36
 438 1484 438 1484 614 1484 c 256,37,38
 790 1484 790 1484 922.5 1399 c 128,-1,39
 1055 1314 1055 1314 1126 1151.5 c 128,-1,40
 1197 989 1197 989 1197 761 c 0,25,26
1105 761 m 256,41,42
 1105 1062 1105 1062 975 1225.5 c 128,-1,43
 845 1389 845 1389 614 1389 c 0,44,45
 463 1389 463 1389 353.5 1316.5 c 128,-1,46
 244 1244 244 1244 185 1102.5 c 128,-1,47
 126 961 126 961 126 761 c 0,48,49
 126 462 126 462 253.5 297 c 128,-1,50
 381 132 381 132 614 132 c 256,51,52
 847 132 847 132 976 296 c 128,-1,53
 1105 460 1105 460 1105 761 c 256,41,42
EndSplineSet
Validated: 1
EndChar

StartChar: trademark
Encoding: 8482 8482 140
Width: 1229
GlyphClass: 2
Flags: W
LayerCount: 2
Fore
SplineSet
1119 842 m 1,0,-1
 1119 1354 l 1,1,-1
 1113 1336 l 1,2,-1
 913 842 l 1,3,-1
 824 842 l 1,4,5
 671 1230 671 1230 624 1354 c 1,6,-1
 624 842 l 1,7,-1
 519 842 l 1,8,-1
 519 1483 l 1,9,-1
 675 1483 l 1,10,-1
 859 1018 l 1,11,-1
 872 983 l 1,12,-1
 933 1141 l 1,13,-1
 1072 1483 l 1,14,-1
 1224 1483 l 1,15,-1
 1224 842 l 1,16,-1
 1119 842 l 1,0,-1
286 1391 m 1,17,-1
 286 842 l 1,18,-1
 175 842 l 1,19,-1
 175 1391 l 1,20,-1
 4 1391 l 1,21,-1
 4 1483 l 1,22,-1
 461 1483 l 1,23,-1
 461 1391 l 1,24,-1
 286 1391 l 1,17,-1
EndSplineSet
Validated: 1
EndChar

StartChar: acute
Encoding: 180 180 141
Width: 1229
GlyphClass: 2
Flags: W
LayerCount: 2
Fore
SplineSet
530 1201 m 1,0,-1
 534 1221 l 1,1,-1
 808 1460 l 1,2,-1
 1005 1460 l 1,3,-1
 999 1431 l 1,4,-1
 654 1201 l 1,5,-1
 530 1201 l 1,0,-1
EndSplineSet
Validated: 1
EndChar

StartChar: dieresis
Encoding: 168 168 142
Width: 1229
GlyphClass: 2
Flags: W
LayerCount: 2
Fore
SplineSet
861 1219 m 1,0,-1
 897 1403 l 1,1,-1
 1060 1403 l 1,2,-1
 1024 1219 l 1,3,-1
 861 1219 l 1,0,-1
467 1219 m 1,4,-1
 503 1403 l 1,5,-1
 668 1403 l 1,6,-1
 632 1219 l 1,7,-1
 467 1219 l 1,4,-1
EndSplineSet
Validated: 1
EndChar

StartChar: notequal
Encoding: 8800 8800 143
Width: 1229
GlyphClass: 2
Flags: W
LayerCount: 2
Fore
SplineSet
499 344 m 1,0,-1
 347 55 l 1,1,-1
 202 55 l 1,2,-1
 353 344 l 1,3,-1
 116 344 l 1,4,-1
 116 492 l 1,5,-1
 427 492 l 1,6,-1
 617 856 l 1,7,-1
 116 856 l 1,8,-1
 116 1004 l 1,9,-1
 689 1004 l 1,10,-1
 843 1296 l 1,11,-1
 986 1296 l 1,12,-1
 834 1004 l 1,13,-1
 1111 1004 l 1,14,-1
 1111 856 l 1,15,-1
 761 856 l 1,16,-1
 570 492 l 1,17,-1
 1111 492 l 1,18,-1
 1111 344 l 1,19,-1
 499 344 l 1,0,-1
EndSplineSet
Validated: 1
EndChar

StartChar: AE
Encoding: 198 198 144
Width: 1229
GlyphClass: 2
Flags: W
AnchorPoint: "bottom" 536 -61 basechar 0
AnchorPoint: "top" 980 1411 basechar 0
LayerCount: 2
Fore
SplineSet
621 412 m 1,0,-1
 286 412 l 1,1,-1
 64 0 l 1,2,-1
 -104 0 l 1,3,-1
 644 1349 l 1,4,-1
 1311 1349 l 1,5,-1
 1282 1197 l 1,6,-1
 945 1197 l 1,7,-1
 861 767 l 1,8,-1
 1188 767 l 1,9,-1
 1159 617 l 1,10,-1
 832 617 l 1,11,-1
 742 152 l 1,12,-1
 1120 152 l 1,13,-1
 1090 0 l 1,14,-1
 541 0 l 1,15,-1
 621 412 l 1,0,-1
775 1202 m 1,16,-1
 702 1202 l 1,17,-1
 583 962 l 1,18,-1
 366 561 l 1,19,-1
 650 561 l 1,20,-1
 775 1202 l 1,16,-1
EndSplineSet
EndChar

StartChar: Oslash
Encoding: 216 216 145
Width: 1229
GlyphClass: 2
Flags: W
LayerCount: 2
Fore
SplineSet
504 -20 m 0,0,1
 284 -20 284 -20 185 118 c 1,2,-1
 38 -38 l 1,3,-1
 -44 27 l 1,4,-1
 134 216 l 1,5,6
 102 307 102 307 102 429 c 0,7,8
 102 590 102 590 151.5 781 c 128,-1,9
 201 972 201 972 288.5 1104.5 c 128,-1,10
 376 1237 376 1237 498 1303.5 c 128,-1,11
 620 1370 620 1370 776 1370 c 0,12,13
 994 1370 994 1370 1095 1236 c 1,14,-1
 1242 1392 l 1,15,-1
 1323 1327 l 1,16,-1
 1147 1140 l 1,17,18
 1180 1050 1180 1050 1180 927 c 0,19,20
 1180 773 1180 773 1131 582.5 c 128,-1,21
 1082 392 1082 392 992 255.5 c 128,-1,22
 902 119 902 119 778 49.5 c 128,-1,23
 654 -20 654 -20 504 -20 c 0,0,1
978 908 m 1,24,-1
 976 959 l 1,25,-1
 331 273 l 1,26,27
 383 135 383 135 535 135 c 0,28,29
 635 135 635 135 711 187 c 128,-1,30
 787 239 787 239 845.5 351 c 128,-1,31
 904 463 904 463 941 628.5 c 128,-1,32
 978 794 978 794 978 908 c 1,24,-1
305 445 m 0,33,34
 305 410 305 410 306 399 c 1,35,-1
 951 1083 l 1,36,37
 899 1214 899 1214 746 1214 c 0,38,39
 611 1214 611 1214 515.5 1116 c 128,-1,40
 420 1018 420 1018 362.5 817.5 c 128,-1,41
 305 617 305 617 305 445 c 0,33,34
EndSplineSet
Validated: 1
EndChar

StartChar: infinity
Encoding: 8734 8734 146
Width: 1229
GlyphClass: 2
Flags: W
LayerCount: 2
Fore
SplineSet
1195 590 m 0,0,1
 1195 424 1195 424 1115 313.5 c 128,-1,2
 1035 203 1035 203 913 203 c 0,3,4
 728 203 728 203 609 485 c 1,5,6
 553 359 553 359 474 284 c 128,-1,7
 395 209 395 209 313 209 c 0,8,9
 187 209 187 209 108 315 c 128,-1,10
 29 421 29 421 29 596 c 0,11,12
 29 767 29 767 109.5 875 c 128,-1,13
 190 983 190 983 313 983 c 0,14,15
 496 983 496 983 611 700 c 1,16,17
 741 977 741 977 915 977 c 0,18,19
 1042 977 1042 977 1118.5 870.5 c 128,-1,20
 1195 764 1195 764 1195 590 c 0,0,1
889 846 m 0,21,22
 828 846 828 846 776.5 783 c 128,-1,23
 725 720 725 720 677 590 c 1,24,25
 722 462 722 462 773 398 c 128,-1,26
 824 334 824 334 890 334 c 0,27,28
 962 334 962 334 1009 405.5 c 128,-1,29
 1056 477 1056 477 1056 592 c 0,30,31
 1056 699 1056 699 1009 772.5 c 128,-1,32
 962 846 962 846 889 846 c 0,21,22
546 596 m 1,33,34
 502 724 502 724 450.5 788 c 128,-1,35
 399 852 399 852 332 852 c 0,36,37
 261 852 261 852 215 779 c 128,-1,38
 169 706 169 706 169 594 c 0,39,40
 169 479 169 479 215 409.5 c 128,-1,41
 261 340 261 340 334 340 c 0,42,43
 451 340 451 340 546 596 c 1,33,34
EndSplineSet
Validated: 1
EndChar

StartChar: plusminus
Encoding: 177 177 147
Width: 1229
GlyphClass: 2
Flags: W
LayerCount: 2
Fore
SplineSet
687 680 m 1,0,-1
 687 285 l 1,1,-1
 540 285 l 1,2,-1
 540 680 l 1,3,-1
 116 680 l 1,4,-1
 116 825 l 1,5,-1
 540 825 l 1,6,-1
 540 1219 l 1,7,-1
 687 1219 l 1,8,-1
 687 825 l 1,9,-1
 1111 825 l 1,10,-1
 1111 680 l 1,11,-1
 687 680 l 1,0,-1
116 0 m 1,12,-1
 116 145 l 1,13,-1
 1111 145 l 1,14,-1
 1111 0 l 1,15,-1
 116 0 l 1,12,-1
EndSplineSet
Validated: 1
EndChar

StartChar: lessequal
Encoding: 8804 8804 148
Width: 1229
GlyphClass: 2
Flags: W
LayerCount: 2
Fore
SplineSet
117 631 m 1,0,-1
 117 836 l 1,1,-1
 1112 1231 l 1,2,-1
 1112 1077 l 1,3,-1
 254 733 l 1,4,-1
 1112 389 l 1,5,-1
 1112 236 l 1,6,-1
 117 631 l 1,0,-1
115 0 m 1,7,-1
 115 145 l 1,8,-1
 1110 145 l 1,9,-1
 1110 0 l 1,10,-1
 115 0 l 1,7,-1
EndSplineSet
Validated: 1
EndChar

StartChar: greaterequal
Encoding: 8805 8805 149
Width: 1229
GlyphClass: 2
Flags: W
LayerCount: 2
Fore
SplineSet
116 236 m 1,0,-1
 116 389 l 1,1,-1
 974 733 l 1,2,-1
 116 1077 l 1,3,-1
 116 1231 l 1,4,-1
 1111 836 l 1,5,-1
 1111 631 l 1,6,-1
 116 236 l 1,0,-1
116 0 m 1,7,-1
 116 145 l 1,8,-1
 1111 145 l 1,9,-1
 1111 0 l 1,10,-1
 116 0 l 1,7,-1
EndSplineSet
Validated: 1
EndChar

StartChar: yen
Encoding: 165 165 150
Width: 1229
GlyphClass: 2
Flags: W
LayerCount: 2
Fore
SplineSet
791 679 m 1,0,-1
 1112 679 l 1,1,-1
 1084 537 l 1,2,-1
 701 537 l 1,3,-1
 675 400 l 1,4,-1
 1058 400 l 1,5,-1
 1030 256 l 1,6,-1
 647 256 l 1,7,-1
 597 0 l 1,8,-1
 419 0 l 1,9,-1
 469 256 l 1,10,-1
 88 256 l 1,11,-1
 116 400 l 1,12,-1
 497 400 l 1,13,-1
 525 537 l 1,14,-1
 142 537 l 1,15,-1
 170 679 l 1,16,-1
 490 679 l 1,17,-1
 209 1349 l 1,18,-1
 408 1349 l 1,19,-1
 649 732 l 1,20,-1
 1134 1349 l 1,21,-1
 1333 1349 l 1,22,-1
 791 679 l 1,0,-1
EndSplineSet
Validated: 1
EndChar

StartChar: mu
Encoding: 181 181 151
Width: 1229
GlyphClass: 2
Flags: W
LayerCount: 2
Fore
SplineSet
811 0 m 1,0,1
 811 4 811 4 812.5 14 c 128,-1,2
 814 24 814 24 822.5 86 c 128,-1,3
 831 148 831 148 840 199 c 1,4,-1
 836 199 l 1,5,6
 687 -20 687 -20 459 -20 c 0,7,8
 377 -20 377 -20 319.5 12 c 128,-1,9
 262 44 262 44 241 102 c 1,10,-1
 237 102 l 1,11,-1
 217 -20 l 1,12,-1
 145 -393 l 1,13,-1
 -37 -393 l 1,14,-1
 249 1082 l 1,15,-1
 431 1082 l 1,16,-1
 306 438 l 1,17,18
 294 368 294 368 294 331 c 0,19,20
 294 121 294 121 509 121 c 0,21,22
 640 121 640 121 747 218 c 128,-1,23
 854 315 854 315 882 465 c 1,24,-1
 1002 1082 l 1,25,-1
 1183 1082 l 1,26,-1
 1018 233 l 2,27,28
 1012 199 1012 199 1005 161 c 128,-1,29
 998 123 998 123 992.5 89.5 c 128,-1,30
 987 56 987 56 983 31.5 c 128,-1,31
 979 7 979 7 979 0 c 1,32,-1
 811 0 l 1,0,1
EndSplineSet
Validated: 1
EndChar

StartChar: partialdiff
Encoding: 8706 8706 152
Width: 1229
GlyphClass: 2
Flags: W
LayerCount: 2
Fore
SplineSet
1123 938 m 0,0,1
 1123 759 1123 759 1077 568 c 128,-1,2
 1031 377 1031 377 946.5 243.5 c 128,-1,3
 862 110 862 110 744.5 41.5 c 128,-1,4
 627 -27 627 -27 482 -27 c 0,5,6
 301 -27 301 -27 203 73.5 c 128,-1,7
 105 174 105 174 105 356 c 0,8,9
 105 474 105 474 147 599.5 c 128,-1,10
 189 725 189 725 259 814.5 c 128,-1,11
 329 904 329 904 426.5 954 c 128,-1,12
 524 1004 524 1004 641 1004 c 0,13,14
 741 1004 741 1004 818 954.5 c 128,-1,15
 895 905 895 905 932 821 c 1,16,-1
 936 821 l 1,17,18
 941 884 941 884 941 938 c 0,19,20
 941 1134 941 1134 868 1238.5 c 128,-1,21
 795 1343 795 1343 650 1343 c 0,22,23
 590 1343 590 1343 521 1323.5 c 128,-1,24
 452 1304 452 1304 400 1268 c 1,25,-1
 439 1415 l 1,26,27
 563 1477 563 1477 685 1477 c 0,28,29
 895 1477 895 1477 1009 1339 c 128,-1,30
 1123 1201 1123 1201 1123 938 c 0,0,1
906 680 m 1,31,32
 885 769 885 769 818 826 c 128,-1,33
 751 883 751 883 666 883 c 0,34,35
 565 883 565 883 483 816.5 c 128,-1,36
 401 750 401 750 348 618.5 c 128,-1,37
 295 487 295 487 295 358 c 0,38,39
 295 243 295 243 350.5 176 c 128,-1,40
 406 109 406 109 506 109 c 0,41,42
 601 109 601 109 683.5 183.5 c 128,-1,43
 766 258 766 258 824.5 389.5 c 128,-1,44
 883 521 883 521 906 680 c 1,31,32
EndSplineSet
Validated: 1
EndChar

StartChar: summation
Encoding: 8721 8721 153
Width: 1229
GlyphClass: 2
Flags: W
LayerCount: 2
Fore
SplineSet
27 -455 m 1,0,-1
 27 -346 l 1,1,-1
 662 456 l 1,2,-1
 43 1243 l 1,3,-1
 43 1349 l 1,4,-1
 1133 1349 l 1,5,-1
 1133 1197 l 1,6,-1
 287 1197 l 1,7,-1
 871 458 l 1,8,-1
 271 -303 l 1,9,-1
 1201 -303 l 1,10,-1
 1201 -455 l 1,11,-1
 27 -455 l 1,0,-1
EndSplineSet
Validated: 1
EndChar

StartChar: product
Encoding: 8719 8719 154
Width: 1229
GlyphClass: 2
Flags: W
LayerCount: 2
Fore
SplineSet
938 -455 m 1,0,-1
 938 1187 l 1,1,-1
 296 1187 l 1,2,-1
 296 -455 l 1,3,-1
 105 -455 l 1,4,-1
 105 1349 l 1,5,-1
 1122 1349 l 1,6,-1
 1122 -455 l 1,7,-1
 938 -455 l 1,0,-1
EndSplineSet
Validated: 1
EndChar

StartChar: integral
Encoding: 8747 8747 155
Width: 1229
GlyphClass: 2
Flags: W
LayerCount: 2
Fore
SplineSet
878 1368 m 0,0,1
 795 1368 795 1368 750.5 1308.5 c 128,-1,2
 706 1249 706 1249 706 1135 c 2,3,-1
 706 -100 l 2,4,5
 706 -272 706 -272 619 -363.5 c 128,-1,6
 532 -455 532 -455 369 -455 c 0,7,8
 290 -455 290 -455 235 -436 c 1,9,-1
 235 -289 l 1,10,11
 295 -313 295 -313 352 -313 c 0,12,13
 522 -313 522 -313 522 -80 c 2,14,-1
 522 1153 l 2,15,16
 522 1325 522 1325 609 1416 c 128,-1,17
 696 1507 696 1507 862 1507 c 0,18,19
 949 1507 949 1507 993 1489 c 1,20,-1
 993 1341 l 1,21,22
 944 1368 944 1368 878 1368 c 0,0,1
EndSplineSet
Validated: 1
EndChar

StartChar: ordfeminine
Encoding: 170 170 156
Width: 1229
GlyphClass: 2
Flags: W
LayerCount: 2
Fore
SplineSet
881 1212 m 0,0,1
 881 1341 881 1341 731 1341 c 0,2,3
 647 1341 647 1341 594 1307 c 128,-1,4
 541 1273 541 1273 515 1196 c 1,5,-1
 368 1206 l 1,6,7
 406 1310 406 1310 506 1371 c 128,-1,8
 606 1432 606 1432 752 1432 c 0,9,10
 885 1432 885 1432 955.5 1381 c 128,-1,11
 1026 1330 1026 1330 1026 1230 c 0,12,13
 1026 1195 1026 1195 1019 1165 c 1,14,-1
 963 874 l 2,15,16
 957 843 957 843 957 819 c 0,17,18
 957 756 957 756 1014 756 c 0,19,20
 1038 756 1038 756 1065 764 c 1,21,-1
 1046 670 l 1,22,23
 994 657 994 657 942 657 c 0,24,25
 809 657 809 657 809 775 c 1,26,-1
 813 817 l 1,27,-1
 809 817 l 1,28,29
 684 651 684 651 486 651 c 0,30,31
 380 651 380 651 322.5 695.5 c 128,-1,32
 265 740 265 740 265 821 c 0,33,34
 265 842 265 842 270 870 c 0,35,36
 318 1107 318 1107 675 1112 c 1,37,-1
 867 1116 l 1,38,39
 881 1191 881 1191 881 1212 c 0,0,1
418 860 m 0,40,41
 418 815 418 815 448 783.5 c 128,-1,42
 478 752 478 752 546 752 c 0,43,44
 615 752 615 752 679 786 c 128,-1,45
 743 820 743 820 787 874.5 c 128,-1,46
 831 929 831 929 841 983 c 2,47,-1
 851 1034 l 1,48,-1
 696 1030 l 2,49,50
 549 1027 549 1027 483.5 984 c 128,-1,51
 418 941 418 941 418 860 c 0,40,41
EndSplineSet
Validated: 1
EndChar

StartChar: ordmasculine
Encoding: 186 186 157
Width: 1229
GlyphClass: 2
Flags: W
LayerCount: 2
Fore
SplineSet
633 651 m 0,0,1
 479 651 479 651 396.5 728 c 128,-1,2
 314 805 314 805 314 943 c 0,3,4
 314 1071 314 1071 372.5 1188.5 c 128,-1,5
 431 1306 431 1306 539.5 1369 c 128,-1,6
 648 1432 648 1432 788 1432 c 0,7,8
 946 1432 946 1432 1028.5 1360 c 128,-1,9
 1111 1288 1111 1288 1111 1149 c 0,10,11
 1111 1053 1111 1053 1077 957 c 128,-1,12
 1043 861 1043 861 980 792.5 c 128,-1,13
 917 724 917 724 830 687.5 c 128,-1,14
 743 651 743 651 633 651 c 0,0,1
962 1144 m 0,15,16
 962 1327 962 1327 772 1327 c 0,17,18
 675 1327 675 1327 606.5 1279.5 c 128,-1,19
 538 1232 538 1232 502 1136 c 128,-1,20
 466 1040 466 1040 466 945 c 0,21,22
 466 756 466 756 651 756 c 0,23,24
 727 756 727 756 786 784 c 128,-1,25
 845 812 845 812 882 864 c 128,-1,26
 919 916 919 916 940.5 997 c 128,-1,27
 962 1078 962 1078 962 1144 c 0,15,16
EndSplineSet
Validated: 1
EndChar

StartChar: Ohm
Encoding: 8486 8486 158
Width: 1229
GlyphClass: 2
Flags: W
LayerCount: 2
Fore
SplineSet
615 1370 m 256,0,1
 860 1370 860 1370 1003.5 1208 c 128,-1,2
 1147 1046 1147 1046 1147 771 c 0,3,4
 1147 582 1147 582 1060 417.5 c 128,-1,5
 973 253 973 253 810 145 c 1,6,7
 927 156 927 156 971 156 c 2,8,-1
 1171 156 l 1,9,-1
 1171 0 l 1,10,-1
 688 0 l 1,11,-1
 688 224 l 1,12,13
 822 322 822 322 887 454 c 128,-1,14
 952 586 952 586 952 758 c 0,15,16
 952 982 952 982 866 1098 c 128,-1,17
 780 1214 780 1214 616 1214 c 0,18,19
 448 1214 448 1214 363 1096 c 128,-1,20
 278 978 278 978 278 758 c 0,21,22
 278 585 278 585 343.5 453.5 c 128,-1,23
 409 322 409 322 542 224 c 1,24,-1
 542 0 l 1,25,-1
 59 0 l 1,26,-1
 59 156 l 1,27,-1
 259 156 l 2,28,29
 303 156 303 156 420 145 c 1,30,31
 257 254 257 254 170 418.5 c 128,-1,32
 83 583 83 583 83 771 c 0,33,34
 83 1047 83 1047 226.5 1208.5 c 128,-1,35
 370 1370 370 1370 615 1370 c 256,0,1
EndSplineSet
Validated: 1
EndChar

StartChar: ae
Encoding: 230 230 159
Width: 1229
GlyphClass: 2
Flags: W
AnchorPoint: "bottom" 468 -86 basechar 0
AnchorPoint: "top" 732 1166 basechar 0
LayerCount: 2
Fore
SplineSet
672 503 m 1,0,1
 650 410 650 410 650 313 c 0,2,3
 650 115 650 115 781 115 c 0,4,5
 856 115 856 115 910 162 c 128,-1,6
 964 209 964 209 994 281 c 1,7,-1
 1123 236 l 1,8,9
 1004 -20 1004 -20 759 -20 c 0,10,11
 638 -20 638 -20 580.5 34.5 c 128,-1,12
 523 89 523 89 512 212 c 1,13,14
 370 -20 370 -20 169 -20 c 0,15,16
 -38 -20 -38 -20 -38 190 c 0,17,18
 -38 241 -38 241 -26 302 c 0,19,20
 42 651 42 651 373 656 c 1,21,-1
 540 660 l 1,22,23
 567 793 567 793 567 844 c 0,24,25
 567 909 567 909 542 937 c 128,-1,26
 517 965 517 965 464 965 c 0,27,28
 390 965 390 965 348.5 924.5 c 128,-1,29
 307 884 307 884 282 793 c 1,30,-1
 117 810 l 1,31,32
 164 959 164 959 256.5 1030.5 c 128,-1,33
 349 1102 349 1102 489 1102 c 0,34,35
 667 1102 667 1102 709 963 c 1,36,37
 820 1102 820 1102 982 1102 c 0,38,39
 1234 1102 1234 1102 1234 781 c 0,40,41
 1234 670 1234 670 1205 527 c 1,42,-1
 1201 503 l 1,43,-1
 672 503 l 1,0,1
135 230 m 0,44,45
 135 117 135 117 221 117 c 0,46,47
 314 117 314 117 392.5 212 c 128,-1,48
 471 307 471 307 498 445 c 2,49,-1
 516 534 l 1,50,-1
 393 530 l 2,51,52
 298 527 298 527 245 490 c 128,-1,53
 192 453 192 453 163.5 378 c 128,-1,54
 135 303 135 303 135 230 c 0,44,45
942 969 m 0,55,56
 861 969 861 969 797.5 881.5 c 128,-1,57
 734 794 734 794 701 641 c 1,58,-1
 1062 641 l 1,59,60
 1073 727 1073 727 1073 776 c 0,61,62
 1073 876 1073 876 1040.5 922.5 c 128,-1,63
 1008 969 1008 969 942 969 c 0,55,56
EndSplineSet
EndChar

StartChar: oslash
Encoding: 248 248 160
Width: 1229
GlyphClass: 2
Flags: W
LayerCount: 2
Fore
SplineSet
500 -20 m 0,0,1
 297 -20 297 -20 190 87 c 1,2,-1
 96 0 l 1,3,-1
 33 68 l 1,4,-1
 136 163 l 1,5,6
 92 248 92 248 92 371 c 0,7,8
 92 502 92 502 135.5 646.5 c 128,-1,9
 179 791 179 791 261.5 894.5 c 128,-1,10
 344 998 344 998 459.5 1050 c 128,-1,11
 575 1102 575 1102 724 1102 c 0,12,13
 937 1102 937 1102 1040 1002 c 1,14,-1
 1128 1084 l 1,15,-1
 1192 1016 l 1,16,-1
 1095 926 l 1,17,18
 1137 845 1137 845 1137 725 c 0,19,20
 1137 595 1137 595 1094.5 446.5 c 128,-1,21
 1052 298 1052 298 968.5 192 c 128,-1,22
 885 86 885 86 767 33 c 128,-1,23
 649 -20 649 -20 500 -20 c 0,0,1
947 713 m 0,24,25
 947 744 947 744 942 784 c 1,26,-1
 321 208 l 1,27,28
 380 113 380 113 524 113 c 0,29,30
 631 113 631 113 706 153.5 c 128,-1,31
 781 194 781 194 834.5 280.5 c 128,-1,32
 888 367 888 367 917.5 493 c 128,-1,33
 947 619 947 619 947 713 c 0,24,25
281 379 m 0,34,35
 281 339 281 339 287 304 c 1,36,-1
 908 880 l 1,37,38
 851 969 851 969 701 969 c 0,39,40
 598 969 598 969 523 928.5 c 128,-1,41
 448 888 448 888 394.5 804 c 128,-1,42
 341 720 341 720 311 597 c 128,-1,43
 281 474 281 474 281 379 c 0,34,35
EndSplineSet
Validated: 1
EndChar

StartChar: questiondown
Encoding: 191 191 161
Width: 1229
GlyphClass: 2
Flags: W
LayerCount: 2
Fore
SplineSet
631 724 m 1,0,-1
 806 724 l 1,1,2
 782 619 782 619 712 536.5 c 128,-1,3
 642 454 642 454 518 379 c 0,4,5
 369 289 369 289 305.5 213 c 128,-1,6
 242 137 242 137 242 40 c 0,7,8
 242 -48 242 -48 309.5 -93.5 c 128,-1,9
 377 -139 377 -139 498 -139 c 0,10,11
 632 -139 632 -139 730.5 -67.5 c 128,-1,12
 829 4 829 4 869 133 c 1,13,-1
 1051 121 l 1,14,15
 988 -74 988 -74 834 -181.5 c 128,-1,16
 680 -289 680 -289 471 -289 c 0,17,18
 274 -289 274 -289 164.5 -212.5 c 128,-1,19
 55 -136 55 -136 55 3 c 0,20,21
 55 74 55 74 82 149 c 128,-1,22
 109 224 109 224 174.5 294 c 128,-1,23
 240 364 240 364 350 430 c 0,24,25
 488 512 488 512 550.5 577 c 128,-1,26
 613 642 613 642 631 724 c 1,0,-1
883 1081 m 1,27,-1
 844 880 l 1,28,-1
 649 880 l 1,29,-1
 688 1081 l 1,30,-1
 883 1081 l 1,27,-1
EndSplineSet
Validated: 1
EndChar

StartChar: exclamdown
Encoding: 161 161 162
Width: 1229
GlyphClass: 2
Flags: W
LayerCount: 2
Fore
SplineSet
567 685 m 1,0,-1
 715 685 l 1,1,-1
 554 -266 l 1,2,-1
 358 -266 l 1,3,-1
 567 685 l 1,0,-1
818 1082 m 1,4,-1
 779 881 l 1,5,-1
 585 881 l 1,6,-1
 624 1082 l 1,7,-1
 818 1082 l 1,4,-1
EndSplineSet
Validated: 1
EndChar

StartChar: logicalnot
Encoding: 172 172 163
Width: 1229
GlyphClass: 2
Flags: W
LayerCount: 2
Fore
SplineSet
966 180 m 1,0,-1
 966 608 l 1,1,-1
 116 608 l 1,2,-1
 116 754 l 1,3,-1
 1111 754 l 1,4,-1
 1111 180 l 1,5,-1
 966 180 l 1,0,-1
EndSplineSet
Validated: 1
EndChar

StartChar: radical
Encoding: 8730 8730 164
Width: 1229
GlyphClass: 2
Flags: W
LayerCount: 2
Fore
SplineSet
649 -14 m 1,0,-1
 543 -14 l 1,1,-1
 260 778 l 1,2,-1
 78 778 l 1,3,-1
 78 895 l 1,4,-1
 348 895 l 1,5,-1
 590 205 l 1,6,-1
 1020 1620 l 1,7,-1
 1149 1620 l 1,8,-1
 649 -14 l 1,0,-1
EndSplineSet
Validated: 1
EndChar

StartChar: florin
Encoding: 402 402 165
Width: 1229
GlyphClass: 2
Flags: W
LayerCount: 2
Fore
SplineSet
1070 1369 m 0,0,1
 1151 1369 1151 1369 1226 1346 c 1,2,-1
 1159 1210 l 1,3,4
 1102 1229 1102 1229 1033 1229 c 0,5,6
 947 1229 947 1229 903 1196.5 c 128,-1,7
 859 1164 859 1164 823 1073 c 2,8,-1
 769 936 l 1,9,-1
 1071 936 l 1,10,-1
 1020 805 l 1,11,-1
 717 805 l 1,12,-1
 235 -425 l 1,13,-1
 55 -425 l 1,14,-1
 537 805 l 1,15,-1
 285 805 l 1,16,-1
 338 936 l 1,17,-1
 589 936 l 1,18,-1
 647 1088 l 1,19,20
 712 1241 712 1241 814.5 1305 c 128,-1,21
 917 1369 917 1369 1070 1369 c 0,0,1
EndSplineSet
Validated: 1
EndChar

StartChar: approxequal
Encoding: 8776 8776 166
Width: 1229
GlyphClass: 2
Flags: W
LayerCount: 2
Fore
SplineSet
860 758 m 0,0,1
 791 758 791 758 718.5 779.5 c 128,-1,2
 646 801 646 801 573 827 c 1,3,4
 440 872 440 872 356 872 c 0,5,6
 293 872 293 872 236 853.5 c 128,-1,7
 179 835 179 835 108 784 c 1,8,-1
 108 928 l 1,9,10
 222 1012 222 1012 371 1012 c 0,11,12
 448 1012 448 1012 521.5 990 c 128,-1,13
 595 968 595 968 665 943 c 1,14,-1
 680 938 l 2,15,16
 769 908 769 908 808 900.5 c 128,-1,17
 847 893 847 893 876 893 c 0,18,19
 1006 893 1006 893 1120 987 c 1,20,-1
 1120 838 l 1,21,22
 1060 796 1060 796 1002.5 777 c 128,-1,23
 945 758 945 758 860 758 c 0,0,1
876 473 m 0,24,25
 1006 473 1006 473 1120 565 c 1,26,-1
 1120 418 l 1,27,28
 1060 373 1060 373 1001.5 354.5 c 128,-1,29
 943 336 943 336 860 336 c 0,30,31
 791 336 791 336 718.5 358 c 128,-1,32
 646 380 646 380 573 406 c 0,33,34
 440 453 440 453 356 453 c 0,35,36
 289 453 289 453 231 432.5 c 128,-1,37
 173 412 173 412 108 365 c 1,38,-1
 108 506 l 1,39,40
 219 590 219 590 371 590 c 0,41,42
 473 590 473 590 606 544 c 0,43,44
 753 493 753 493 796.5 483 c 128,-1,45
 840 473 840 473 876 473 c 0,24,25
EndSplineSet
Validated: 1
EndChar

StartChar: Delta
Encoding: 8710 8710 167
Width: 1229
GlyphClass: 2
Flags: W
LayerCount: 2
Fore
SplineSet
12 0 m 1,0,-1
 12 145 l 1,1,-1
 489 1409 l 1,2,-1
 733 1409 l 1,3,-1
 1216 147 l 1,4,-1
 1216 0 l 1,5,-1
 12 0 l 1,0,-1
612 1274 m 1,6,-1
 514 997 l 1,7,-1
 204 156 l 1,8,-1
 1024 156 l 1,9,-1
 710 997 l 1,10,-1
 612 1274 l 1,6,-1
EndSplineSet
Validated: 1
EndChar

StartChar: guillemotleft
Encoding: 171 171 168
Width: 1229
GlyphClass: 2
Flags: W
LayerCount: 2
Fore
SplineSet
862 141 m 1,0,-1
 595 506 l 1,1,-1
 608 569 l 1,2,-1
 1018 940 l 1,3,-1
 1196 940 l 1,4,-1
 1190 909 l 1,5,-1
 779 537 l 1,6,-1
 1048 170 l 1,7,-1
 1042 141 l 1,8,-1
 862 141 l 1,0,-1
385 141 m 1,9,-1
 120 506 l 1,10,-1
 133 569 l 1,11,-1
 541 940 l 1,12,-1
 718 940 l 1,13,-1
 712 909 l 1,14,-1
 304 537 l 1,15,-1
 570 170 l 1,16,-1
 564 141 l 1,17,-1
 385 141 l 1,9,-1
EndSplineSet
Validated: 1
EndChar

StartChar: guillemotright
Encoding: 187 187 169
Width: 1229
GlyphClass: 2
Flags: W
LayerCount: 2
Fore
SplineSet
684 141 m 1,0,-1
 506 141 l 1,1,-1
 512 170 l 1,2,-1
 921 537 l 1,3,-1
 658 909 l 1,4,-1
 664 940 l 1,5,-1
 840 940 l 1,6,-1
 1106 569 l 1,7,-1
 1093 506 l 1,8,-1
 684 141 l 1,0,-1
209 141 m 1,9,-1
 29 141 l 1,10,-1
 35 170 l 1,11,-1
 444 537 l 1,12,-1
 181 909 l 1,13,-1
 187 940 l 1,14,-1
 365 940 l 1,15,-1
 628 569 l 1,16,-1
 615 506 l 1,17,-1
 209 141 l 1,9,-1
EndSplineSet
Validated: 1
EndChar

StartChar: ellipsis
Encoding: 8230 8230 170
Width: 1229
GlyphClass: 2
Flags: W
LayerCount: 2
Fore
SplineSet
833 0 m 1,0,-1
 876 219 l 1,1,-1
 1050 219 l 1,2,-1
 1007 0 l 1,3,-1
 833 0 l 1,0,-1
424 0 m 1,4,-1
 467 219 l 1,5,-1
 639 219 l 1,6,-1
 596 0 l 1,7,-1
 424 0 l 1,4,-1
12 0 m 1,8,-1
 55 219 l 1,9,-1
 230 219 l 1,10,-1
 187 0 l 1,11,-1
 12 0 l 1,8,-1
EndSplineSet
Validated: 1
EndChar

StartChar: OE
Encoding: 338 338 174
Width: 1229
GlyphClass: 2
Flags: W
LayerCount: 2
Fore
SplineSet
504 0 m 1,0,1
 444 -5 444 -5 405 -5 c 0,2,3
 206 -5 206 -5 111.5 96 c 128,-1,4
 17 197 17 197 17 406 c 0,5,6
 17 564 17 564 65.5 767 c 128,-1,7
 114 970 114 970 194.5 1099 c 128,-1,8
 275 1228 275 1228 392 1291.5 c 128,-1,9
 509 1355 509 1355 671 1355 c 0,10,11
 730 1355 730 1355 779 1349 c 1,12,-1
 1337 1349 l 1,13,-1
 1308 1197 l 1,14,-1
 910 1197 l 1,15,-1
 824 757 l 1,16,-1
 1191 757 l 1,17,-1
 1162 607 l 1,18,-1
 795 607 l 1,19,-1
 707 152 l 1,20,-1
 1146 152 l 1,21,-1
 1116 0 l 1,22,-1
 504 0 l 1,0,1
434 140 m 0,23,24
 505 140 505 140 535 146 c 1,25,-1
 741 1203 l 1,26,27
 705 1209 705 1209 643 1209 c 0,28,29
 499 1209 499 1209 405.5 1110.5 c 128,-1,30
 312 1012 312 1012 256.5 805 c 128,-1,31
 201 598 201 598 201 437 c 0,32,33
 201 282 201 282 260 211 c 128,-1,34
 319 140 319 140 434 140 c 0,23,24
EndSplineSet
Validated: 1
EndChar

StartChar: oe
Encoding: 339 339 175
Width: 1229
GlyphClass: 2
Flags: W
LayerCount: 2
Fore
SplineSet
705 503 m 1,0,1
 683 393 683 393 683 307 c 0,2,3
 683 115 683 115 797 115 c 0,4,5
 863 115 863 115 910.5 162 c 128,-1,6
 958 209 958 209 987 281 c 1,7,-1
 1116 236 l 1,8,9
 1002 -20 1002 -20 773 -20 c 0,10,11
 591 -20 591 -20 546 163 c 1,12,13
 428 -20 428 -20 244 -20 c 0,14,15
 129 -20 129 -20 65.5 60.5 c 128,-1,16
 2 141 2 141 2 307 c 0,17,18
 2 434 2 434 40 599.5 c 128,-1,19
 78 765 78 765 139 876 c 128,-1,20
 200 987 200 987 282.5 1044.5 c 128,-1,21
 365 1102 365 1102 469 1102 c 0,22,23
 656 1102 656 1102 701 925 c 1,24,25
 820 1102 820 1102 994 1102 c 0,26,27
 1230 1102 1230 1102 1230 787 c 0,28,29
 1230 672 1230 672 1201 527 c 1,30,-1
 1197 503 l 1,31,-1
 705 503 l 1,0,1
573 789 m 0,32,33
 573 883 573 883 544 926 c 128,-1,34
 515 969 515 969 456 969 c 0,35,36
 372 969 372 969 312.5 880.5 c 128,-1,37
 253 792 253 792 211 607.5 c 128,-1,38
 169 423 169 423 169 305 c 0,39,40
 169 113 169 113 284 113 c 0,41,42
 373 113 373 113 432.5 207.5 c 128,-1,43
 492 302 492 302 532.5 491.5 c 128,-1,44
 573 681 573 681 573 789 c 0,32,33
958 969 m 0,45,46
 885 969 885 969 826 882.5 c 128,-1,47
 767 796 767 796 734 641 c 1,48,-1
 1058 641 l 1,49,50
 1070 727 1070 727 1070 788 c 0,51,52
 1070 882 1070 882 1042.5 925.5 c 128,-1,53
 1015 969 1015 969 958 969 c 0,45,46
EndSplineSet
Validated: 1
EndChar

StartChar: endash
Encoding: 8211 8211 176
Width: 1229
GlyphClass: 2
Flags: W
LayerCount: 2
Fore
SplineSet
153 451 m 1,0,-1
 179 588 l 1,1,-1
 1067 588 l 1,2,-1
 1041 451 l 1,3,-1
 153 451 l 1,0,-1
EndSplineSet
Validated: 1
EndChar

StartChar: emdash
Encoding: 8212 8212 177
Width: 1229
GlyphClass: 2
Flags: W
LayerCount: 2
Fore
SplineSet
-27 451 m 1,0,-1
 -1 588 l 1,1,-1
 1247 588 l 1,2,-1
 1221 451 l 1,3,-1
 -27 451 l 1,0,-1
EndSplineSet
Validated: 1
EndChar

StartChar: quotedblleft
Encoding: 8220 8220 178
Width: 1229
GlyphClass: 2
Flags: W
LayerCount: 2
Fore
SplineSet
794 1484 m 1,0,-1
 505 862 l 1,1,-1
 240 862 l 1,2,-1
 671 1484 l 1,3,-1
 794 1484 l 1,0,-1
1233 1484 m 1,4,-1
 944 862 l 1,5,-1
 679 862 l 1,6,-1
 1110 1484 l 1,7,-1
 1233 1484 l 1,4,-1
EndSplineSet
Validated: 1
EndChar

StartChar: quotedblright
Encoding: 8221 8221 179
Width: 1229
GlyphClass: 2
Flags: W
LayerCount: 2
Fore
SplineSet
680 862 m 1,0,-1
 969 1484 l 1,1,-1
 1234 1484 l 1,2,-1
 803 862 l 1,3,-1
 680 862 l 1,0,-1
241 862 m 1,4,-1
 530 1484 l 1,5,-1
 795 1484 l 1,6,-1
 364 862 l 1,7,-1
 241 862 l 1,4,-1
EndSplineSet
Validated: 1
EndChar

StartChar: quoteleft
Encoding: 8216 8216 180
Width: 1229
GlyphClass: 2
Flags: W
LayerCount: 2
Fore
SplineSet
1014 1484 m 1,0,-1
 725 862 l 1,1,-1
 460 862 l 1,2,-1
 891 1484 l 1,3,-1
 1014 1484 l 1,0,-1
EndSplineSet
Validated: 1
EndChar

StartChar: quoteright
Encoding: 8217 8217 181
Width: 1229
GlyphClass: 2
Flags: W
LayerCount: 2
Fore
SplineSet
462 862 m 1,0,-1
 751 1484 l 1,1,-1
 1016 1484 l 1,2,-1
 585 862 l 1,3,-1
 462 862 l 1,0,-1
EndSplineSet
Validated: 1
EndChar

StartChar: divide
Encoding: 247 247 182
Width: 1229
GlyphClass: 2
Flags: W
LayerCount: 2
Fore
SplineSet
529 958 m 1,0,-1
 529 1141 l 1,1,-1
 697 1141 l 1,2,-1
 697 958 l 1,3,-1
 529 958 l 1,0,-1
116 608 m 1,4,-1
 116 754 l 1,5,-1
 1111 754 l 1,6,-1
 1111 608 l 1,7,-1
 116 608 l 1,4,-1
529 223 m 1,8,-1
 529 406 l 1,9,-1
 697 406 l 1,10,-1
 697 223 l 1,11,-1
 529 223 l 1,8,-1
EndSplineSet
Validated: 1
EndChar

StartChar: lozenge
Encoding: 9674 9674 183
Width: 1229
GlyphClass: 2
Flags: W
LayerCount: 2
Fore
SplineSet
654 0 m 1,0,-1
 572 0 l 1,1,-1
 115 719 l 1,2,-1
 572 1440 l 1,3,-1
 654 1440 l 1,4,-1
 1113 721 l 1,5,-1
 654 0 l 1,0,-1
615 1286 m 1,6,-1
 261 721 l 1,7,-1
 615 147 l 1,8,-1
 967 721 l 1,9,-1
 615 1286 l 1,6,-1
EndSplineSet
Validated: 1
EndChar

StartChar: fraction
Encoding: 8260 8260 186
Width: 1229
GlyphClass: 2
Flags: W
LayerCount: 2
Fore
SplineSet
217 0 m 1,0,-1
 99 0 l 1,1,-1
 1064 1349 l 1,2,-1
 1179 1349 l 1,3,-1
 217 0 l 1,0,-1
EndSplineSet
Validated: 1
EndChar

StartChar: Euro
Encoding: 8364 8364 187
Width: 1229
GlyphClass: 2
Flags: W
LayerCount: 2
Fore
SplineSet
858 463 m 1,0,-1
 399 463 l 1,1,-1
 395 394 l 1,2,3
 395 261 395 261 459 198 c 128,-1,4
 523 135 523 135 658 135 c 0,5,6
 732 135 732 135 804 156 c 128,-1,7
 876 177 876 177 988 239 c 1,8,-1
 1038 104 l 1,9,10
 927 38 927 38 827 9 c 128,-1,11
 727 -20 727 -20 618 -20 c 0,12,13
 203 -20 203 -20 203 393 c 1,14,-1
 206 460 l 1,15,-1
 75 460 l 1,16,-1
 103 604 l 1,17,-1
 222 604 l 1,18,19
 228 671 228 671 252 758 c 1,20,-1
 133 758 l 1,21,-1
 161 900 l 1,22,-1
 290 900 l 1,23,24
 365 1134 365 1134 513 1252 c 128,-1,25
 661 1370 661 1370 890 1370 c 0,26,27
 999 1370 999 1370 1084.5 1343 c 128,-1,28
 1170 1316 1170 1316 1247 1254 c 1,29,-1
 1138 1114 l 1,30,31
 1019 1214 1019 1214 875 1214 c 0,32,33
 712 1214 712 1214 623.5 1141.5 c 128,-1,34
 535 1069 535 1069 482 898 c 1,35,-1
 943 898 l 1,36,-1
 915 757 l 1,37,-1
 440 757 l 1,38,-1
 423 679 l 1,39,-1
 412 605 l 1,40,-1
 886 605 l 1,41,-1
 858 463 l 1,0,-1
EndSplineSet
Validated: 1
EndChar

StartChar: guilsinglleft
Encoding: 8249 8249 188
Width: 1229
GlyphClass: 2
Flags: W
LayerCount: 2
Fore
SplineSet
604 141 m 1,0,-1
 339 506 l 1,1,-1
 352 569 l 1,2,-1
 760 940 l 1,3,-1
 937 940 l 1,4,-1
 931 909 l 1,5,-1
 523 537 l 1,6,-1
 789 170 l 1,7,-1
 783 141 l 1,8,-1
 604 141 l 1,0,-1
EndSplineSet
Validated: 1
EndChar

StartChar: guilsinglright
Encoding: 8250 8250 189
Width: 1229
GlyphClass: 2
Flags: W
LayerCount: 2
Fore
SplineSet
466 141 m 1,0,-1
 288 141 l 1,1,-1
 294 170 l 1,2,-1
 703 537 l 1,3,-1
 440 909 l 1,4,-1
 446 940 l 1,5,-1
 622 940 l 1,6,-1
 887 569 l 1,7,-1
 874 506 l 1,8,-1
 466 141 l 1,0,-1
EndSplineSet
Validated: 1
EndChar

StartChar: fi
Encoding: 64257 64257 190
Width: 1229
GlyphClass: 2
Flags: W
LayerCount: 2
Fore
SplineSet
496 951 m 1,0,-1
 311 0 l 1,1,-1
 131 0 l 1,2,-1
 316 951 l 1,3,-1
 164 951 l 1,4,-1
 189 1082 l 1,5,-1
 341 1082 l 1,6,-1
 365 1204 l 1,7,8
 396 1355 396 1355 474 1418.5 c 128,-1,9
 552 1482 552 1482 683 1482 c 0,10,11
 756 1482 756 1482 808 1470 c 1,12,-1
 781 1333 l 1,13,14
 736 1341 736 1341 703 1341 c 0,15,16
 636 1341 636 1341 597.5 1307 c 128,-1,17
 559 1273 559 1273 540 1179 c 2,18,-1
 521 1082 l 1,19,-1
 732 1082 l 1,20,-1
 707 951 l 1,21,-1
 496 951 l 1,0,-1
1031 1312 m 1,22,-1
 1064 1484 l 1,23,-1
 1244 1484 l 1,24,-1
 1211 1312 l 1,25,-1
 1031 1312 l 1,22,-1
776 0 m 1,26,-1
 986 1082 l 1,27,-1
 1166 1082 l 1,28,-1
 956 0 l 1,29,-1
 776 0 l 1,26,-1
EndSplineSet
Validated: 1
EndChar

StartChar: fl
Encoding: 64258 64258 191
Width: 1229
GlyphClass: 2
Flags: W
LayerCount: 2
Fore
SplineSet
496 951 m 1,0,-1
 311 0 l 1,1,-1
 131 0 l 1,2,-1
 316 951 l 1,3,-1
 164 951 l 1,4,-1
 189 1082 l 1,5,-1
 341 1082 l 1,6,-1
 365 1204 l 1,7,8
 396 1355 396 1355 474 1418.5 c 128,-1,9
 552 1482 552 1482 683 1482 c 0,10,11
 756 1482 756 1482 808 1470 c 1,12,-1
 781 1333 l 1,13,14
 736 1341 736 1341 703 1341 c 0,15,16
 636 1341 636 1341 597.5 1307 c 128,-1,17
 559 1273 559 1273 540 1179 c 2,18,-1
 521 1082 l 1,19,-1
 732 1082 l 1,20,-1
 707 951 l 1,21,-1
 496 951 l 1,0,-1
776 0 m 1,22,-1
 1064 1484 l 1,23,-1
 1244 1484 l 1,24,-1
 956 0 l 1,25,-1
 776 0 l 1,22,-1
EndSplineSet
Validated: 1
EndChar

StartChar: daggerdbl
Encoding: 8225 8225 192
Width: 1229
GlyphClass: 2
Flags: W
LayerCount: 2
Fore
SplineSet
999 298 m 1,0,-1
 967 134 l 1,1,-1
 610 153 l 1,2,-1
 565 -213 l 1,3,-1
 370 -213 l 1,4,-1
 467 153 l 1,5,-1
 103 134 l 1,6,-1
 135 298 l 1,7,-1
 492 281 l 1,8,-1
 594 635 l 1,9,-1
 629 989 l 1,10,-1
 266 972 l 1,11,-1
 298 1136 l 1,12,-1
 654 1117 l 1,13,-1
 699 1483 l 1,14,-1
 894 1483 l 1,15,-1
 797 1117 l 1,16,-1
 1162 1136 l 1,17,-1
 1130 972 l 1,18,-1
 772 989 l 1,19,-1
 669 635 l 1,20,-1
 635 281 l 1,21,-1
 999 298 l 1,0,-1
EndSplineSet
Validated: 1
EndChar

StartChar: bulletoperator
Encoding: 8729 8729 193
Width: 1229
GlyphClass: 2
Flags: W
LayerCount: 2
Fore
SplineSet
473 420 m 1,0,-1
 531 719 l 1,1,-1
 766 719 l 1,2,-1
 708 420 l 1,3,-1
 473 420 l 1,0,-1
EndSplineSet
Validated: 1
EndChar

StartChar: quotesinglbase
Encoding: 8218 8218 194
Width: 1229
GlyphClass: 2
Flags: W
LayerCount: 2
Fore
SplineSet
173 -363 m 1,0,-1
 463 259 l 1,1,-1
 728 259 l 1,2,-1
 296 -363 l 1,3,-1
 173 -363 l 1,0,-1
EndSplineSet
Validated: 1
EndChar

StartChar: quotedblbase
Encoding: 8222 8222 195
Width: 1229
GlyphClass: 2
Flags: W
LayerCount: 2
Fore
SplineSet
441 -364 m 1,0,-1
 731 258 l 1,1,-1
 996 258 l 1,2,-1
 564 -364 l 1,3,-1
 441 -364 l 1,0,-1
2 -364 m 1,4,-1
 292 258 l 1,5,-1
 557 258 l 1,6,-1
 125 -364 l 1,7,-1
 2 -364 l 1,4,-1
EndSplineSet
Validated: 1
EndChar

StartChar: perthousand
Encoding: 8240 8240 196
Width: 1229
GlyphClass: 2
Flags: W
LayerCount: 2
Fore
SplineSet
119 395 m 1,0,-1
 -26 395 l 1,1,-1
 681 1034 l 1,2,-1
 828 1034 l 1,3,-1
 119 395 l 1,0,-1
405 1411 m 0,4,5
 588 1411 588 1411 588 1223 c 0,6,7
 588 1158 588 1158 567.5 1075 c 128,-1,8
 547 992 547 992 507.5 932.5 c 128,-1,9
 468 873 468 873 411.5 843.5 c 128,-1,10
 355 814 355 814 285 814 c 0,11,12
 100 814 100 814 100 1008 c 0,13,14
 100 1100 100 1100 135 1203 c 128,-1,15
 170 1306 170 1306 235.5 1358.5 c 128,-1,16
 301 1411 301 1411 405 1411 c 0,4,5
457 1211 m 0,17,18
 457 1264 457 1264 437.5 1283.5 c 128,-1,19
 418 1303 418 1303 383 1303 c 0,20,21
 331 1303 331 1303 301 1267.5 c 128,-1,22
 271 1232 271 1232 251 1153 c 128,-1,23
 231 1074 231 1074 231 1022 c 0,24,25
 231 969 231 969 251 948 c 128,-1,26
 271 927 271 927 309 927 c 0,27,28
 356 927 356 927 388 966 c 128,-1,29
 420 1005 420 1005 438.5 1079.5 c 128,-1,30
 457 1154 457 1154 457 1211 c 0,17,18
506 597 m 0,31,32
 690 597 690 597 690 408 c 0,33,34
 690 344 690 344 669.5 261.5 c 128,-1,35
 649 179 649 179 608.5 118.5 c 128,-1,36
 568 58 568 58 512 29 c 128,-1,37
 456 0 456 0 387 0 c 0,38,39
 201 0 201 0 201 194 c 0,40,41
 201 286 201 286 236 389 c 128,-1,42
 271 492 271 492 336.5 544.5 c 128,-1,43
 402 597 402 597 506 597 c 0,31,32
559 396 m 0,44,45
 559 449 559 449 539 469 c 128,-1,46
 519 489 519 489 484 489 c 0,47,48
 431 489 431 489 400 452 c 128,-1,49
 369 415 369 415 350.5 336 c 128,-1,50
 332 257 332 257 332 209 c 0,51,52
 332 155 332 155 352 134 c 128,-1,53
 372 113 372 113 410 113 c 0,54,55
 458 113 458 113 490 152 c 128,-1,56
 522 191 522 191 540.5 265.5 c 128,-1,57
 559 340 559 340 559 396 c 0,44,45
1011 597 m 0,58,59
 1194 597 1194 597 1194 409 c 0,60,61
 1194 344 1194 344 1173.5 261 c 128,-1,62
 1153 178 1153 178 1113.5 118.5 c 128,-1,63
 1074 59 1074 59 1017.5 29.5 c 128,-1,64
 961 0 961 0 891 0 c 0,65,66
 706 0 706 0 706 194 c 0,67,68
 706 286 706 286 741 389 c 128,-1,69
 776 492 776 492 841.5 544.5 c 128,-1,70
 907 597 907 597 1011 597 c 0,58,59
1064 396 m 0,71,72
 1064 449 1064 449 1044 469 c 128,-1,73
 1024 489 1024 489 989 489 c 0,74,75
 936 489 936 489 905 452 c 128,-1,76
 874 415 874 415 855.5 336 c 128,-1,77
 837 257 837 257 837 208 c 0,78,79
 837 155 837 155 857 134 c 128,-1,80
 877 113 877 113 915 113 c 0,81,82
 961 113 961 113 993.5 151 c 128,-1,83
 1026 189 1026 189 1045 264 c 128,-1,84
 1064 339 1064 339 1064 396 c 0,71,72
EndSplineSet
Validated: 1
EndChar

StartChar: dotlessi
Encoding: 305 305 212
Width: 1229
GlyphClass: 2
Flags: W
LayerCount: 2
Fore
SplineSet
668 142 m 1,0,-1
 1048 142 l 1,1,-1
 1020 0 l 1,2,-1
 38 0 l 1,3,-1
 66 142 l 1,4,-1
 488 142 l 1,5,-1
 643 940 l 1,6,-1
 324 940 l 1,7,-1
 351 1082 l 1,8,-1
 850 1082 l 1,9,-1
 668 142 l 1,0,-1
EndSplineSet
Validated: 1
EndChar

StartChar: circumflex
Encoding: 710 710 213
Width: 1229
GlyphClass: 2
Flags: W
LayerCount: 2
Fore
SplineSet
1077 1221 m 1,0,-1
 1073 1201 l 1,1,-1
 968 1201 l 1,2,-1
 776 1339 l 1,3,-1
 774 1339 l 1,4,-1
 515 1201 l 1,5,-1
 411 1201 l 1,6,-1
 415 1221 l 1,7,-1
 716 1460 l 1,8,-1
 880 1460 l 1,9,-1
 1077 1221 l 1,0,-1
EndSplineSet
Validated: 1
EndChar

StartChar: tilde
Encoding: 732 732 214
Width: 1229
GlyphClass: 2
Flags: W
LayerCount: 2
Fore
SplineSet
898 1201 m 0,0,1
 856 1201 856 1201 818 1219.5 c 128,-1,2
 780 1238 780 1238 744 1260.5 c 128,-1,3
 708 1283 708 1283 673.5 1301.5 c 128,-1,4
 639 1320 639 1320 604 1320 c 0,5,6
 567 1320 567 1320 543 1296.5 c 128,-1,7
 519 1273 519 1273 494 1201 c 1,8,-1
 383 1201 l 1,9,10
 425 1338 425 1338 486.5 1393.5 c 128,-1,11
 548 1449 548 1449 635 1449 c 0,12,13
 679 1449 679 1449 717.5 1430.5 c 128,-1,14
 756 1412 756 1412 791.5 1389.5 c 128,-1,15
 827 1367 827 1367 860.5 1348.5 c 128,-1,16
 894 1330 894 1330 927 1330 c 0,17,18
 967 1330 967 1330 992 1357.5 c 128,-1,19
 1017 1385 1017 1385 1037 1449 c 1,20,-1
 1149 1449 l 1,21,22
 1118 1352 1118 1352 1085.5 1303.5 c 128,-1,23
 1053 1255 1053 1255 1007 1228 c 128,-1,24
 961 1201 961 1201 898 1201 c 0,0,1
EndSplineSet
Validated: 1
EndChar

StartChar: firsttonechinese
Encoding: 713 713 215
Width: 1229
GlyphClass: 2
Flags: W
LayerCount: 2
Fore
SplineSet
1023 1236 m 5,0,-1
 472 1236 l 5,1,-1
 497 1363 l 5,2,-1
 1048 1363 l 5,3,-1
 1023 1236 l 5,0,-1
EndSplineSet
Validated: 1
EndChar

StartChar: breve
Encoding: 728 728 216
Width: 1229
GlyphClass: 2
Flags: W
LayerCount: 2
Fore
SplineSet
741 1201 m 0,0,1
 621 1201 621 1201 550.5 1270 c 128,-1,2
 480 1339 480 1339 480 1454 c 2,3,-1
 480 1460 l 1,4,-1
 607 1460 l 1,5,6
 615 1327 615 1327 766 1327 c 0,7,8
 851 1327 851 1327 900.5 1362 c 128,-1,9
 950 1397 950 1397 979 1460 c 1,10,-1
 1106 1460 l 1,11,12
 1057 1338 1057 1338 961 1269.5 c 128,-1,13
 865 1201 865 1201 741 1201 c 0,0,1
EndSplineSet
Validated: 1
EndChar

StartChar: dotaccent
Encoding: 729 729 217
Width: 1229
GlyphClass: 2
Flags: W
LayerCount: 2
Fore
SplineSet
661 1292 m 1,0,-1
 698 1484 l 1,1,-1
 898 1484 l 1,2,-1
 861 1292 l 1,3,-1
 661 1292 l 1,0,-1
EndSplineSet
Validated: 1
EndChar

StartChar: ring
Encoding: 730 730 218
Width: 1229
GlyphClass: 2
Flags: W
LayerCount: 2
Fore
SplineSet
732 1148 m 0,0,1
 636 1148 636 1148 580.5 1191.5 c 128,-1,2
 525 1235 525 1235 525 1310 c 0,3,4
 525 1369 525 1369 560 1426 c 128,-1,5
 595 1483 595 1483 661.5 1515 c 128,-1,6
 728 1547 728 1547 810 1547 c 0,7,8
 905 1547 905 1547 961 1505 c 128,-1,9
 1017 1463 1017 1463 1017 1386 c 0,10,11
 1017 1323 1017 1323 980 1266.5 c 128,-1,12
 943 1210 943 1210 878 1179 c 128,-1,13
 813 1148 813 1148 732 1148 c 0,0,1
893 1362 m 0,14,15
 893 1394 893 1394 864 1412.5 c 128,-1,16
 835 1431 835 1431 787 1431 c 0,17,18
 725 1431 725 1431 686.5 1403 c 128,-1,19
 648 1375 648 1375 648 1335 c 0,20,21
 648 1302 648 1302 676 1283 c 128,-1,22
 704 1264 704 1264 755 1264 c 0,23,24
 818 1264 818 1264 855.5 1293 c 128,-1,25
 893 1322 893 1322 893 1362 c 0,14,15
EndSplineSet
Validated: 1
EndChar

StartChar: cedilla
Encoding: 184 184 219
Width: 1229
GlyphClass: 2
Flags: W
LayerCount: 2
Fore
SplineSet
18 -444 m 0,0,1
 -39 -444 -39 -444 -72 -440 c 1,2,-1
 -52 -342 l 1,3,4
 -4 -348 -4 -348 32 -348 c 0,5,6
 178 -348 178 -348 196 -262 c 1,7,-1
 198 -244 l 1,8,9
 198 -180 198 -180 79 -180 c 0,10,11
 36 -180 36 -180 22 -182 c 1,12,-1
 122 0 l 1,13,-1
 229 0 l 1,14,-1
 171 -100 l 1,15,16
 252 -102 252 -102 292 -134 c 128,-1,17
 332 -166 332 -166 332 -222 c 0,18,19
 332 -281 332 -281 298.5 -335 c 128,-1,20
 265 -389 265 -389 195.5 -416.5 c 128,-1,21
 126 -444 126 -444 18 -444 c 0,0,1
EndSplineSet
Validated: 1
EndChar

StartChar: hungarumlaut
Encoding: 733 733 220
Width: 1229
GlyphClass: 2
Flags: W
LayerCount: 2
Fore
SplineSet
521 1201 m 1,0,-1
 525 1221 l 1,1,-1
 779 1460 l 1,2,-1
 966 1460 l 1,3,-1
 960 1431 l 1,4,-1
 615 1201 l 1,5,-1
 521 1201 l 1,0,-1
157 1201 m 1,6,-1
 161 1221 l 1,7,-1
 415 1460 l 1,8,-1
 602 1460 l 1,9,-1
 596 1431 l 1,10,-1
 251 1201 l 1,11,-1
 157 1201 l 1,6,-1
EndSplineSet
Validated: 1
EndChar

StartChar: ogonek
Encoding: 731 731 221
Width: 1229
GlyphClass: 2
Flags: W
LayerCount: 2
Fore
SplineSet
464 -427 m 0,0,1
 373 -427 373 -427 328.5 -388.5 c 128,-1,2
 284 -350 284 -350 284 -284 c 0,3,4
 284 -204 284 -204 341.5 -126.5 c 128,-1,5
 399 -49 399 -49 491 0 c 1,6,-1
 624 0 l 1,7,8
 541 -43 541 -43 486 -116.5 c 128,-1,9
 431 -190 431 -190 431 -250 c 0,10,11
 431 -317 431 -317 509 -317 c 0,12,13
 564 -317 564 -317 629 -293 c 1,14,-1
 608 -400 l 1,15,16
 541 -427 541 -427 464 -427 c 0,0,1
EndSplineSet
Validated: 1
EndChar

StartChar: caron
Encoding: 711 711 222
Width: 1229
GlyphClass: 2
Flags: W
LayerCount: 2
Fore
SplineSet
829 1201 m 1,0,-1
 665 1201 l 1,1,-1
 458 1440 l 1,2,-1
 462 1460 l 1,3,-1
 566 1460 l 1,4,-1
 771 1322 l 1,5,-1
 773 1322 l 1,6,-1
 1019 1460 l 1,7,-1
 1124 1460 l 1,8,-1
 1120 1440 l 1,9,-1
 829 1201 l 1,0,-1
EndSplineSet
Validated: 1
EndChar

StartChar: Lslash
Encoding: 321 321 223
Width: 1229
GlyphClass: 2
Flags: W
LayerCount: 2
Fore
SplineSet
132 0 m 1,0,-1
 221 458 l 1,1,-1
 92 397 l 1,2,-1
 50 518 l 1,3,-1
 251 614 l 1,4,-1
 394 1349 l 1,5,-1
 585 1349 l 1,6,-1
 462 713 l 1,7,-1
 783 864 l 1,8,-1
 820 743 l 1,9,-1
 431 558 l 1,10,-1
 353 156 l 1,11,-1
 1025 156 l 1,12,-1
 995 0 l 1,13,-1
 132 0 l 1,0,-1
EndSplineSet
Validated: 1
EndChar

StartChar: lslash
Encoding: 322 322 224
Width: 1229
GlyphClass: 2
Flags: W
LayerCount: 2
Fore
SplineSet
803 884 m 1,0,-1
 1053 1013 l 1,1,-1
 1093 900 l 1,2,-1
 774 736 l 1,3,-1
 659 142 l 1,4,-1
 1039 142 l 1,5,-1
 1011 0 l 1,6,-1
 29 0 l 1,7,-1
 57 142 l 1,8,-1
 479 142 l 1,9,-1
 574 635 l 1,10,-1
 333 512 l 1,11,-1
 290 624 l 1,12,-1
 603 783 l 1,13,-1
 712 1342 l 1,14,-1
 373 1342 l 1,15,-1
 400 1484 l 1,16,-1
 919 1484 l 1,17,-1
 803 884 l 1,0,-1
EndSplineSet
Validated: 1
EndChar

StartChar: brokenbar
Encoding: 166 166 229
Width: 1229
GlyphClass: 2
Flags: W
LayerCount: 2
Fore
SplineSet
531 676 m 1,0,-1
 531 1454 l 1,1,-1
 697 1454 l 1,2,-1
 697 676 l 1,3,-1
 531 676 l 1,0,-1
531 -455 m 1,4,-1
 531 324 l 1,5,-1
 697 324 l 1,6,-1
 697 -455 l 1,7,-1
 531 -455 l 1,4,-1
EndSplineSet
Validated: 1
EndChar

StartChar: Eth
Encoding: 208 208 230
Width: 1229
GlyphClass: 2
Flags: W
LayerCount: 2
Fore
SplineSet
427 0 m 2,0,-1
 57 0 l 1,1,-1
 173 597 l 1,2,-1
 38 597 l 1,3,-1
 67 746 l 1,4,-1
 202 746 l 1,5,-1
 319 1349 l 1,6,-1
 630 1349 l 2,7,8
 1175 1349 1175 1349 1175 890 c 0,9,10
 1175 732 1175 732 1121 555 c 128,-1,11
 1067 378 1067 378 969 253.5 c 128,-1,12
 871 129 871 129 734 64.5 c 128,-1,13
 597 0 597 0 427 0 c 2,0,-1
653 597 m 1,14,-1
 364 597 l 1,15,-1
 278 156 l 1,16,-1
 440 156 l 2,17,18
 568 156 568 156 665.5 204.5 c 128,-1,19
 763 253 763 253 832 351 c 128,-1,20
 901 449 901 449 941 597 c 128,-1,21
 981 745 981 745 981 865 c 0,22,23
 981 1038 981 1038 886.5 1115.5 c 128,-1,24
 792 1193 792 1193 601 1193 c 2,25,-1
 480 1193 l 1,26,-1
 393 746 l 1,27,-1
 682 746 l 1,28,-1
 653 597 l 1,14,-1
EndSplineSet
Validated: 1
EndChar

StartChar: eth
Encoding: 240 240 231
Width: 1229
GlyphClass: 2
Flags: W
LayerCount: 2
Fore
SplineSet
697 979 m 0,0,1
 834 979 834 979 917 920 c 1,2,3
 869 1116 869 1116 758 1237 c 1,4,-1
 476 1122 l 1,5,-1
 442 1232 l 1,6,-1
 679 1326 l 1,7,8
 582 1417 582 1417 467 1484 c 1,9,-1
 676 1484 l 1,10,11
 751 1447 751 1447 827 1382 c 1,12,-1
 1113 1496 l 1,13,-1
 1147 1388 l 1,14,-1
 918 1296 l 1,15,16
 1121 1073 1121 1073 1121 749 c 0,17,18
 1121 591 1121 591 1079 437.5 c 128,-1,19
 1037 284 1037 284 959 184.5 c 128,-1,20
 881 85 881 85 765.5 32.5 c 128,-1,21
 650 -20 650 -20 496 -20 c 0,22,23
 302 -20 302 -20 200 71.5 c 128,-1,24
 98 163 98 163 98 339 c 0,25,26
 98 459 98 459 141 588 c 128,-1,27
 184 717 184 717 259.5 802.5 c 128,-1,28
 335 888 335 888 443 933.5 c 128,-1,29
 551 979 551 979 697 979 c 0,0,1
917 622 m 0,30,31
 917 737 917 737 859.5 791.5 c 128,-1,32
 802 846 802 846 675 846 c 0,33,34
 543 846 543 846 460.5 786 c 128,-1,35
 378 726 378 726 333 598.5 c 128,-1,36
 288 471 288 471 288 348 c 0,37,38
 288 227 288 227 346 170 c 128,-1,39
 404 113 404 113 520 113 c 0,40,41
 621 113 621 113 693.5 147 c 128,-1,42
 766 181 766 181 814.5 251 c 128,-1,43
 863 321 863 321 890 431.5 c 128,-1,44
 917 542 917 542 917 622 c 0,30,31
EndSplineSet
Validated: 1
EndChar

StartChar: Thorn
Encoding: 222 222 234
Width: 1229
GlyphClass: 2
Flags: W
LayerCount: 2
Fore
SplineSet
578 254 m 2,0,-1
 297 254 l 1,1,-1
 248 0 l 1,2,-1
 57 0 l 1,3,-1
 319 1349 l 1,4,-1
 510 1349 l 1,5,-1
 465 1114 l 1,6,-1
 734 1114 l 2,7,8
 939 1114 939 1114 1049 1030 c 128,-1,9
 1159 946 1159 946 1159 790 c 0,10,11
 1159 650 1159 650 1085 522.5 c 128,-1,12
 1011 395 1011 395 877.5 324.5 c 128,-1,13
 744 254 744 254 578 254 c 2,0,-1
963 757 m 0,14,15
 963 860 963 860 893.5 915.5 c 128,-1,16
 824 971 824 971 683 971 c 2,17,-1
 437 971 l 1,18,-1
 325 395 l 1,19,-1
 579 395 l 2,20,21
 695 395 695 395 781 440.5 c 128,-1,22
 867 486 867 486 915 573 c 128,-1,23
 963 660 963 660 963 757 c 0,14,15
EndSplineSet
Validated: 1
EndChar

StartChar: thorn
Encoding: 254 254 235
Width: 1229
GlyphClass: 2
Flags: W
LayerCount: 2
Fore
SplineSet
928 743 m 0,0,1
 928 851 928 851 883.5 908 c 128,-1,2
 839 965 839 965 734 965 c 0,3,4
 637 965 637 965 569.5 922.5 c 128,-1,5
 502 880 502 880 452.5 791.5 c 128,-1,6
 403 703 403 703 373 571.5 c 128,-1,7
 343 440 343 440 343 350 c 0,8,9
 343 229 343 229 397 171 c 128,-1,10
 451 113 451 113 566 113 c 0,11,12
 683 113 683 113 759.5 191 c 128,-1,13
 836 269 836 269 882 444 c 128,-1,14
 928 619 928 619 928 743 c 0,0,1
439 904 m 1,15,16
 509 1009 509 1009 596.5 1056.5 c 128,-1,17
 684 1104 684 1104 808 1104 c 0,18,19
 1116 1104 1116 1104 1116 768 c 0,20,21
 1116 673 1116 673 1091 546 c 0,22,23
 981 -20 981 -20 589 -20 c 0,24,25
 342 -20 342 -20 294 164 c 1,26,-1
 289 164 l 1,27,28
 289 154 289 154 281 108 c 128,-1,29
 273 62 273 62 178 -425 c 1,30,-1
 -3 -425 l 1,31,-1
 368 1484 l 1,32,-1
 548 1484 l 1,33,-1
 466 1061 l 1,34,-1
 432 904 l 1,35,-1
 439 904 l 1,15,16
EndSplineSet
Validated: 1
EndChar

StartChar: minus
Encoding: 8722 8722 236
Width: 1229
GlyphClass: 2
Flags: W
LayerCount: 2
Fore
SplineSet
117 608 m 1,0,-1
 117 754 l 1,1,-1
 1112 754 l 1,2,-1
 1112 608 l 1,3,-1
 117 608 l 1,0,-1
EndSplineSet
Validated: 1
EndChar

StartChar: multiply
Encoding: 215 215 237
Width: 1229
GlyphClass: 2
Flags: W
LayerCount: 2
Fore
SplineSet
157 330 m 1,0,-1
 511 684 l 1,1,-1
 159 1036 l 1,2,-1
 263 1139 l 1,3,-1
 613 786 l 1,4,-1
 963 1137 l 1,5,-1
 1068 1032 l 1,6,-1
 718 684 l 1,7,-1
 1070 332 l 1,8,-1
 968 227 l 1,9,-1
 615 580 l 1,10,-1
 259 225 l 1,11,-1
 157 330 l 1,0,-1
EndSplineSet
Validated: 1
EndChar

StartChar: onesuperior
Encoding: 185 185 238
Width: 1229
GlyphClass: 2
Flags: W
LayerCount: 2
Fore
SplineSet
295 563 m 1,0,-1
 316 670 l 1,1,-1
 581 670 l 1,2,-1
 700 1280 l 1,3,4
 666 1231 666 1231 581 1198 c 128,-1,5
 496 1165 496 1165 406 1165 c 1,6,-1
 428 1274 l 1,7,8
 524 1274 524 1274 606 1309 c 128,-1,9
 688 1344 688 1344 735 1410 c 1,10,-1
 856 1410 l 1,11,-1
 712 670 l 1,12,-1
 948 670 l 1,13,-1
 927 563 l 1,14,-1
 295 563 l 1,0,-1
EndSplineSet
Validated: 1
EndChar

StartChar: twosuperior
Encoding: 178 178 239
Width: 1229
GlyphClass: 2
Flags: W
LayerCount: 2
Fore
SplineSet
318 563 m 1,0,-1
 336 666 l 1,1,2
 380 735 380 735 456.5 799 c 128,-1,3
 533 863 533 863 656 938 c 0,4,5
 781 1014 781 1014 836.5 1077.5 c 128,-1,6
 892 1141 892 1141 892 1213 c 0,7,8
 892 1315 892 1315 770 1315 c 0,9,10
 702 1315 702 1315 650.5 1278.5 c 128,-1,11
 599 1242 599 1242 578 1174 c 1,12,-1
 447 1182 l 1,13,14
 482 1292 482 1292 576.5 1356.5 c 128,-1,15
 671 1421 671 1421 796 1421 c 0,16,17
 911 1421 911 1421 971.5 1373 c 128,-1,18
 1032 1325 1032 1325 1032 1237 c 0,19,20
 1032 1141 1032 1141 969.5 1061.5 c 128,-1,21
 907 982 907 982 782 905 c 1,22,23
 626 807 626 807 569 763 c 128,-1,24
 512 719 512 719 480 670 c 1,25,-1
 939 670 l 1,26,-1
 920 563 l 1,27,-1
 318 563 l 1,0,-1
EndSplineSet
Validated: 1
EndChar

StartChar: threesuperior
Encoding: 179 179 240
Width: 1229
GlyphClass: 2
Flags: W
LayerCount: 2
Fore
SplineSet
626 551 m 0,0,1
 352 551 352 551 352 763 c 2,2,-1
 352 778 l 1,3,-1
 491 791 l 1,4,-1
 491 786 l 1,5,-1
 490 777 l 1,6,7
 490 655 490 655 646 655 c 0,8,9
 739 655 739 655 788.5 706 c 128,-1,10
 838 757 838 757 838 834 c 0,11,12
 838 940 838 940 673 940 c 2,13,-1
 612 940 l 1,14,-1
 633 1049 l 1,15,-1
 690 1049 l 2,16,17
 783 1049 783 1049 837.5 1096 c 128,-1,18
 892 1143 892 1143 892 1217 c 0,19,20
 892 1315 892 1315 769 1315 c 0,21,22
 701 1315 701 1315 652 1280 c 128,-1,23
 603 1245 603 1245 584 1180 c 1,24,-1
 452 1192 l 1,25,26
 486 1300 486 1300 576 1360.5 c 128,-1,27
 666 1421 666 1421 793 1421 c 0,28,29
 906 1421 906 1421 969.5 1375.5 c 128,-1,30
 1033 1330 1033 1330 1033 1247 c 0,31,32
 1033 1159 1033 1159 975.5 1090.5 c 128,-1,33
 918 1022 918 1022 813 999 c 1,34,-1
 813 997 l 1,35,36
 899 988 899 988 937 944 c 128,-1,37
 975 900 975 900 975 839 c 0,38,39
 975 764 975 764 933 695 c 128,-1,40
 891 626 891 626 813.5 588.5 c 128,-1,41
 736 551 736 551 626 551 c 0,0,1
EndSplineSet
Validated: 1
EndChar

StartChar: franc
Encoding: 8355 8355 244
Width: 1229
GlyphClass: 2
Flags: W
LayerCount: 2
Fore
SplineSet
527 1193 m 1,0,-1
 441 749 l 1,1,-1
 1117 749 l 1,2,-1
 1086 591 l 1,3,-1
 410 591 l 1,4,-1
 370 388 l 1,5,-1
 761 388 l 1,6,-1
 736 259 l 1,7,-1
 345 259 l 1,8,-1
 295 0 l 1,9,-1
 104 0 l 1,10,-1
 154 259 l 1,11,-1
 -21 259 l 1,12,-1
 4 388 l 1,13,-1
 179 388 l 1,14,-1
 366 1349 l 1,15,-1
 1257 1349 l 1,16,-1
 1227 1193 l 1,17,-1
 527 1193 l 1,0,-1
EndSplineSet
Validated: 1
EndChar

StartChar: dcroat
Encoding: 273 273 254
Width: 1229
GlyphClass: 2
Flags: W
LayerCount: 2
Fore
SplineSet
1170 1196 m 1,0,-1
 981 223 l 1,1,2
 949 44 949 44 944 0 c 1,3,-1
 772 0 l 1,4,-1
 772 4 l 2,5,6
 772 47 772 47 796 174 c 1,7,-1
 791 174 l 1,8,9
 722 69 722 69 631.5 21.5 c 128,-1,10
 541 -26 541 -26 420 -26 c 0,11,12
 262 -26 262 -26 186 56 c 128,-1,13
 110 138 110 138 110 306 c 0,14,15
 110 392 110 392 133 517 c 1,16,17
 241 1072 241 1072 633 1072 c 0,18,19
 754 1072 754 1072 827.5 1029 c 128,-1,20
 901 986 901 986 931 888 c 1,21,-1
 933 888 l 1,22,-1
 938 914 l 1,23,-1
 990 1196 l 1,24,-1
 690 1196 l 1,25,-1
 716 1327 l 1,26,-1
 1016 1327 l 1,27,-1
 1046 1484 l 1,28,-1
 1226 1484 l 1,29,-1
 1196 1327 l 1,30,-1
 1327 1327 l 1,31,-1
 1301 1196 l 1,32,-1
 1170 1196 l 1,0,-1
299 334 m 0,33,34
 299 219 299 219 346.5 166 c 128,-1,35
 394 113 394 113 494 113 c 0,36,37
 588 113 588 113 657 153.5 c 128,-1,38
 726 194 726 194 775 278 c 128,-1,39
 824 362 824 362 853 490 c 128,-1,40
 882 618 882 618 882 704 c 0,41,42
 882 823 882 823 828.5 881 c 128,-1,43
 775 939 775 939 657 939 c 0,44,45
 540 939 540 939 464.5 862.5 c 128,-1,46
 389 786 389 786 344 622.5 c 128,-1,47
 299 459 299 459 299 334 c 0,33,34
EndSplineSet
Validated: 1
EndChar

StartChar: dcaron
Encoding: 271 271 262
Width: 1229
GlyphClass: 2
Flags: W
LayerCount: 2
Fore
SplineSet
592 174 m 1,0,1
 523 69 523 69 447 21.5 c 128,-1,2
 371 -26 371 -26 274 -26 c 0,3,4
 148 -26 148 -26 77 60 c 128,-1,5
 6 146 6 146 6 318 c 0,6,7
 6 444 6 444 44 599 c 128,-1,8
 82 754 82 754 147 867 c 128,-1,9
 212 980 212 980 300 1039 c 128,-1,10
 388 1098 388 1098 492 1098 c 0,11,12
 590 1098 590 1098 648 1055 c 128,-1,13
 706 1012 706 1012 736 914 c 1,14,-1
 738 914 l 1,15,-1
 759 1034 l 1,16,-1
 846 1484 l 1,17,-1
 1026 1484 l 1,18,-1
 781 223 l 1,19,20
 749 44 749 44 744 0 c 1,21,-1
 572 0 l 1,22,-1
 572 4 l 2,23,24
 572 47 572 47 596 174 c 1,25,-1
 592 174 l 1,0,1
191 313 m 0,26,27
 191 209 191 209 225.5 161 c 128,-1,28
 260 113 260 113 332 113 c 0,29,30
 400 113 400 113 463.5 160.5 c 128,-1,31
 527 208 527 208 577 297.5 c 128,-1,32
 627 387 627 387 655 503 c 128,-1,33
 683 619 683 619 683 709 c 0,34,35
 683 828 683 828 634.5 896.5 c 128,-1,36
 586 965 586 965 499 965 c 0,37,38
 407 965 407 965 342.5 881.5 c 128,-1,39
 278 798 278 798 234.5 618 c 128,-1,40
 191 438 191 438 191 313 c 0,26,27
1075 1159 m 1,41,-1
 1082 1192 l 1,42,-1
 1217 1484 l 1,43,-1
 1414 1484 l 1,44,-1
 1407 1447 l 1,45,-1
 1180 1159 l 1,46,-1
 1075 1159 l 1,41,-1
EndSplineSet
Validated: 1
EndChar

StartChar: lacute
Encoding: 314 314 269
Width: 1229
GlyphClass: 2
Flags: W
LayerCount: 2
Fore
SplineSet
659 142 m 1,0,-1
 1039 142 l 1,1,-1
 1011 0 l 1,2,-1
 29 0 l 1,3,-1
 57 142 l 1,4,-1
 479 142 l 1,5,-1
 686 1207 l 1,6,-1
 397 1207 l 1,7,-1
 424 1349 l 1,8,-1
 893 1349 l 1,9,-1
 659 142 l 1,0,-1
707 1445 m 1,10,-1
 711 1465 l 1,11,-1
 984 1705 l 1,12,-1
 1181 1705 l 1,13,-1
 1176 1676 l 1,14,-1
 831 1445 l 1,15,-1
 707 1445 l 1,10,-1
EndSplineSet
Validated: 1
EndChar

StartChar: Gamma
Encoding: 915 915 298
Width: 1229
GlyphClass: 2
Flags: W
LayerCount: 2
Fore
SplineSet
310 0 m 1,0,-1
 119 0 l 1,1,-1
 381 1349 l 1,2,-1
 1272 1349 l 1,3,-1
 1242 1193 l 1,4,-1
 542 1193 l 1,5,-1
 310 0 l 1,0,-1
EndSplineSet
Validated: 1
EndChar

StartChar: Theta
Encoding: 920 920 299
Width: 1229
GlyphClass: 2
Flags: W
LayerCount: 2
Fore
SplineSet
504 -20 m 0,0,1
 302 -20 302 -20 202 96.5 c 128,-1,2
 102 213 102 213 102 430 c 0,3,4
 102 590 102 590 151.5 781 c 128,-1,5
 201 972 201 972 288.5 1104.5 c 128,-1,6
 376 1237 376 1237 498 1303.5 c 128,-1,7
 620 1370 620 1370 776 1370 c 0,8,9
 974 1370 974 1370 1077 1259.5 c 128,-1,10
 1180 1149 1180 1149 1180 928 c 0,11,12
 1180 773 1180 773 1131 582 c 128,-1,13
 1082 391 1082 391 992 254.5 c 128,-1,14
 902 118 902 118 778 49 c 128,-1,15
 654 -20 654 -20 504 -20 c 0,0,1
978 913 m 0,16,17
 978 1214 978 1214 746 1214 c 0,18,19
 610 1214 610 1214 514.5 1114.5 c 128,-1,20
 419 1015 419 1015 361.5 813 c 128,-1,21
 304 611 304 611 304 446 c 0,22,23
 304 135 304 135 535 135 c 0,24,25
 635 135 635 135 711 187 c 128,-1,26
 787 239 787 239 845.5 351 c 128,-1,27
 904 463 904 463 941 628.5 c 128,-1,28
 978 794 978 794 978 913 c 0,16,17
824 757 m 1,29,-1
 794 603 l 1,30,-1
 459 603 l 1,31,-1
 489 757 l 1,32,-1
 824 757 l 1,29,-1
EndSplineSet
Validated: 1
EndChar

StartChar: Phi
Encoding: 934 934 300
Width: 1229
GlyphClass: 2
Flags: W
LayerCount: 2
Fore
SplineSet
681 206 m 2,0,-1
 640 206 l 1,1,-1
 598 -11 l 1,2,-1
 417 -11 l 1,3,-1
 459 206 l 1,4,-1
 418 206 l 2,5,6
 239 206 239 206 134 312.5 c 128,-1,7
 29 419 29 419 29 596 c 0,8,9
 29 748 29 748 105 890 c 128,-1,10
 181 1032 181 1032 316 1109.5 c 128,-1,11
 451 1187 451 1187 620 1187 c 2,12,-1
 650 1187 l 1,13,-1
 683 1359 l 1,14,-1
 864 1359 l 1,15,-1
 831 1187 l 1,16,-1
 860 1187 l 2,17,18
 1053 1187 1053 1187 1159 1089.5 c 128,-1,19
 1265 992 1265 992 1265 822 c 0,20,21
 1265 668 1265 668 1187 521 c 128,-1,22
 1109 374 1109 374 974 290 c 128,-1,23
 839 206 839 206 681 206 c 2,0,-1
1069 801 m 0,24,25
 1069 923 1069 923 1000 983.5 c 128,-1,26
 931 1044 931 1044 808 1044 c 2,27,-1
 803 1044 l 1,28,-1
 668 348 l 1,29,-1
 680 348 l 2,30,31
 766 348 766 348 837.5 382.5 c 128,-1,32
 909 417 909 417 961 481.5 c 128,-1,33
 1013 546 1013 546 1041 633.5 c 128,-1,34
 1069 721 1069 721 1069 801 c 0,24,25
223 604 m 0,35,36
 223 485 223 485 287 416.5 c 128,-1,37
 351 348 351 348 475 348 c 2,38,-1
 487 348 l 1,39,-1
 622 1044 l 1,40,-1
 614 1044 l 2,41,42
 496 1044 496 1044 407 987 c 128,-1,43
 318 930 318 930 270.5 823.5 c 128,-1,44
 223 717 223 717 223 604 c 0,35,36
EndSplineSet
Validated: 1
EndChar

StartChar: alpha
Encoding: 945 945 301
Width: 1229
GlyphClass: 2
Flags: W
LayerCount: 2
Fore
SplineSet
827 237 m 1,0,1
 662 -20 662 -20 418 -20 c 0,2,3
 257 -20 257 -20 180.5 63 c 128,-1,4
 104 146 104 146 104 317 c 0,5,6
 104 413 104 413 128 536 c 0,7,8
 240 1102 240 1102 664 1102 c 0,9,10
 787 1102 787 1102 864.5 1037 c 128,-1,11
 942 972 942 972 965 847 c 1,12,-1
 967 847 l 1,13,14
 1007 952 1007 952 1085 1082 c 1,15,-1
 1273 1082 l 1,16,17
 1211 989 1211 989 1139 839 c 128,-1,18
 1067 689 1067 689 1032 571 c 1,19,20
 1005 394 1005 394 1005 255 c 0,21,22
 1005 106 1005 106 1032 0 c 1,23,-1
 849 0 l 1,24,25
 831 84 831 84 831 237 c 1,26,-1
 827 237 l 1,0,1
294 339 m 0,27,28
 294 224 294 224 339.5 171.5 c 128,-1,29
 385 119 385 119 482 119 c 0,30,31
 602 119 602 119 707.5 235 c 128,-1,32
 813 351 813 351 876 546 c 1,33,-1
 878 613 l 1,34,35
 878 969 878 969 658 969 c 0,36,37
 536 969 536 969 461 890 c 128,-1,38
 386 811 386 811 340 639 c 128,-1,39
 294 467 294 467 294 339 c 0,27,28
EndSplineSet
Validated: 1
EndChar

StartChar: delta
Encoding: 948 948 302
Width: 1229
GlyphClass: 2
Flags: W
LayerCount: 2
Fore
SplineSet
916 561 m 0,0,1
 916 629 916 629 898 687 c 128,-1,2
 880 745 880 745 854 793.5 c 128,-1,3
 828 842 828 842 761 929 c 1,4,5
 531 852 531 852 404.5 705 c 128,-1,6
 278 558 278 558 278 372 c 0,7,8
 278 251 278 251 343.5 182 c 128,-1,9
 409 113 409 113 529 113 c 0,10,11
 644 113 644 113 730.5 170.5 c 128,-1,12
 817 228 817 228 866.5 339 c 128,-1,13
 916 450 916 450 916 561 c 0,0,1
804 1341 m 1,14,-1
 651 1349 l 1,15,-1
 906 1036 l 2,16,17
 996 927 996 927 1032 864 c 128,-1,18
 1068 801 1068 801 1088 734.5 c 128,-1,19
 1108 668 1108 668 1108 592 c 0,20,21
 1108 477 1108 477 1064.5 361.5 c 128,-1,22
 1021 246 1021 246 938.5 159.5 c 128,-1,23
 856 73 856 73 744 26.5 c 128,-1,24
 632 -20 632 -20 503 -20 c 0,25,26
 306 -20 306 -20 196.5 78 c 128,-1,27
 87 176 87 176 87 352 c 0,28,29
 87 581 87 581 238.5 755.5 c 128,-1,30
 390 930 390 930 686 1026 c 1,31,-1
 431 1354 l 1,32,-1
 456 1484 l 1,33,-1
 1204 1484 l 1,34,-1
 1177 1341 l 1,35,-1
 804 1341 l 1,14,-1
EndSplineSet
Validated: 1
EndChar

StartChar: epsilon
Encoding: 949 949 303
Width: 1229
GlyphClass: 2
Flags: W
LayerCount: 2
Fore
SplineSet
538 114 m 0,0,1
 646 114 646 114 749.5 156.5 c 128,-1,2
 853 199 853 199 932 275 c 1,3,-1
 1018 175 l 1,4,5
 818 -20 818 -20 500 -20 c 0,6,7
 314 -20 314 -20 217 43.5 c 128,-1,8
 120 107 120 107 120 228 c 0,9,10
 120 322 120 322 165.5 394 c 128,-1,11
 211 466 211 466 288.5 511 c 128,-1,12
 366 556 366 556 454 564 c 1,13,-1
 454 566 l 1,14,15
 363 576 363 576 309.5 630 c 128,-1,16
 256 684 256 684 256 764 c 0,17,18
 256 856 256 856 316.5 936 c 128,-1,19
 377 1016 377 1016 490 1059 c 128,-1,20
 603 1102 603 1102 745 1102 c 0,21,22
 893 1102 893 1102 990.5 1059 c 128,-1,23
 1088 1016 1088 1016 1135 917 c 1,24,-1
 990 829 l 1,25,26
 957 900 957 900 891 934 c 128,-1,27
 825 968 825 968 720 968 c 0,28,29
 579 968 579 968 509 915.5 c 128,-1,30
 439 863 439 863 439 779 c 0,31,32
 439 705 439 705 530.5 669 c 128,-1,33
 622 633 622 633 836 633 c 1,34,-1
 810 498 l 1,35,36
 618 498 618 498 516 472.5 c 128,-1,37
 414 447 414 447 362.5 393 c 128,-1,38
 311 339 311 339 311 259 c 0,39,40
 311 114 311 114 538 114 c 0,0,1
EndSplineSet
Validated: 1
EndChar

StartChar: sigma
Encoding: 963 963 304
Width: 1229
GlyphClass: 2
Flags: W
LayerCount: 2
Fore
SplineSet
479 -20 m 0,0,1
 275 -20 275 -20 173.5 79.5 c 128,-1,2
 72 179 72 179 72 361 c 0,3,4
 72 428 72 428 89 524 c 1,5,6
 141 791 141 791 320 936.5 c 128,-1,7
 499 1082 499 1082 775 1082 c 2,8,-1
 1334 1082 l 1,9,-1
 1307 940 l 1,10,-1
 1152 940 l 1,11,-1
 1005 946 l 1,12,-1
 1004 942 l 1,13,14
 1034 878 1034 878 1058 802 c 128,-1,15
 1082 726 1082 726 1082 629 c 0,16,17
 1082 461 1082 461 1007 304.5 c 128,-1,18
 932 148 932 148 794 64 c 128,-1,19
 656 -20 656 -20 479 -20 c 0,0,1
896 662 m 0,20,21
 896 809 896 809 843 940 c 1,22,-1
 754 940 l 2,23,24
 641 940 641 940 547.5 899 c 128,-1,25
 454 858 454 858 389 777 c 128,-1,26
 324 696 324 696 293.5 587 c 128,-1,27
 263 478 263 478 263 373 c 0,28,29
 263 113 263 113 497 113 c 0,30,31
 620 113 620 113 709.5 178.5 c 128,-1,32
 799 244 799 244 847.5 373 c 128,-1,33
 896 502 896 502 896 662 c 0,20,21
EndSplineSet
Validated: 1
EndChar

StartChar: tau
Encoding: 964 964 305
Width: 1229
GlyphClass: 2
Flags: W
LayerCount: 2
Fore
SplineSet
479 940 m 2,0,1
 396 940 396 940 321 928 c 128,-1,2
 246 916 246 916 220 903 c 1,3,-1
 249 1053 l 1,4,5
 278 1065 278 1065 330.5 1073.5 c 128,-1,6
 383 1082 383 1082 437 1082 c 2,7,-1
 1157 1082 l 1,8,-1
 1130 940 l 1,9,-1
 756 940 l 1,10,-1
 623 256 l 1,11,-1
 618 211 l 1,12,13
 618 121 618 121 721 121 c 0,14,15
 778 121 778 121 858 131 c 1,16,-1
 833 0 l 1,17,18
 808 -6 808 -6 748 -13 c 128,-1,19
 688 -20 688 -20 636 -20 c 0,20,21
 528 -20 528 -20 478 21 c 128,-1,22
 428 62 428 62 428 147 c 0,23,24
 428 182 428 182 437 227 c 2,25,-1
 576 940 l 1,26,-1
 479 940 l 2,0,1
EndSplineSet
Validated: 1
EndChar

StartChar: phi
Encoding: 966 966 306
Width: 1229
GlyphClass: 2
Flags: W
LayerCount: 2
Fore
SplineSet
499 -425 m 1,0,-1
 339 -425 l 1,1,-1
 419 -18 l 1,2,3
 229 -10 229 -10 131 89 c 128,-1,4
 33 188 33 188 33 371 c 0,5,6
 33 544 33 544 100 710 c 128,-1,7
 167 876 167 876 287.5 978 c 128,-1,8
 408 1080 408 1080 565 1106 c 1,9,-1
 560 970 l 1,10,11
 480 953 480 953 415.5 902.5 c 128,-1,12
 351 852 351 852 303.5 771 c 128,-1,13
 256 690 256 690 229 585.5 c 128,-1,14
 202 481 202 481 202 384 c 0,15,16
 202 123 202 123 443 109 c 1,17,-1
 556 689 l 2,18,19
 595 888 595 888 696 996 c 128,-1,20
 797 1104 797 1104 944 1104 c 0,21,22
 1067 1104 1067 1104 1135 1015 c 128,-1,23
 1203 926 1203 926 1203 760 c 0,24,25
 1203 629 1203 629 1162.5 479 c 128,-1,26
 1122 329 1122 329 1041 219.5 c 128,-1,27
 960 110 960 110 843.5 50 c 128,-1,28
 727 -10 727 -10 579 -18 c 1,29,-1
 499 -425 l 1,0,-1
1036 772 m 0,30,31
 1036 872 1036 872 1007.5 926.5 c 128,-1,32
 979 981 979 981 922 981 c 0,33,34
 772 981 772 981 717 692 c 1,35,-1
 603 109 l 1,36,37
 927 122 927 122 1013 567 c 0,38,39
 1036 690 1036 690 1036 772 c 0,30,31
EndSplineSet
Validated: 1
EndChar

StartChar: underscoredbl
Encoding: 8215 8215 307
Width: 1229
GlyphClass: 2
Flags: W
LayerCount: 2
Fore
SplineSet
-153 -220 m 1,0,-1
 -134 -124 l 1,1,-1
 1104 -124 l 1,2,-1
 1085 -220 l 1,3,-1
 -153 -220 l 1,0,-1
-193 -425 m 1,4,-1
 -174 -329 l 1,5,-1
 1064 -329 l 1,6,-1
 1045 -425 l 1,7,-1
 -193 -425 l 1,4,-1
EndSplineSet
Validated: 1
EndChar

StartChar: exclamdbl
Encoding: 8252 8252 308
Width: 1229
GlyphClass: 2
Flags: W
LayerCount: 2
Fore
SplineSet
383 397 m 1,0,-1
 235 397 l 1,1,-1
 396 1348 l 1,2,-1
 592 1348 l 1,3,-1
 383 397 l 1,0,-1
132 0 m 1,4,-1
 171 201 l 1,5,-1
 365 201 l 1,6,-1
 326 0 l 1,7,-1
 132 0 l 1,4,-1
940 397 m 1,8,-1
 792 397 l 1,9,-1
 953 1348 l 1,10,-1
 1149 1348 l 1,11,-1
 940 397 l 1,8,-1
689 0 m 1,12,-1
 728 201 l 1,13,-1
 922 201 l 1,14,-1
 883 0 l 1,15,-1
 689 0 l 1,12,-1
EndSplineSet
Validated: 1
EndChar

StartChar: nsuperior
Encoding: 8319 8319 309
Width: 1229
GlyphClass: 2
Flags: W
HStem: 1077 104<663.6 835.442>
VStem: 852 136<768.539 1063.08>
LayerCount: 2
Fore
SplineSet
766 519 m 5,0,-1
 843 917 l 6,1,2
 852 961 852 961 852 990 c 4,3,4
 852 1039 852 1039 828 1058 c 132,-1,5
 804 1077 804 1077 750 1077 c 4,6,7
 678 1077 678 1077 626 1027 c 132,-1,8
 574 977 574 977 556 883 c 6,9,-1
 485 519 l 5,10,-1
 357 519 l 5,11,-1
 456 1030 l 5,12,-1
 479 1169 l 5,13,-1
 598 1169 l 5,14,-1
 583 1058 l 5,15,-1
 585 1058 l 5,16,17
 626 1114 626 1114 679.5 1147.5 c 132,-1,18
 733 1181 733 1181 817 1181 c 4,19,20
 906 1181 906 1181 947 1146.5 c 132,-1,21
 988 1112 988 1112 988 1035 c 4,22,23
 988 999 988 999 979 952 c 6,24,-1
 895 519 l 5,25,-1
 766 519 l 5,0,-1
EndSplineSet
Validated: 1
EndChar

StartChar: peseta
Encoding: 8359 8359 310
Width: 1229
GlyphClass: 2
Flags: W
LayerCount: 2
Fore
SplineSet
289 654 m 2,0,-1
 228 654 l 1,1,-1
 101 0 l 1,2,-1
 -60 0 l 1,3,-1
 202 1349 l 1,4,-1
 412 1349 l 2,5,6
 684 1349 684 1349 684 1113 c 0,7,8
 684 998 684 998 633 887 c 128,-1,9
 582 776 582 776 492 715 c 128,-1,10
 402 654 402 654 289 654 c 2,0,-1
911 -10 m 0,11,12
 841 -10 841 -10 800.5 27.5 c 128,-1,13
 760 65 760 65 760 137 c 2,14,-1
 760 153 l 1,15,-1
 871 170 l 1,16,-1
 871 161 l 2,17,18
 871 82 871 82 931 82 c 256,19,20
 991 82 991 82 1006 159 c 1,21,-1
 1008 180 l 1,22,23
 1008 235 1008 235 938 290 c 0,24,25
 833 373 833 373 833 462 c 0,26,27
 833 517 833 517 860 565 c 128,-1,28
 887 613 887 613 934.5 638.5 c 128,-1,29
 982 664 982 664 1050 664 c 0,30,31
 1115 664 1115 664 1150.5 626.5 c 128,-1,32
 1186 589 1186 589 1186 526 c 0,33,34
 1186 511 1186 511 1185 506 c 1,35,-1
 1074 494 l 1,36,-1
 1075 510 l 1,37,38
 1075 540 1075 540 1063 556.5 c 128,-1,39
 1051 573 1051 573 1030 573 c 0,40,41
 976 573 976 573 961 500 c 1,42,-1
 959 482 l 1,43,44
 959 456 959 456 977 431 c 128,-1,45
 995 406 995 406 1040 371 c 0,46,47
 1136 298 1136 298 1136 207 c 0,48,49
 1136 121 1136 121 1074 55.5 c 128,-1,50
 1012 -10 1012 -10 911 -10 c 0,11,12
520 1082 m 0,51,52
 520 1151 520 1151 485.5 1178.5 c 128,-1,53
 451 1206 451 1206 391 1206 c 2,54,-1
 335 1206 l 1,55,-1
 256 795 l 1,56,-1
 320 795 l 2,57,58
 382 795 382 795 425.5 833.5 c 128,-1,59
 469 872 469 872 494.5 945.5 c 128,-1,60
 520 1019 520 1019 520 1082 c 0,51,52
447 553 m 1,61,-1
 466 650 l 1,62,-1
 556 650 l 1,63,-1
 643 792 l 1,64,-1
 714 792 l 1,65,-1
 686 650 l 1,66,-1
 835 650 l 1,67,-1
 816 553 l 1,68,-1
 667 553 l 1,69,-1
 593 169 l 1,70,-1
 590 143 l 1,71,72
 590 91 590 91 646 91 c 0,73,74
 691 91 691 91 719 98 c 1,75,-1
 700 1 l 1,76,77
 647 -10 647 -10 595 -10 c 0,78,79
 453 -10 453 -10 453 107 c 1,80,-1
 458 151 l 1,81,-1
 536 553 l 1,82,-1
 447 553 l 1,61,-1
EndSplineSet
Validated: 1
EndChar

StartChar: arrowleft
Encoding: 8592 8592 311
Width: 1229
GlyphClass: 2
Flags: W
LayerCount: 2
Fore
SplineSet
231 297 m 1,0,1
 288 230 288 230 350 100 c 1,2,-1
 278 100 l 1,3,4
 151 249 151 249 8 322 c 1,5,-1
 8 358 l 1,6,7
 151 431 151 431 278 580 c 1,8,-1
 350 580 l 1,9,10
 288 450 288 450 231 383 c 1,11,-1
 1220 383 l 1,12,-1
 1220 297 l 1,13,-1
 231 297 l 1,0,1
EndSplineSet
Validated: 1
EndChar

StartChar: arrowup
Encoding: 8593 8593 312
Width: 1229
GlyphClass: 2
Flags: W
LayerCount: 2
Fore
SplineSet
571 928 m 1,0,1
 504 871 504 871 374 809 c 1,2,-1
 374 881 l 1,3,4
 523 1008 523 1008 596 1151 c 1,5,-1
 632 1151 l 1,6,7
 705 1008 705 1008 854 881 c 1,8,-1
 854 809 l 1,9,10
 724 871 724 871 657 928 c 1,11,-1
 657 -61 l 1,12,-1
 571 -61 l 1,13,-1
 571 928 l 1,0,1
EndSplineSet
Validated: 1
EndChar

StartChar: arrowright
Encoding: 8594 8594 313
Width: 1229
GlyphClass: 2
Flags: W
LayerCount: 2
Fore
SplineSet
997 383 m 1,0,1
 940 450 940 450 878 580 c 1,2,-1
 950 580 l 1,3,4
 1077 431 1077 431 1220 358 c 1,5,-1
 1220 322 l 1,6,7
 1077 249 1077 249 950 100 c 1,8,-1
 878 100 l 1,9,10
 940 230 940 230 997 297 c 1,11,-1
 8 297 l 1,12,-1
 8 383 l 1,13,-1
 997 383 l 1,0,1
EndSplineSet
Validated: 1
EndChar

StartChar: arrowdown
Encoding: 8595 8595 314
Width: 1229
GlyphClass: 2
Flags: W
LayerCount: 2
Fore
SplineSet
657 162 m 1,0,1
 724 219 724 219 854 281 c 1,2,-1
 854 209 l 1,3,4
 705 82 705 82 632 -61 c 1,5,-1
 596 -61 l 1,6,7
 523 82 523 82 374 209 c 1,8,-1
 374 281 l 1,9,10
 504 219 504 219 571 162 c 1,11,-1
 571 1151 l 1,12,-1
 657 1151 l 1,13,-1
 657 162 l 1,0,1
EndSplineSet
Validated: 1
EndChar

StartChar: arrowboth
Encoding: 8596 8596 315
Width: 1229
GlyphClass: 2
Flags: W
LayerCount: 2
Fore
SplineSet
231 297 m 1,0,1
 288 230 288 230 350 100 c 1,2,-1
 278 100 l 1,3,4
 151 249 151 249 8 322 c 1,5,-1
 8 358 l 1,6,7
 151 431 151 431 278 580 c 1,8,-1
 350 580 l 1,9,10
 288 450 288 450 231 383 c 1,11,-1
 997 383 l 1,12,13
 940 450 940 450 878 580 c 1,14,-1
 950 580 l 1,15,16
 1077 431 1077 431 1220 358 c 1,17,-1
 1220 322 l 1,18,19
 1077 249 1077 249 950 100 c 1,20,-1
 878 100 l 1,21,22
 940 230 940 230 997 297 c 1,23,-1
 231 297 l 1,0,1
EndSplineSet
Validated: 1
EndChar

StartChar: arrowupdn
Encoding: 8597 8597 316
Width: 1229
GlyphClass: 2
Flags: W
LayerCount: 2
Fore
SplineSet
571 928 m 1,0,1
 504 871 504 871 374 809 c 1,2,-1
 374 881 l 1,3,4
 523 1008 523 1008 596 1151 c 1,5,-1
 632 1151 l 1,6,7
 705 1008 705 1008 854 881 c 1,8,-1
 854 809 l 1,9,10
 724 871 724 871 657 928 c 1,11,-1
 657 162 l 1,12,13
 724 219 724 219 854 281 c 1,14,-1
 854 209 l 1,15,16
 705 82 705 82 632 -61 c 1,17,-1
 596 -61 l 1,18,19
 523 82 523 82 374 209 c 1,20,-1
 374 281 l 1,21,22
 504 219 504 219 571 162 c 1,23,-1
 571 928 l 1,0,1
EndSplineSet
Validated: 1
EndChar

StartChar: arrowupdnbse
Encoding: 8616 8616 317
Width: 1229
GlyphClass: 2
Flags: W
LayerCount: 2
Fore
SplineSet
374 -104 m 1,0,-1
 854 -104 l 1,1,-1
 854 -184 l 1,2,-1
 374 -184 l 1,3,-1
 374 -104 l 1,0,-1
571 928 m 1,4,5
 504 871 504 871 374 809 c 1,6,-1
 374 881 l 1,7,8
 523 1008 523 1008 596 1151 c 1,9,-1
 632 1151 l 1,10,11
 705 1008 705 1008 854 881 c 1,12,-1
 854 809 l 1,13,14
 724 871 724 871 657 928 c 1,15,-1
 657 162 l 1,16,17
 724 219 724 219 854 281 c 1,18,-1
 854 209 l 1,19,20
 705 82 705 82 632 -61 c 1,21,-1
 596 -61 l 1,22,23
 523 82 523 82 374 209 c 1,24,-1
 374 281 l 1,25,26
 504 219 504 219 571 162 c 1,27,-1
 571 928 l 1,4,5
EndSplineSet
Validated: 1
EndChar

StartChar: orthogonal
Encoding: 8735 8735 318
Width: 1229
GlyphClass: 2
Flags: W
LayerCount: 2
Fore
SplineSet
52 1223 m 1,0,-1
 146 1223 l 1,1,-1
 146 94 l 1,2,-1
 1176 94 l 1,3,-1
 1176 0 l 1,4,-1
 52 0 l 1,5,-1
 52 1223 l 1,0,-1
EndSplineSet
Validated: 1
EndChar

StartChar: intersection
Encoding: 8745 8745 319
Width: 1229
GlyphClass: 2
Flags: W
LayerCount: 2
Fore
SplineSet
156 -2 m 1,0,-1
 156 510 l 2,1,2
 156 660 156 660 214 779.5 c 128,-1,3
 272 899 272 899 376.5 965.5 c 128,-1,4
 481 1032 481 1032 611 1032 c 0,5,6
 742 1032 742 1032 847.5 966 c 128,-1,7
 953 900 953 900 1012.5 779 c 128,-1,8
 1072 658 1072 658 1072 510 c 2,9,-1
 1072 -2 l 1,10,-1
 969 -2 l 1,11,-1
 969 512 l 2,12,13
 969 702 969 702 871 816 c 128,-1,14
 773 930 773 930 613 930 c 0,15,16
 451 930 451 930 355 817 c 128,-1,17
 259 704 259 704 259 510 c 2,18,-1
 259 -2 l 1,19,-1
 156 -2 l 1,0,-1
EndSplineSet
Validated: 1
EndChar

StartChar: equivalence
Encoding: 8801 8801 320
Width: 1229
GlyphClass: 2
Flags: W
LayerCount: 2
Fore
SplineSet
116 956 m 5,0,-1
 116 1104 l 5,1,-1
 1111 1104 l 5,2,-1
 1111 956 l 5,3,-1
 116 956 l 5,0,-1
116 244 m 5,4,-1
 116 392 l 5,5,-1
 1111 392 l 5,6,-1
 1111 244 l 5,7,-1
 116 244 l 5,4,-1
116 600 m 5,8,-1
 116 748 l 5,9,-1
 1111 748 l 5,10,-1
 1111 600 l 5,11,-1
 116 600 l 5,8,-1
EndSplineSet
Validated: 1
EndChar

StartChar: house
Encoding: 8962 8962 321
Width: 1229
GlyphClass: 2
Flags: W
LayerCount: 2
Fore
SplineSet
138 0 m 1,0,-1
 138 635 l 1,1,-1
 614 1083 l 1,2,-1
 1090 635 l 1,3,-1
 1090 0 l 1,4,-1
 138 0 l 1,0,-1
221 85 m 1,5,-1
 1007 85 l 1,6,-1
 1007 597 l 1,7,-1
 614 967 l 1,8,-1
 221 597 l 1,9,-1
 221 85 l 1,5,-1
EndSplineSet
Validated: 1
EndChar

StartChar: revlogicalnot
Encoding: 8976 8976 322
Width: 1229
GlyphClass: 2
Flags: W
LayerCount: 2
Fore
SplineSet
262 608 m 1,0,-1
 262 180 l 1,1,-1
 115 180 l 1,2,-1
 116 754 l 1,3,-1
 1111 754 l 1,4,-1
 1111 608 l 1,5,-1
 262 608 l 1,0,-1
EndSplineSet
Validated: 1
EndChar

StartChar: integraltp
Encoding: 8992 8992 323
Width: 1229
GlyphClass: 2
Flags: W
LayerCount: 2
Fore
SplineSet
687 -615 m 1,0,-1
 542 -615 l 1,1,-1
 542 1207 l 2,2,3
 542 1440 542 1440 624 1572.5 c 128,-1,4
 706 1705 706 1705 855 1705 c 0,5,6
 925 1705 925 1705 975.5 1668.5 c 128,-1,7
 1026 1632 1026 1632 1026 1576 c 0,8,9
 1026 1537 1026 1537 1001 1512.5 c 128,-1,10
 976 1488 976 1488 941 1488 c 0,11,12
 902 1488 902 1488 880.5 1506 c 128,-1,13
 859 1524 859 1524 844.5 1545.5 c 128,-1,14
 830 1567 830 1567 816.5 1585 c 128,-1,15
 803 1603 803 1603 781 1603 c 0,16,17
 730 1603 730 1603 708.5 1527.5 c 128,-1,18
 687 1452 687 1452 687 1285 c 2,19,-1
 687 -615 l 1,0,-1
EndSplineSet
Validated: 1
EndChar

StartChar: integralbt
Encoding: 8993 8993 324
Width: 1229
GlyphClass: 2
Flags: W
LayerCount: 2
Fore
SplineSet
542 1705 m 1,0,-1
 687 1705 l 1,1,-1
 687 -117 l 2,2,3
 687 -354 687 -354 604 -484.5 c 128,-1,4
 521 -615 521 -615 374 -615 c 0,5,6
 304 -615 304 -615 253.5 -578.5 c 128,-1,7
 203 -542 203 -542 203 -486 c 0,8,9
 203 -447 203 -447 228 -422.5 c 128,-1,10
 253 -398 253 -398 288 -398 c 0,11,12
 327 -398 327 -398 348.5 -416 c 128,-1,13
 370 -434 370 -434 384.5 -455.5 c 128,-1,14
 399 -477 399 -477 412.5 -495 c 128,-1,15
 426 -513 426 -513 448 -513 c 0,16,17
 499 -513 499 -513 520.5 -437.5 c 128,-1,18
 542 -362 542 -362 542 -195 c 2,19,-1
 542 1705 l 1,0,-1
EndSplineSet
Validated: 1
EndChar

StartChar: uni2500
Encoding: 9472 9472 325
Width: 1229
GlyphClass: 2
Flags: W
LayerCount: 2
Fore
SplineSet
-10 555 m 1,0,-1
 -10 700 l 1,1,-1
 1239 700 l 1,2,-1
 1239 555 l 1,3,-1
 -10 555 l 1,0,-1
EndSplineSet
Validated: 1
EndChar

StartChar: uni2502
Encoding: 9474 9474 326
Width: 1229
GlyphClass: 2
Flags: W
LayerCount: 2
Fore
SplineSet
542 1705 m 1,0,-1
 687 1705 l 1,1,-1
 687 -615 l 1,2,-1
 542 -615 l 1,3,-1
 542 1705 l 1,0,-1
EndSplineSet
Validated: 1
EndChar

StartChar: uni250C
Encoding: 9484 9484 327
Width: 1229
GlyphClass: 2
Flags: W
LayerCount: 2
Fore
SplineSet
542 700 m 1,0,-1
 1239 700 l 1,1,-1
 1239 555 l 1,2,-1
 687 555 l 1,3,-1
 687 -615 l 1,4,-1
 542 -615 l 1,5,-1
 542 700 l 1,0,-1
EndSplineSet
Validated: 1
EndChar

StartChar: uni2510
Encoding: 9488 9488 328
Width: 1229
GlyphClass: 2
Flags: W
LayerCount: 2
Fore
SplineSet
-10 555 m 1,0,-1
 -10 700 l 1,1,-1
 687 700 l 1,2,-1
 687 -615 l 1,3,-1
 542 -615 l 1,4,-1
 542 555 l 1,5,-1
 -10 555 l 1,0,-1
EndSplineSet
Validated: 1
EndChar

StartChar: uni2514
Encoding: 9492 9492 329
Width: 1229
GlyphClass: 2
Flags: W
LayerCount: 2
Fore
SplineSet
542 1705 m 1,0,-1
 687 1705 l 1,1,-1
 687 700 l 1,2,-1
 1239 700 l 1,3,-1
 1239 555 l 1,4,-1
 542 555 l 1,5,-1
 542 1705 l 1,0,-1
EndSplineSet
Validated: 1
EndChar

StartChar: uni2518
Encoding: 9496 9496 330
Width: 1229
GlyphClass: 2
Flags: W
LayerCount: 2
Fore
SplineSet
-10 555 m 1,0,-1
 -10 700 l 1,1,-1
 542 700 l 1,2,-1
 542 1705 l 1,3,-1
 687 1705 l 1,4,-1
 687 555 l 1,5,-1
 -10 555 l 1,0,-1
EndSplineSet
Validated: 1
EndChar

StartChar: uni251C
Encoding: 9500 9500 331
Width: 1229
GlyphClass: 2
Flags: W
LayerCount: 2
Fore
SplineSet
542 1705 m 1,0,-1
 687 1705 l 1,1,-1
 687 700 l 1,2,-1
 1239 700 l 1,3,-1
 1239 555 l 1,4,-1
 687 555 l 1,5,-1
 687 -615 l 1,6,-1
 542 -615 l 1,7,-1
 542 1705 l 1,0,-1
EndSplineSet
Validated: 1
EndChar

StartChar: uni2524
Encoding: 9508 9508 332
Width: 1229
GlyphClass: 2
Flags: W
LayerCount: 2
Fore
SplineSet
-10 555 m 1,0,-1
 -10 700 l 1,1,-1
 542 700 l 1,2,-1
 542 1705 l 1,3,-1
 687 1705 l 1,4,-1
 687 -615 l 1,5,-1
 542 -615 l 1,6,-1
 542 555 l 1,7,-1
 -10 555 l 1,0,-1
EndSplineSet
Validated: 1
EndChar

StartChar: uni252C
Encoding: 9516 9516 333
Width: 1229
GlyphClass: 2
Flags: W
LayerCount: 2
Fore
SplineSet
-10 555 m 1,0,-1
 -10 700 l 1,1,-1
 1239 700 l 1,2,-1
 1239 555 l 1,3,-1
 687 555 l 1,4,-1
 687 -615 l 1,5,-1
 542 -615 l 1,6,-1
 542 555 l 1,7,-1
 -10 555 l 1,0,-1
EndSplineSet
Validated: 1
EndChar

StartChar: uni2534
Encoding: 9524 9524 334
Width: 1229
GlyphClass: 2
Flags: W
LayerCount: 2
Fore
SplineSet
-10 555 m 1,0,-1
 -10 700 l 1,1,-1
 542 700 l 1,2,-1
 542 1705 l 1,3,-1
 687 1705 l 1,4,-1
 687 700 l 1,5,-1
 1239 700 l 1,6,-1
 1239 555 l 1,7,-1
 -10 555 l 1,0,-1
EndSplineSet
Validated: 1
EndChar

StartChar: uni253C
Encoding: 9532 9532 335
Width: 1229
GlyphClass: 2
Flags: W
LayerCount: 2
Fore
SplineSet
-10 555 m 1,0,-1
 -10 700 l 1,1,-1
 542 700 l 1,2,-1
 542 1705 l 1,3,-1
 687 1705 l 1,4,-1
 687 700 l 1,5,-1
 1239 700 l 1,6,-1
 1239 555 l 1,7,-1
 687 555 l 1,8,-1
 687 -615 l 1,9,-1
 542 -615 l 1,10,-1
 542 555 l 1,11,-1
 -10 555 l 1,0,-1
EndSplineSet
Validated: 1
EndChar

StartChar: uni2550
Encoding: 9552 9552 336
Width: 1229
GlyphClass: 2
Flags: W
LayerCount: 2
Fore
SplineSet
-10 735 m 1,0,-1
 -10 880 l 1,1,-1
 1239 880 l 1,2,-1
 1239 735 l 1,3,-1
 -10 735 l 1,0,-1
-10 375 m 1,4,-1
 -10 520 l 1,5,-1
 1239 520 l 1,6,-1
 1239 375 l 1,7,-1
 -10 375 l 1,4,-1
EndSplineSet
Validated: 1
EndChar

StartChar: uni2551
Encoding: 9553 9553 337
Width: 1229
GlyphClass: 2
Flags: W
LayerCount: 2
Fore
SplineSet
362 1705 m 1,0,-1
 507 1705 l 1,1,-1
 507 -615 l 1,2,-1
 362 -615 l 1,3,-1
 362 1705 l 1,0,-1
722 1705 m 1,4,-1
 867 1705 l 1,5,-1
 867 -615 l 1,6,-1
 722 -615 l 1,7,-1
 722 1705 l 1,4,-1
EndSplineSet
Validated: 1
EndChar

StartChar: uni2552
Encoding: 9554 9554 338
Width: 1229
GlyphClass: 2
Flags: W
LayerCount: 2
Fore
SplineSet
542 880 m 1,0,-1
 1239 880 l 1,1,-1
 1239 735 l 1,2,-1
 687 735 l 1,3,-1
 687 520 l 1,4,-1
 1239 520 l 1,5,-1
 1239 375 l 1,6,-1
 687 375 l 1,7,-1
 687 -615 l 1,8,-1
 542 -615 l 1,9,-1
 542 880 l 1,0,-1
EndSplineSet
Validated: 1
EndChar

StartChar: uni2553
Encoding: 9555 9555 339
Width: 1229
GlyphClass: 2
Flags: W
LayerCount: 2
Fore
SplineSet
1239 700 m 1,0,-1
 1239 555 l 1,1,-1
 867 555 l 1,2,-1
 867 -615 l 1,3,-1
 722 -615 l 1,4,-1
 722 555 l 1,5,-1
 507 555 l 1,6,-1
 507 -615 l 1,7,-1
 362 -615 l 1,8,-1
 362 700 l 1,9,-1
 1239 700 l 1,0,-1
EndSplineSet
Validated: 1
EndChar

StartChar: uni2554
Encoding: 9556 9556 340
Width: 1229
GlyphClass: 2
Flags: W
LayerCount: 2
Fore
SplineSet
362 880 m 1,0,-1
 1239 880 l 1,1,-1
 1239 735 l 1,2,-1
 507 735 l 1,3,-1
 507 -615 l 1,4,-1
 362 -615 l 1,5,-1
 362 880 l 1,0,-1
722 520 m 1,6,-1
 1239 520 l 1,7,-1
 1239 375 l 1,8,-1
 867 375 l 1,9,-1
 867 -615 l 1,10,-1
 722 -615 l 1,11,-1
 722 520 l 1,6,-1
EndSplineSet
Validated: 1
EndChar

StartChar: uni2555
Encoding: 9557 9557 341
Width: 1229
GlyphClass: 2
Flags: W
LayerCount: 2
Fore
SplineSet
-10 375 m 1,0,-1
 -10 520 l 1,1,-1
 542 520 l 1,2,-1
 542 735 l 1,3,-1
 -10 735 l 1,4,-1
 -10 880 l 1,5,-1
 687 880 l 1,6,-1
 687 -615 l 1,7,-1
 542 -615 l 1,8,-1
 542 375 l 1,9,-1
 -10 375 l 1,0,-1
EndSplineSet
Validated: 1
EndChar

StartChar: uni2556
Encoding: 9558 9558 342
Width: 1229
GlyphClass: 2
Flags: W
LayerCount: 2
Fore
SplineSet
-10 555 m 1,0,-1
 -10 700 l 1,1,-1
 867 700 l 1,2,-1
 867 -615 l 1,3,-1
 722 -615 l 1,4,-1
 722 555 l 1,5,-1
 507 555 l 1,6,-1
 507 -615 l 1,7,-1
 362 -615 l 1,8,-1
 362 555 l 1,9,-1
 -10 555 l 1,0,-1
EndSplineSet
Validated: 1
EndChar

StartChar: uni2557
Encoding: 9559 9559 343
Width: 1229
GlyphClass: 2
Flags: W
LayerCount: 2
Fore
SplineSet
867 880 m 1,0,-1
 867 -615 l 1,1,-1
 722 -615 l 1,2,-1
 722 735 l 1,3,-1
 -10 735 l 1,4,-1
 -10 880 l 1,5,-1
 867 880 l 1,0,-1
507 -615 m 1,6,-1
 362 -615 l 1,7,-1
 362 375 l 1,8,-1
 -10 375 l 1,9,-1
 -10 520 l 1,10,-1
 507 520 l 1,11,-1
 507 -615 l 1,6,-1
EndSplineSet
Validated: 1
EndChar

StartChar: uni2558
Encoding: 9560 9560 344
Width: 1229
GlyphClass: 2
Flags: W
LayerCount: 2
Fore
SplineSet
542 1705 m 1,0,-1
 687 1705 l 1,1,-1
 687 880 l 1,2,-1
 1239 880 l 1,3,-1
 1239 735 l 1,4,-1
 687 735 l 1,5,-1
 687 520 l 1,6,-1
 1239 520 l 1,7,-1
 1239 375 l 1,8,-1
 542 375 l 1,9,-1
 542 1705 l 1,0,-1
EndSplineSet
Validated: 1
EndChar

StartChar: uni2559
Encoding: 9561 9561 345
Width: 1229
GlyphClass: 2
Flags: W
LayerCount: 2
Fore
SplineSet
722 1705 m 1,0,-1
 867 1705 l 1,1,-1
 867 700 l 1,2,-1
 1239 700 l 1,3,-1
 1239 555 l 1,4,-1
 362 555 l 1,5,-1
 362 1705 l 1,6,-1
 507 1705 l 1,7,-1
 507 700 l 1,8,-1
 722 700 l 1,9,-1
 722 1705 l 1,0,-1
EndSplineSet
Validated: 1
EndChar

StartChar: uni255A
Encoding: 9562 9562 346
Width: 1229
GlyphClass: 2
Flags: W
LayerCount: 2
Fore
SplineSet
362 1705 m 1,0,-1
 507 1705 l 1,1,-1
 507 520 l 1,2,-1
 1239 520 l 1,3,-1
 1239 375 l 1,4,-1
 362 375 l 1,5,-1
 362 1705 l 1,0,-1
722 1705 m 1,6,-1
 867 1705 l 1,7,-1
 867 880 l 1,8,-1
 1239 880 l 1,9,-1
 1239 735 l 1,10,-1
 722 735 l 1,11,-1
 722 1705 l 1,6,-1
EndSplineSet
Validated: 1
EndChar

StartChar: uni255B
Encoding: 9563 9563 347
Width: 1229
GlyphClass: 2
Flags: W
LayerCount: 2
Fore
SplineSet
-10 375 m 1,0,-1
 -10 520 l 1,1,-1
 542 520 l 1,2,-1
 542 735 l 1,3,-1
 -10 735 l 1,4,-1
 -10 880 l 1,5,-1
 542 880 l 1,6,-1
 542 1705 l 1,7,-1
 687 1705 l 1,8,-1
 687 375 l 1,9,-1
 -10 375 l 1,0,-1
EndSplineSet
Validated: 1
EndChar

StartChar: uni255C
Encoding: 9564 9564 348
Width: 1229
GlyphClass: 2
Flags: W
LayerCount: 2
Fore
SplineSet
867 555 m 1,0,-1
 -10 555 l 1,1,-1
 -10 700 l 1,2,-1
 362 700 l 1,3,-1
 362 1705 l 1,4,-1
 507 1705 l 1,5,-1
 507 700 l 1,6,-1
 722 700 l 1,7,-1
 722 1705 l 1,8,-1
 867 1705 l 1,9,-1
 867 555 l 1,0,-1
EndSplineSet
Validated: 1
EndChar

StartChar: uni255D
Encoding: 9565 9565 349
Width: 1229
GlyphClass: 2
Flags: W
LayerCount: 2
Fore
SplineSet
867 375 m 1,0,-1
 -10 375 l 1,1,-1
 -10 520 l 1,2,-1
 722 520 l 1,3,-1
 722 1705 l 1,4,-1
 867 1705 l 1,5,-1
 867 375 l 1,0,-1
362 1705 m 1,6,-1
 507 1705 l 1,7,-1
 507 735 l 1,8,-1
 -10 735 l 1,9,-1
 -10 880 l 1,10,-1
 362 880 l 1,11,-1
 362 1705 l 1,6,-1
EndSplineSet
Validated: 1
EndChar

StartChar: uni255E
Encoding: 9566 9566 350
Width: 1229
GlyphClass: 2
Flags: W
LayerCount: 2
Fore
SplineSet
542 1705 m 1,0,-1
 687 1705 l 1,1,-1
 687 880 l 1,2,-1
 1239 880 l 1,3,-1
 1239 735 l 1,4,-1
 687 735 l 1,5,-1
 687 520 l 1,6,-1
 1239 520 l 1,7,-1
 1239 375 l 1,8,-1
 687 375 l 1,9,-1
 687 -615 l 1,10,-1
 542 -615 l 1,11,-1
 542 1705 l 1,0,-1
EndSplineSet
Validated: 1
EndChar

StartChar: uni255F
Encoding: 9567 9567 351
Width: 1229
GlyphClass: 2
Flags: W
LayerCount: 2
Fore
SplineSet
722 1705 m 1,0,-1
 867 1705 l 1,1,-1
 867 700 l 1,2,-1
 1239 700 l 1,3,-1
 1239 555 l 1,4,-1
 867 555 l 1,5,-1
 867 -615 l 1,6,-1
 722 -615 l 1,7,-1
 722 1705 l 1,0,-1
362 1705 m 1,8,-1
 507 1705 l 1,9,-1
 507 -615 l 1,10,-1
 362 -615 l 1,11,-1
 362 1705 l 1,8,-1
EndSplineSet
Validated: 1
EndChar

StartChar: uni2560
Encoding: 9568 9568 352
Width: 1229
GlyphClass: 2
Flags: W
LayerCount: 2
Fore
SplineSet
507 -615 m 1,0,-1
 362 -615 l 1,1,-1
 362 1705 l 1,2,-1
 507 1705 l 1,3,-1
 507 -615 l 1,0,-1
722 520 m 1,4,-1
 1239 520 l 1,5,-1
 1239 375 l 1,6,-1
 867 375 l 1,7,-1
 867 -615 l 1,8,-1
 722 -615 l 1,9,-1
 722 520 l 1,4,-1
722 1705 m 1,10,-1
 867 1705 l 1,11,-1
 867 880 l 1,12,-1
 1239 880 l 1,13,-1
 1239 735 l 1,14,-1
 722 735 l 1,15,-1
 722 1705 l 1,10,-1
EndSplineSet
Validated: 1
EndChar

StartChar: uni2561
Encoding: 9569 9569 353
Width: 1229
GlyphClass: 2
Flags: W
LayerCount: 2
Fore
SplineSet
-10 375 m 1,0,-1
 -10 520 l 1,1,-1
 542 520 l 1,2,-1
 542 735 l 1,3,-1
 -10 735 l 1,4,-1
 -10 880 l 1,5,-1
 542 880 l 1,6,-1
 542 1705 l 1,7,-1
 687 1705 l 1,8,-1
 687 -615 l 1,9,-1
 542 -615 l 1,10,-1
 542 375 l 1,11,-1
 -10 375 l 1,0,-1
EndSplineSet
Validated: 1
EndChar

StartChar: uni2562
Encoding: 9570 9570 354
Width: 1229
GlyphClass: 2
Flags: W
LayerCount: 2
Fore
SplineSet
-10 555 m 1,0,-1
 -10 700 l 1,1,-1
 362 700 l 1,2,-1
 362 1705 l 1,3,-1
 507 1705 l 1,4,-1
 507 -615 l 1,5,-1
 362 -615 l 1,6,-1
 362 555 l 1,7,-1
 -10 555 l 1,0,-1
722 1705 m 1,8,-1
 867 1705 l 1,9,-1
 867 -615 l 1,10,-1
 722 -615 l 1,11,-1
 722 1705 l 1,8,-1
EndSplineSet
Validated: 1
EndChar

StartChar: uni2563
Encoding: 9571 9571 355
Width: 1229
GlyphClass: 2
Flags: W
LayerCount: 2
Fore
SplineSet
722 1705 m 1,0,-1
 867 1705 l 1,1,-1
 867 -615 l 1,2,-1
 722 -615 l 1,3,-1
 722 1705 l 1,0,-1
362 1705 m 1,4,-1
 507 1705 l 1,5,-1
 507 735 l 1,6,-1
 -10 735 l 1,7,-1
 -10 880 l 1,8,-1
 362 880 l 1,9,-1
 362 1705 l 1,4,-1
507 -615 m 1,10,-1
 362 -615 l 1,11,-1
 362 375 l 1,12,-1
 -10 375 l 1,13,-1
 -10 520 l 1,14,-1
 507 520 l 1,15,-1
 507 -615 l 1,10,-1
EndSplineSet
Validated: 1
EndChar

StartChar: uni2564
Encoding: 9572 9572 356
Width: 1229
GlyphClass: 2
Flags: W
LayerCount: 2
Fore
SplineSet
-10 375 m 1,0,-1
 -10 520 l 1,1,-1
 1239 520 l 1,2,-1
 1239 375 l 1,3,-1
 687 375 l 1,4,-1
 687 -615 l 1,5,-1
 542 -615 l 1,6,-1
 542 375 l 1,7,-1
 -10 375 l 1,0,-1
-10 735 m 1,8,-1
 -10 880 l 1,9,-1
 1239 880 l 1,10,-1
 1239 735 l 1,11,-1
 -10 735 l 1,8,-1
EndSplineSet
Validated: 1
EndChar

StartChar: uni2565
Encoding: 9573 9573 357
Width: 1229
GlyphClass: 2
Flags: W
LayerCount: 2
Fore
SplineSet
-10 555 m 1,0,-1
 -10 700 l 1,1,-1
 1239 700 l 1,2,-1
 1239 555 l 1,3,-1
 867 555 l 1,4,-1
 867 -615 l 1,5,-1
 722 -615 l 1,6,-1
 722 555 l 1,7,-1
 507 555 l 1,8,-1
 507 -615 l 1,9,-1
 362 -615 l 1,10,-1
 362 555 l 1,11,-1
 -10 555 l 1,0,-1
EndSplineSet
Validated: 1
EndChar

StartChar: uni2566
Encoding: 9574 9574 358
Width: 1229
GlyphClass: 2
Flags: W
LayerCount: 2
Fore
SplineSet
507 -615 m 1,0,-1
 362 -615 l 1,1,-1
 362 375 l 1,2,-1
 -10 375 l 1,3,-1
 -10 520 l 1,4,-1
 507 520 l 1,5,-1
 507 -615 l 1,0,-1
722 520 m 1,6,-1
 1239 520 l 1,7,-1
 1239 375 l 1,8,-1
 867 375 l 1,9,-1
 867 -615 l 1,10,-1
 722 -615 l 1,11,-1
 722 520 l 1,6,-1
1239 880 m 1,12,-1
 1239 735 l 1,13,-1
 -10 735 l 1,14,-1
 -10 880 l 1,15,-1
 1239 880 l 1,12,-1
EndSplineSet
Validated: 1
EndChar

StartChar: uni2567
Encoding: 9575 9575 359
Width: 1229
GlyphClass: 2
Flags: W
LayerCount: 2
Fore
SplineSet
-10 735 m 1,0,-1
 -10 880 l 1,1,-1
 542 880 l 1,2,-1
 542 1705 l 1,3,-1
 687 1705 l 1,4,-1
 687 880 l 1,5,-1
 1239 880 l 1,6,-1
 1239 735 l 1,7,-1
 -10 735 l 1,0,-1
-10 375 m 1,8,-1
 -10 520 l 1,9,-1
 1239 520 l 1,10,-1
 1239 375 l 1,11,-1
 -10 375 l 1,8,-1
EndSplineSet
Validated: 1
EndChar

StartChar: uni2568
Encoding: 9576 9576 360
Width: 1229
GlyphClass: 2
Flags: W
LayerCount: 2
Fore
SplineSet
-10 555 m 1,0,-1
 -10 700 l 1,1,-1
 362 700 l 1,2,-1
 362 1705 l 1,3,-1
 507 1705 l 1,4,-1
 507 700 l 1,5,-1
 722 700 l 1,6,-1
 722 1705 l 1,7,-1
 867 1705 l 1,8,-1
 867 700 l 1,9,-1
 1239 700 l 1,10,-1
 1239 555 l 1,11,-1
 -10 555 l 1,0,-1
EndSplineSet
Validated: 1
EndChar

StartChar: uni2569
Encoding: 9577 9577 361
Width: 1229
GlyphClass: 2
Flags: W
LayerCount: 2
Fore
SplineSet
722 1705 m 1,0,-1
 867 1705 l 1,1,-1
 867 880 l 1,2,-1
 1239 880 l 1,3,-1
 1239 735 l 1,4,-1
 722 735 l 1,5,-1
 722 1705 l 1,0,-1
362 1705 m 1,6,-1
 507 1705 l 1,7,-1
 507 735 l 1,8,-1
 -10 735 l 1,9,-1
 -10 880 l 1,10,-1
 362 880 l 1,11,-1
 362 1705 l 1,6,-1
-10 375 m 1,12,-1
 -10 520 l 1,13,-1
 1239 520 l 1,14,-1
 1239 375 l 1,15,-1
 -10 375 l 1,12,-1
EndSplineSet
Validated: 1
EndChar

StartChar: uni256A
Encoding: 9578 9578 362
Width: 1229
GlyphClass: 2
Flags: W
LayerCount: 2
Fore
SplineSet
-10 375 m 1,0,-1
 -10 520 l 1,1,-1
 542 520 l 1,2,-1
 542 735 l 1,3,-1
 -10 735 l 1,4,-1
 -10 880 l 1,5,-1
 542 880 l 1,6,-1
 542 1705 l 1,7,-1
 687 1705 l 1,8,-1
 687 880 l 1,9,-1
 1239 880 l 1,10,-1
 1239 735 l 1,11,-1
 687 735 l 1,12,-1
 687 520 l 1,13,-1
 1239 520 l 1,14,-1
 1239 375 l 1,15,-1
 687 375 l 1,16,-1
 687 -615 l 1,17,-1
 542 -615 l 1,18,-1
 542 375 l 1,19,-1
 -10 375 l 1,0,-1
EndSplineSet
Validated: 1
EndChar

StartChar: uni256B
Encoding: 9579 9579 363
Width: 1229
GlyphClass: 2
Flags: W
LayerCount: 2
Fore
SplineSet
722 1705 m 1,0,-1
 867 1705 l 1,1,-1
 867 700 l 1,2,-1
 1239 700 l 1,3,-1
 1239 555 l 1,4,-1
 867 555 l 1,5,-1
 867 -615 l 1,6,-1
 722 -615 l 1,7,-1
 722 555 l 1,8,-1
 507 555 l 1,9,-1
 507 -615 l 1,10,-1
 362 -615 l 1,11,-1
 362 555 l 1,12,-1
 -10 555 l 1,13,-1
 -10 700 l 1,14,-1
 362 700 l 1,15,-1
 362 1705 l 1,16,-1
 507 1705 l 1,17,-1
 507 700 l 1,18,-1
 722 700 l 1,19,-1
 722 1705 l 1,0,-1
EndSplineSet
Validated: 1
EndChar

StartChar: uni256C
Encoding: 9580 9580 364
Width: 1229
GlyphClass: 2
Flags: W
LayerCount: 2
Fore
SplineSet
722 1705 m 1,0,-1
 867 1705 l 1,1,-1
 867 880 l 1,2,-1
 1239 880 l 1,3,-1
 1239 735 l 1,4,-1
 722 735 l 1,5,-1
 722 1705 l 1,0,-1
507 -615 m 1,6,-1
 362 -615 l 1,7,-1
 362 375 l 1,8,-1
 -10 375 l 1,9,-1
 -10 520 l 1,10,-1
 507 520 l 1,11,-1
 507 -615 l 1,6,-1
722 520 m 1,12,-1
 1239 520 l 1,13,-1
 1239 375 l 1,14,-1
 867 375 l 1,15,-1
 867 -615 l 1,16,-1
 722 -615 l 1,17,-1
 722 520 l 1,12,-1
362 1705 m 1,18,-1
 507 1705 l 1,19,-1
 507 735 l 1,20,-1
 -10 735 l 1,21,-1
 -10 880 l 1,22,-1
 362 880 l 1,23,-1
 362 1705 l 1,18,-1
EndSplineSet
Validated: 1
EndChar

StartChar: upblock
Encoding: 9600 9600 365
Width: 1229
GlyphClass: 2
Flags: W
LayerCount: 2
Fore
SplineSet
1229 627 m 1,0,-1
 0 627 l 1,1,-1
 0 1705 l 1,2,-1
 1229 1705 l 1,3,-1
 1229 627 l 1,0,-1
EndSplineSet
Validated: 1
EndChar

StartChar: dnblock
Encoding: 9604 9604 366
Width: 1229
GlyphClass: 2
Flags: W
LayerCount: 2
Fore
SplineSet
1229 -615 m 1,0,-1
 0 -615 l 1,1,-1
 0 627 l 1,2,-1
 1229 627 l 1,3,-1
 1229 -615 l 1,0,-1
EndSplineSet
Validated: 1
EndChar

StartChar: block
Encoding: 9608 9608 367
Width: 1229
GlyphClass: 2
Flags: W
LayerCount: 2
Fore
SplineSet
1229 -615 m 1,0,-1
 0 -615 l 1,1,-1
 0 1705 l 1,2,-1
 1229 1705 l 1,3,-1
 1229 -615 l 1,0,-1
EndSplineSet
Validated: 1
EndChar

StartChar: lfblock
Encoding: 9612 9612 368
Width: 1229
GlyphClass: 2
Flags: W
LayerCount: 2
Fore
SplineSet
615 -615 m 1,0,-1
 0 -615 l 1,1,-1
 0 1705 l 1,2,-1
 615 1705 l 1,3,-1
 615 -615 l 1,0,-1
EndSplineSet
Validated: 1
EndChar

StartChar: rtblock
Encoding: 9616 9616 369
Width: 1229
GlyphClass: 2
Flags: W
LayerCount: 2
Fore
SplineSet
1229 -615 m 1,0,-1
 614 -615 l 1,1,-1
 614 1705 l 1,2,-1
 1229 1705 l 1,3,-1
 1229 -615 l 1,0,-1
EndSplineSet
Validated: 1
EndChar

StartChar: ltshade
Encoding: 9617 9617 370
Width: 1229
GlyphClass: 2
Flags: W
LayerCount: 2
Fore
SplineSet
0 1320 m 1,0,-1
 103 1320 l 1,1,-1
 103 1222 l 1,2,-1
 0 1222 l 1,3,-1
 0 1320 l 1,0,-1
410 1320 m 1,4,-1
 513 1320 l 1,5,-1
 513 1222 l 1,6,-1
 410 1222 l 1,7,-1
 410 1320 l 1,4,-1
820 1320 m 1,8,-1
 923 1320 l 1,9,-1
 923 1222 l 1,10,-1
 820 1222 l 1,11,-1
 820 1320 l 1,8,-1
205 1125 m 1,12,-1
 307 1125 l 1,13,-1
 307 1029 l 1,14,-1
 205 1029 l 1,15,-1
 205 1125 l 1,12,-1
615 1125 m 1,16,-1
 717 1125 l 1,17,-1
 717 1029 l 1,18,-1
 615 1029 l 1,19,-1
 615 1125 l 1,16,-1
1025 1125 m 1,20,-1
 1127 1125 l 1,21,-1
 1127 1029 l 1,22,-1
 1025 1029 l 1,23,-1
 1025 1125 l 1,20,-1
0 933 m 1,24,-1
 103 933 l 1,25,-1
 103 837 l 1,26,-1
 0 837 l 1,27,-1
 0 933 l 1,24,-1
410 933 m 1,28,-1
 513 933 l 1,29,-1
 513 837 l 1,30,-1
 410 837 l 1,31,-1
 410 933 l 1,28,-1
820 933 m 1,32,-1
 923 933 l 1,33,-1
 923 837 l 1,34,-1
 820 837 l 1,35,-1
 820 933 l 1,32,-1
205 738 m 1,36,-1
 307 738 l 1,37,-1
 307 642 l 1,38,-1
 205 642 l 1,39,-1
 205 738 l 1,36,-1
615 738 m 1,40,-1
 717 738 l 1,41,-1
 717 642 l 1,42,-1
 615 642 l 1,43,-1
 615 738 l 1,40,-1
1025 738 m 1,44,-1
 1127 738 l 1,45,-1
 1127 642 l 1,46,-1
 1025 642 l 1,47,-1
 1025 738 l 1,44,-1
0 546 m 1,48,-1
 103 546 l 1,49,-1
 103 450 l 1,50,-1
 0 450 l 1,51,-1
 0 546 l 1,48,-1
410 546 m 1,52,-1
 513 546 l 1,53,-1
 513 450 l 1,54,-1
 410 450 l 1,55,-1
 410 546 l 1,52,-1
820 546 m 1,56,-1
 923 546 l 1,57,-1
 923 450 l 1,58,-1
 820 450 l 1,59,-1
 820 546 l 1,56,-1
615 351 m 1,60,-1
 717 351 l 1,61,-1
 717 255 l 1,62,-1
 615 255 l 1,63,-1
 615 351 l 1,60,-1
1025 351 m 1,64,-1
 1127 351 l 1,65,-1
 1127 255 l 1,66,-1
 1025 255 l 1,67,-1
 1025 351 l 1,64,-1
205 351 m 1,68,-1
 307 351 l 1,69,-1
 307 255 l 1,70,-1
 205 255 l 1,71,-1
 205 351 l 1,68,-1
820 159 m 1,72,-1
 923 159 l 1,73,-1
 923 62 l 1,74,-1
 820 62 l 1,75,-1
 820 159 l 1,72,-1
410 159 m 1,76,-1
 513 159 l 1,77,-1
 513 62 l 1,78,-1
 410 62 l 1,79,-1
 410 159 l 1,76,-1
0 159 m 1,80,-1
 103 159 l 1,81,-1
 103 62 l 1,82,-1
 0 62 l 1,83,-1
 0 159 l 1,80,-1
205 -36 m 1,84,-1
 307 -36 l 1,85,-1
 307 -130 l 1,86,-1
 205 -130 l 1,87,-1
 205 -36 l 1,84,-1
615 -36 m 1,88,-1
 717 -36 l 1,89,-1
 717 -130 l 1,90,-1
 615 -130 l 1,91,-1
 615 -36 l 1,88,-1
1025 -36 m 1,92,-1
 1127 -36 l 1,93,-1
 1127 -130 l 1,94,-1
 1025 -130 l 1,95,-1
 1025 -36 l 1,92,-1
820 -228 m 1,96,-1
 923 -228 l 1,97,-1
 923 -325 l 1,98,-1
 820 -325 l 1,99,-1
 820 -228 l 1,96,-1
410 -228 m 1,100,-1
 513 -228 l 1,101,-1
 513 -325 l 1,102,-1
 410 -325 l 1,103,-1
 410 -228 l 1,100,-1
0 -228 m 1,104,-1
 103 -228 l 1,105,-1
 103 -325 l 1,106,-1
 0 -325 l 1,107,-1
 0 -228 l 1,104,-1
205 -421 m 1,108,-1
 307 -421 l 1,109,-1
 307 -517 l 1,110,-1
 205 -517 l 1,111,-1
 205 -421 l 1,108,-1
615 -421 m 1,112,-1
 717 -421 l 1,113,-1
 717 -517 l 1,114,-1
 615 -517 l 1,115,-1
 615 -421 l 1,112,-1
1025 -421 m 1,116,-1
 1127 -421 l 1,117,-1
 1127 -517 l 1,118,-1
 1025 -517 l 1,119,-1
 1025 -421 l 1,116,-1
205 1512 m 1,120,-1
 307 1512 l 1,121,-1
 307 1414 l 1,122,-1
 205 1414 l 1,123,-1
 205 1512 l 1,120,-1
615 1512 m 1,124,-1
 717 1512 l 1,125,-1
 717 1414 l 1,126,-1
 615 1414 l 1,127,-1
 615 1512 l 1,124,-1
1025 1512 m 1,128,-1
 1127 1512 l 1,129,-1
 1127 1414 l 1,130,-1
 1025 1414 l 1,131,-1
 1025 1512 l 1,128,-1
0 1705 m 1,132,-1
 103 1705 l 1,133,-1
 103 1609 l 1,134,-1
 0 1609 l 1,135,-1
 0 1705 l 1,132,-1
410 1705 m 1,136,-1
 513 1705 l 1,137,-1
 513 1609 l 1,138,-1
 410 1609 l 1,139,-1
 410 1705 l 1,136,-1
820 1705 m 1,140,-1
 923 1705 l 1,141,-1
 923 1609 l 1,142,-1
 820 1609 l 1,143,-1
 820 1705 l 1,140,-1
EndSplineSet
Validated: 1
EndChar

StartChar: shade
Encoding: 9618 9618 371
Width: 1229
GlyphClass: 2
Flags: W
LayerCount: 2
Fore
SplineSet
102 1320 m 1,0,-1
 205 1320 l 1,1,-1
 205 1222 l 1,2,-1
 102 1222 l 1,3,-1
 102 1320 l 1,0,-1
307 1320 m 1,4,-1
 410 1320 l 1,5,-1
 410 1222 l 1,6,-1
 307 1222 l 1,7,-1
 307 1320 l 1,4,-1
512 1320 m 1,8,-1
 615 1320 l 1,9,-1
 615 1222 l 1,10,-1
 512 1222 l 1,11,-1
 512 1320 l 1,8,-1
717 1320 m 1,12,-1
 820 1320 l 1,13,-1
 820 1222 l 1,14,-1
 717 1222 l 1,15,-1
 717 1320 l 1,12,-1
922 1320 m 1,16,-1
 1025 1320 l 1,17,-1
 1025 1222 l 1,18,-1
 922 1222 l 1,19,-1
 922 1320 l 1,16,-1
1127 1320 m 1,20,-1
 1230 1320 l 1,21,-1
 1230 1222 l 1,22,-1
 1127 1222 l 1,23,-1
 1127 1320 l 1,20,-1
0 1125 m 1,24,-1
 102 1125 l 1,25,-1
 102 1029 l 1,26,-1
 0 1029 l 1,27,-1
 0 1125 l 1,24,-1
205 1125 m 1,28,-1
 307 1125 l 1,29,-1
 307 1029 l 1,30,-1
 205 1029 l 1,31,-1
 205 1125 l 1,28,-1
410 1125 m 1,32,-1
 512 1125 l 1,33,-1
 512 1029 l 1,34,-1
 410 1029 l 1,35,-1
 410 1125 l 1,32,-1
615 1125 m 1,36,-1
 717 1125 l 1,37,-1
 717 1029 l 1,38,-1
 615 1029 l 1,39,-1
 615 1125 l 1,36,-1
820 1125 m 1,40,-1
 922 1125 l 1,41,-1
 922 1029 l 1,42,-1
 820 1029 l 1,43,-1
 820 1125 l 1,40,-1
1025 1125 m 1,44,-1
 1127 1125 l 1,45,-1
 1127 1029 l 1,46,-1
 1025 1029 l 1,47,-1
 1025 1125 l 1,44,-1
102 933 m 1,48,-1
 205 933 l 1,49,-1
 205 837 l 1,50,-1
 102 837 l 1,51,-1
 102 933 l 1,48,-1
307 933 m 1,52,-1
 410 933 l 1,53,-1
 410 837 l 1,54,-1
 307 837 l 1,55,-1
 307 933 l 1,52,-1
512 933 m 1,56,-1
 615 933 l 1,57,-1
 615 837 l 1,58,-1
 512 837 l 1,59,-1
 512 933 l 1,56,-1
717 933 m 1,60,-1
 820 933 l 1,61,-1
 820 837 l 1,62,-1
 717 837 l 1,63,-1
 717 933 l 1,60,-1
922 933 m 1,64,-1
 1025 933 l 1,65,-1
 1025 837 l 1,66,-1
 922 837 l 1,67,-1
 922 933 l 1,64,-1
1127 933 m 1,68,-1
 1230 933 l 1,69,-1
 1230 837 l 1,70,-1
 1127 837 l 1,71,-1
 1127 933 l 1,68,-1
0 738 m 1,72,-1
 102 738 l 1,73,-1
 102 642 l 1,74,-1
 0 642 l 1,75,-1
 0 738 l 1,72,-1
205 738 m 1,76,-1
 307 738 l 1,77,-1
 307 642 l 1,78,-1
 205 642 l 1,79,-1
 205 738 l 1,76,-1
410 738 m 1,80,-1
 512 738 l 1,81,-1
 512 642 l 1,82,-1
 410 642 l 1,83,-1
 410 738 l 1,80,-1
615 738 m 1,84,-1
 717 738 l 1,85,-1
 717 642 l 1,86,-1
 615 642 l 1,87,-1
 615 738 l 1,84,-1
820 738 m 1,88,-1
 922 738 l 1,89,-1
 922 642 l 1,90,-1
 820 642 l 1,91,-1
 820 738 l 1,88,-1
1025 738 m 1,92,-1
 1127 738 l 1,93,-1
 1127 642 l 1,94,-1
 1025 642 l 1,95,-1
 1025 738 l 1,92,-1
102 546 m 1,96,-1
 205 546 l 1,97,-1
 205 450 l 1,98,-1
 102 450 l 1,99,-1
 102 546 l 1,96,-1
307 546 m 1,100,-1
 410 546 l 1,101,-1
 410 450 l 1,102,-1
 307 450 l 1,103,-1
 307 546 l 1,100,-1
512 546 m 1,104,-1
 615 546 l 1,105,-1
 615 450 l 1,106,-1
 512 450 l 1,107,-1
 512 546 l 1,104,-1
717 546 m 1,108,-1
 820 546 l 1,109,-1
 820 450 l 1,110,-1
 717 450 l 1,111,-1
 717 546 l 1,108,-1
922 546 m 1,112,-1
 1025 546 l 1,113,-1
 1025 450 l 1,114,-1
 922 450 l 1,115,-1
 922 546 l 1,112,-1
1127 546 m 1,116,-1
 1230 546 l 1,117,-1
 1230 450 l 1,118,-1
 1127 450 l 1,119,-1
 1127 546 l 1,116,-1
0 351 m 1,120,-1
 102 351 l 1,121,-1
 102 255 l 1,122,-1
 0 255 l 1,123,-1
 0 351 l 1,120,-1
410 351 m 1,124,-1
 512 351 l 1,125,-1
 512 255 l 1,126,-1
 410 255 l 1,127,-1
 410 351 l 1,124,-1
615 351 m 1,128,-1
 717 351 l 1,129,-1
 717 255 l 1,130,-1
 615 255 l 1,131,-1
 615 351 l 1,128,-1
820 351 m 1,132,-1
 922 351 l 1,133,-1
 922 255 l 1,134,-1
 820 255 l 1,135,-1
 820 351 l 1,132,-1
1025 351 m 1,136,-1
 1127 351 l 1,137,-1
 1127 255 l 1,138,-1
 1025 255 l 1,139,-1
 1025 351 l 1,136,-1
205 351 m 1,140,-1
 307 351 l 1,141,-1
 307 255 l 1,142,-1
 205 255 l 1,143,-1
 205 351 l 1,140,-1
1127 159 m 1,144,-1
 1230 159 l 1,145,-1
 1230 62 l 1,146,-1
 1127 62 l 1,147,-1
 1127 159 l 1,144,-1
922 159 m 1,148,-1
 1025 159 l 1,149,-1
 1025 62 l 1,150,-1
 922 62 l 1,151,-1
 922 159 l 1,148,-1
717 159 m 1,152,-1
 820 159 l 1,153,-1
 820 62 l 1,154,-1
 717 62 l 1,155,-1
 717 159 l 1,152,-1
512 159 m 1,156,-1
 615 159 l 1,157,-1
 615 62 l 1,158,-1
 512 62 l 1,159,-1
 512 159 l 1,156,-1
307 159 m 1,160,-1
 410 159 l 1,161,-1
 410 62 l 1,162,-1
 307 62 l 1,163,-1
 307 159 l 1,160,-1
102 159 m 1,164,-1
 205 159 l 1,165,-1
 205 62 l 1,166,-1
 102 62 l 1,167,-1
 102 159 l 1,164,-1
0 -36 m 1,168,-1
 102 -36 l 1,169,-1
 102 -130 l 1,170,-1
 0 -130 l 1,171,-1
 0 -36 l 1,168,-1
205 -36 m 1,172,-1
 307 -36 l 1,173,-1
 307 -130 l 1,174,-1
 205 -130 l 1,175,-1
 205 -36 l 1,172,-1
410 -36 m 1,176,-1
 512 -36 l 1,177,-1
 512 -130 l 1,178,-1
 410 -130 l 1,179,-1
 410 -36 l 1,176,-1
615 -36 m 1,180,-1
 717 -36 l 1,181,-1
 717 -130 l 1,182,-1
 615 -130 l 1,183,-1
 615 -36 l 1,180,-1
820 -36 m 1,184,-1
 922 -36 l 1,185,-1
 922 -130 l 1,186,-1
 820 -130 l 1,187,-1
 820 -36 l 1,184,-1
1025 -36 m 1,188,-1
 1127 -36 l 1,189,-1
 1127 -130 l 1,190,-1
 1025 -130 l 1,191,-1
 1025 -36 l 1,188,-1
1127 -228 m 1,192,-1
 1230 -228 l 1,193,-1
 1230 -325 l 1,194,-1
 1127 -325 l 1,195,-1
 1127 -228 l 1,192,-1
922 -228 m 1,196,-1
 1025 -228 l 1,197,-1
 1025 -325 l 1,198,-1
 922 -325 l 1,199,-1
 922 -228 l 1,196,-1
717 -228 m 1,200,-1
 820 -228 l 1,201,-1
 820 -325 l 1,202,-1
 717 -325 l 1,203,-1
 717 -228 l 1,200,-1
512 -228 m 1,204,-1
 615 -228 l 1,205,-1
 615 -325 l 1,206,-1
 512 -325 l 1,207,-1
 512 -228 l 1,204,-1
307 -228 m 1,208,-1
 410 -228 l 1,209,-1
 410 -325 l 1,210,-1
 307 -325 l 1,211,-1
 307 -228 l 1,208,-1
102 -228 m 1,212,-1
 205 -228 l 1,213,-1
 205 -325 l 1,214,-1
 102 -325 l 1,215,-1
 102 -228 l 1,212,-1
0 -421 m 1,216,-1
 102 -421 l 1,217,-1
 102 -517 l 1,218,-1
 0 -517 l 1,219,-1
 0 -421 l 1,216,-1
205 -421 m 1,220,-1
 307 -421 l 1,221,-1
 307 -517 l 1,222,-1
 205 -517 l 1,223,-1
 205 -421 l 1,220,-1
410 -421 m 1,224,-1
 512 -421 l 1,225,-1
 512 -517 l 1,226,-1
 410 -517 l 1,227,-1
 410 -421 l 1,224,-1
615 -421 m 1,228,-1
 717 -421 l 1,229,-1
 717 -517 l 1,230,-1
 615 -517 l 1,231,-1
 615 -421 l 1,228,-1
820 -421 m 1,232,-1
 922 -421 l 1,233,-1
 922 -517 l 1,234,-1
 820 -517 l 1,235,-1
 820 -421 l 1,232,-1
1025 -421 m 1,236,-1
 1127 -421 l 1,237,-1
 1127 -517 l 1,238,-1
 1025 -517 l 1,239,-1
 1025 -421 l 1,236,-1
0 1512 m 1,240,-1
 102 1512 l 1,241,-1
 102 1414 l 1,242,-1
 0 1414 l 1,243,-1
 0 1512 l 1,240,-1
205 1512 m 1,244,-1
 307 1512 l 1,245,-1
 307 1414 l 1,246,-1
 205 1414 l 1,247,-1
 205 1512 l 1,244,-1
410 1512 m 1,248,-1
 512 1512 l 1,249,-1
 512 1414 l 1,250,-1
 410 1414 l 1,251,-1
 410 1512 l 1,248,-1
615 1512 m 1,252,-1
 717 1512 l 1,253,-1
 717 1414 l 1,254,-1
 615 1414 l 1,255,-1
 615 1512 l 1,252,-1
820 1512 m 1,256,-1
 922 1512 l 1,257,-1
 922 1414 l 1,258,-1
 820 1414 l 1,259,-1
 820 1512 l 1,256,-1
1025 1512 m 1,260,-1
 1127 1512 l 1,261,-1
 1127 1414 l 1,262,-1
 1025 1414 l 1,263,-1
 1025 1512 l 1,260,-1
102 1705 m 1,264,-1
 205 1705 l 1,265,-1
 205 1609 l 1,266,-1
 102 1609 l 1,267,-1
 102 1705 l 1,264,-1
307 1705 m 1,268,-1
 410 1705 l 1,269,-1
 410 1609 l 1,270,-1
 307 1609 l 1,271,-1
 307 1705 l 1,268,-1
512 1705 m 1,272,-1
 615 1705 l 1,273,-1
 615 1609 l 1,274,-1
 512 1609 l 1,275,-1
 512 1705 l 1,272,-1
717 1705 m 1,276,-1
 820 1705 l 1,277,-1
 820 1609 l 1,278,-1
 717 1609 l 1,279,-1
 717 1705 l 1,276,-1
922 1705 m 1,280,-1
 1025 1705 l 1,281,-1
 1025 1609 l 1,282,-1
 922 1609 l 1,283,-1
 922 1705 l 1,280,-1
1127 1705 m 1,284,-1
 1230 1705 l 1,285,-1
 1230 1609 l 1,286,-1
 1127 1609 l 1,287,-1
 1127 1705 l 1,284,-1
EndSplineSet
Validated: 1
EndChar

StartChar: dkshade
Encoding: 9619 9619 372
Width: 1229
GlyphClass: 2
Flags: W
LayerCount: 2
Fore
SplineSet
1230 -615 m 1,0,-1
 0 -615 l 1,1,-1
 0 -325 l 1,2,-1
 102 -325 l 1,3,-1
 102 -228 l 1,4,-1
 0 -228 l 1,5,-1
 0 62 l 1,6,-1
 102 62 l 1,7,-1
 102 159 l 1,8,-1
 0 159 l 1,9,-1
 0 450 l 1,10,-1
 102 450 l 1,11,-1
 102 546 l 1,12,-1
 0 546 l 1,13,-1
 0 835 l 1,14,-1
 102 835 l 1,15,-1
 102 933 l 1,16,-1
 0 933 l 1,17,-1
 0 1222 l 1,18,-1
 102 1222 l 1,19,-1
 102 1320 l 1,20,-1
 0 1320 l 1,21,-1
 0 1609 l 1,22,-1
 102 1609 l 1,23,-1
 102 1705 l 1,24,-1
 205 1705 l 1,25,-1
 205 1609 l 1,26,-1
 307 1609 l 1,27,-1
 307 1705 l 1,28,-1
 410 1705 l 1,29,-1
 410 1609 l 1,30,-1
 512 1609 l 1,31,-1
 512 1705 l 1,32,-1
 615 1705 l 1,33,-1
 615 1609 l 1,34,-1
 717 1609 l 1,35,-1
 717 1705 l 1,36,-1
 820 1705 l 1,37,-1
 820 1609 l 1,38,-1
 922 1609 l 1,39,-1
 922 1705 l 1,40,-1
 1025 1705 l 1,41,-1
 1025 1609 l 1,42,-1
 1127 1609 l 1,43,-1
 1127 1705 l 1,44,-1
 1230 1705 l 1,45,-1
 1230 1512 l 1,46,-1
 1127 1512 l 1,47,-1
 1127 1414 l 1,48,-1
 1230 1414 l 1,49,-1
 1230 1125 l 1,50,-1
 1127 1125 l 1,51,-1
 1127 1029 l 1,52,-1
 1230 1029 l 1,53,-1
 1230 738 l 1,54,-1
 1127 738 l 1,55,-1
 1127 642 l 1,56,-1
 1230 642 l 1,57,-1
 1230 351 l 1,58,-1
 1127 351 l 1,59,-1
 1127 255 l 1,60,-1
 1230 255 l 1,61,-1
 1230 -36 l 1,62,-1
 1127 -36 l 1,63,-1
 1127 -130 l 1,64,-1
 1230 -130 l 1,65,-1
 1230 -421 l 1,66,-1
 1127 -421 l 1,67,-1
 1127 -517 l 1,68,-1
 1230 -517 l 1,69,-1
 1230 -615 l 1,0,-1
102 1125 m 1,70,-1
 102 1029 l 1,71,-1
 205 1029 l 1,72,-1
 205 1125 l 1,73,-1
 102 1125 l 1,70,-1
307 1125 m 1,74,-1
 307 1029 l 1,75,-1
 410 1029 l 1,76,-1
 410 1125 l 1,77,-1
 307 1125 l 1,74,-1
512 1125 m 1,78,-1
 512 1029 l 1,79,-1
 615 1029 l 1,80,-1
 615 1125 l 1,81,-1
 512 1125 l 1,78,-1
717 1125 m 1,82,-1
 717 1029 l 1,83,-1
 820 1029 l 1,84,-1
 820 1125 l 1,85,-1
 717 1125 l 1,82,-1
922 933 m 1,86,-1
 820 933 l 1,87,-1
 820 835 l 1,88,-1
 922 835 l 1,89,-1
 922 933 l 1,86,-1
717 933 m 1,90,-1
 615 933 l 1,91,-1
 615 835 l 1,92,-1
 717 835 l 1,93,-1
 717 933 l 1,90,-1
512 933 m 1,94,-1
 410 933 l 1,95,-1
 410 835 l 1,96,-1
 512 835 l 1,97,-1
 512 933 l 1,94,-1
307 933 m 1,98,-1
 205 933 l 1,99,-1
 205 835 l 1,100,-1
 307 835 l 1,101,-1
 307 933 l 1,98,-1
102 738 m 1,102,-1
 102 642 l 1,103,-1
 205 642 l 1,104,-1
 205 738 l 1,105,-1
 102 738 l 1,102,-1
307 738 m 1,106,-1
 307 642 l 1,107,-1
 410 642 l 1,108,-1
 410 738 l 1,109,-1
 307 738 l 1,106,-1
512 738 m 1,110,-1
 512 642 l 1,111,-1
 615 642 l 1,112,-1
 615 738 l 1,113,-1
 512 738 l 1,110,-1
717 738 m 1,114,-1
 717 642 l 1,115,-1
 820 642 l 1,116,-1
 820 738 l 1,117,-1
 717 738 l 1,114,-1
307 546 m 1,118,-1
 205 546 l 1,119,-1
 205 450 l 1,120,-1
 307 450 l 1,121,-1
 307 546 l 1,118,-1
410 546 m 1,122,-1
 410 450 l 1,123,-1
 512 450 l 1,124,-1
 512 546 l 1,125,-1
 410 546 l 1,122,-1
615 546 m 1,126,-1
 615 450 l 1,127,-1
 717 450 l 1,128,-1
 717 546 l 1,129,-1
 615 546 l 1,126,-1
820 546 m 1,130,-1
 820 450 l 1,131,-1
 922 450 l 1,132,-1
 922 546 l 1,133,-1
 820 546 l 1,130,-1
102 351 m 1,134,-1
 102 255 l 1,135,-1
 205 255 l 1,136,-1
 205 351 l 1,137,-1
 102 351 l 1,134,-1
512 351 m 1,138,-1
 512 255 l 1,139,-1
 615 255 l 1,140,-1
 615 351 l 1,141,-1
 512 351 l 1,138,-1
410 255 m 1,142,-1
 410 351 l 1,143,-1
 307 351 l 1,144,-1
 307 255 l 1,145,-1
 410 255 l 1,142,-1
717 351 m 1,146,-1
 717 255 l 1,147,-1
 820 255 l 1,148,-1
 820 351 l 1,149,-1
 717 351 l 1,146,-1
922 62 m 1,150,-1
 922 159 l 1,151,-1
 820 159 l 1,152,-1
 820 62 l 1,153,-1
 922 62 l 1,150,-1
717 62 m 1,154,-1
 717 159 l 1,155,-1
 615 159 l 1,156,-1
 615 62 l 1,157,-1
 717 62 l 1,154,-1
512 62 m 1,158,-1
 512 159 l 1,159,-1
 410 159 l 1,160,-1
 410 62 l 1,161,-1
 512 62 l 1,158,-1
307 62 m 1,162,-1
 307 159 l 1,163,-1
 205 159 l 1,164,-1
 205 62 l 1,165,-1
 307 62 l 1,162,-1
102 -36 m 1,166,-1
 102 -130 l 1,167,-1
 205 -130 l 1,168,-1
 205 -36 l 1,169,-1
 102 -36 l 1,166,-1
307 -36 m 1,170,-1
 307 -130 l 1,171,-1
 410 -130 l 1,172,-1
 410 -36 l 1,173,-1
 307 -36 l 1,170,-1
512 -36 m 1,174,-1
 512 -130 l 1,175,-1
 615 -130 l 1,176,-1
 615 -36 l 1,177,-1
 512 -36 l 1,174,-1
717 -36 m 1,178,-1
 717 -130 l 1,179,-1
 820 -130 l 1,180,-1
 820 -36 l 1,181,-1
 717 -36 l 1,178,-1
922 -325 m 1,182,-1
 922 -228 l 1,183,-1
 820 -228 l 1,184,-1
 820 -325 l 1,185,-1
 922 -325 l 1,182,-1
717 -325 m 1,186,-1
 717 -228 l 1,187,-1
 615 -228 l 1,188,-1
 615 -325 l 1,189,-1
 717 -325 l 1,186,-1
512 -325 m 1,190,-1
 512 -228 l 1,191,-1
 410 -228 l 1,192,-1
 410 -325 l 1,193,-1
 512 -325 l 1,190,-1
307 -325 m 1,194,-1
 307 -228 l 1,195,-1
 205 -228 l 1,196,-1
 205 -325 l 1,197,-1
 307 -325 l 1,194,-1
102 -421 m 1,198,-1
 102 -517 l 1,199,-1
 205 -517 l 1,200,-1
 205 -421 l 1,201,-1
 102 -421 l 1,198,-1
307 -421 m 1,202,-1
 307 -517 l 1,203,-1
 410 -517 l 1,204,-1
 410 -421 l 1,205,-1
 307 -421 l 1,202,-1
512 -421 m 1,206,-1
 512 -517 l 1,207,-1
 615 -517 l 1,208,-1
 615 -421 l 1,209,-1
 512 -421 l 1,206,-1
717 -421 m 1,210,-1
 717 -517 l 1,211,-1
 820 -517 l 1,212,-1
 820 -421 l 1,213,-1
 717 -421 l 1,210,-1
922 1320 m 1,214,-1
 820 1320 l 1,215,-1
 820 1222 l 1,216,-1
 922 1222 l 1,217,-1
 922 1320 l 1,214,-1
717 1320 m 1,218,-1
 615 1320 l 1,219,-1
 615 1222 l 1,220,-1
 717 1222 l 1,221,-1
 717 1320 l 1,218,-1
512 1320 m 1,222,-1
 410 1320 l 1,223,-1
 410 1222 l 1,224,-1
 512 1222 l 1,225,-1
 512 1320 l 1,222,-1
307 1320 m 1,226,-1
 205 1320 l 1,227,-1
 205 1222 l 1,228,-1
 307 1222 l 1,229,-1
 307 1320 l 1,226,-1
820 1512 m 1,230,-1
 717 1512 l 1,231,-1
 717 1414 l 1,232,-1
 820 1414 l 1,233,-1
 820 1512 l 1,230,-1
615 1512 m 1,234,-1
 512 1512 l 1,235,-1
 512 1414 l 1,236,-1
 615 1414 l 1,237,-1
 615 1512 l 1,234,-1
410 1512 m 1,238,-1
 307 1512 l 1,239,-1
 307 1414 l 1,240,-1
 410 1414 l 1,241,-1
 410 1512 l 1,238,-1
205 1512 m 1,242,-1
 102 1512 l 1,243,-1
 102 1414 l 1,244,-1
 205 1414 l 1,245,-1
 205 1512 l 1,242,-1
922 1125 m 1,246,-1
 922 1029 l 1,247,-1
 1025 1029 l 1,248,-1
 1025 1125 l 1,249,-1
 922 1125 l 1,246,-1
1127 933 m 1,250,-1
 1025 933 l 1,251,-1
 1025 835 l 1,252,-1
 1127 835 l 1,253,-1
 1127 933 l 1,250,-1
922 738 m 1,254,-1
 922 642 l 1,255,-1
 1025 642 l 1,256,-1
 1025 738 l 1,257,-1
 922 738 l 1,254,-1
1025 546 m 1,258,-1
 1025 450 l 1,259,-1
 1127 450 l 1,260,-1
 1127 546 l 1,261,-1
 1025 546 l 1,258,-1
922 351 m 1,262,-1
 922 255 l 1,263,-1
 1025 255 l 1,264,-1
 1025 351 l 1,265,-1
 922 351 l 1,262,-1
1127 62 m 1,266,-1
 1127 159 l 1,267,-1
 1025 159 l 1,268,-1
 1025 62 l 1,269,-1
 1127 62 l 1,266,-1
922 -36 m 1,270,-1
 922 -130 l 1,271,-1
 1025 -130 l 1,272,-1
 1025 -36 l 1,273,-1
 922 -36 l 1,270,-1
1127 -325 m 1,274,-1
 1127 -228 l 1,275,-1
 1025 -228 l 1,276,-1
 1025 -325 l 1,277,-1
 1127 -325 l 1,274,-1
922 -421 m 1,278,-1
 922 -517 l 1,279,-1
 1025 -517 l 1,280,-1
 1025 -421 l 1,281,-1
 922 -421 l 1,278,-1
1127 1320 m 1,282,-1
 1025 1320 l 1,283,-1
 1025 1222 l 1,284,-1
 1127 1222 l 1,285,-1
 1127 1320 l 1,282,-1
1025 1512 m 1,286,-1
 922 1512 l 1,287,-1
 922 1414 l 1,288,-1
 1025 1414 l 1,289,-1
 1025 1512 l 1,286,-1
EndSplineSet
Validated: 1
EndChar

StartChar: filledbox
Encoding: 9632 9632 373
Width: 1229
GlyphClass: 2
Flags: W
LayerCount: 2
Fore
SplineSet
119 1108 m 1,0,-1
 1110 1108 l 1,1,-1
 1110 117 l 1,2,-1
 119 117 l 1,3,-1
 119 1108 l 1,0,-1
EndSplineSet
Validated: 1
EndChar

StartChar: filledrect
Encoding: 9644 9644 374
Width: 1229
GlyphClass: 2
Flags: W
LayerCount: 2
Fore
SplineSet
8 546 m 1,0,-1
 1221 546 l 1,1,-1
 1221 70 l 1,2,-1
 8 70 l 1,3,-1
 8 546 l 1,0,-1
EndSplineSet
Validated: 1
EndChar

StartChar: triagup
Encoding: 9650 9650 375
Width: 1229
GlyphClass: 2
Flags: W
LayerCount: 2
Fore
SplineSet
15 50 m 1,0,-1
 615 1198 l 1,1,-1
 1213 50 l 1,2,-1
 15 50 l 1,0,-1
EndSplineSet
Validated: 1
EndChar

StartChar: triagrt
Encoding: 9658 9658 376
Width: 1229
GlyphClass: 2
Flags: W
LayerCount: 2
Fore
SplineSet
52 1196 m 1,0,-1
 1227 586 l 1,1,-1
 52 -27 l 1,2,-1
 52 1196 l 1,0,-1
EndSplineSet
Validated: 1
EndChar

StartChar: triagdn
Encoding: 9660 9660 377
Width: 1229
GlyphClass: 2
Flags: W
LayerCount: 2
Fore
SplineSet
1213 1121 m 1,0,-1
 615 -27 l 1,1,-1
 15 1121 l 1,2,-1
 1213 1121 l 1,0,-1
EndSplineSet
Validated: 1
EndChar

StartChar: triaglf
Encoding: 9668 9668 378
Width: 1229
GlyphClass: 2
Flags: W
LayerCount: 2
Fore
SplineSet
1177 1196 m 1,0,-1
 1177 -27 l 1,1,-1
 2 586 l 1,2,-1
 1177 1196 l 1,0,-1
EndSplineSet
Validated: 1
EndChar

StartChar: circle
Encoding: 9675 9675 379
Width: 1229
GlyphClass: 2
Flags: W
LayerCount: 2
Fore
SplineSet
163 612 m 256,0,1
 163 734 163 734 223 839 c 128,-1,2
 283 944 283 944 387.5 1004.5 c 128,-1,3
 492 1065 492 1065 613 1065 c 0,4,5
 735 1065 735 1065 840 1004.5 c 128,-1,6
 945 944 945 944 1005.5 838.5 c 128,-1,7
 1066 733 1066 733 1066 612 c 256,8,9
 1066 491 1066 491 1005.5 386.5 c 128,-1,10
 945 282 945 282 840.5 222 c 128,-1,11
 736 162 736 162 613 162 c 0,12,13
 491 162 491 162 387 222 c 128,-1,14
 283 282 283 282 223 386 c 128,-1,15
 163 490 163 490 163 612 c 256,0,1
249 612 m 0,16,17
 249 514 249 514 298 429.5 c 128,-1,18
 347 345 347 345 430.5 296.5 c 128,-1,19
 514 248 514 248 613 248 c 0,20,21
 711 248 711 248 795.5 296 c 128,-1,22
 880 344 880 344 930 429 c 128,-1,23
 980 514 980 514 980 612 c 256,24,25
 980 710 980 710 931 795.5 c 128,-1,26
 882 881 882 881 796.5 930 c 128,-1,27
 711 979 711 979 613 979 c 0,28,29
 516 979 516 979 431.5 930 c 128,-1,30
 347 881 347 881 298 796.5 c 128,-1,31
 249 712 249 712 249 612 c 0,16,17
EndSplineSet
Validated: 1
EndChar

StartChar: invbullet
Encoding: 9688 9688 380
Width: 1229
GlyphClass: 2
Flags: W
LayerCount: 2
Fore
SplineSet
37 0 m 1,0,-1
 37 1155 l 1,1,-1
 1192 1155 l 1,2,-1
 1192 0 l 1,3,-1
 37 0 l 1,0,-1
172 577 m 256,4,5
 172 459 172 459 231 357 c 128,-1,6
 290 255 290 255 391.5 196 c 128,-1,7
 493 137 493 137 612 137 c 0,8,9
 730 137 730 137 832.5 196 c 128,-1,10
 935 255 935 255 994 357.5 c 128,-1,11
 1053 460 1053 460 1053 577 c 0,12,13
 1053 695 1053 695 994 797.5 c 128,-1,14
 935 900 935 900 833 959 c 128,-1,15
 731 1018 731 1018 612 1018 c 0,16,17
 494 1018 494 1018 391.5 958.5 c 128,-1,18
 289 899 289 899 230.5 797 c 128,-1,19
 172 695 172 695 172 577 c 256,4,5
EndSplineSet
Validated: 1
EndChar

StartChar: invcircle
Encoding: 9689 9689 381
Width: 1229
GlyphClass: 2
Flags: W
LayerCount: 2
Fore
SplineSet
37 0 m 1,0,-1
 37 1155 l 1,1,-1
 1192 1155 l 1,2,-1
 1192 0 l 1,3,-1
 37 0 l 1,0,-1
249 577 m 256,4,5
 249 674 249 674 298 759 c 128,-1,6
 347 844 347 844 432 893 c 128,-1,7
 517 942 517 942 614 942 c 256,8,9
 711 942 711 942 796 893 c 128,-1,10
 881 844 881 844 930 759 c 128,-1,11
 979 674 979 674 979 577 c 256,12,13
 979 480 979 480 930 395 c 128,-1,14
 881 310 881 310 796 261 c 128,-1,15
 711 212 711 212 614 212 c 256,16,17
 517 212 517 212 432 261 c 128,-1,18
 347 310 347 310 298 395 c 128,-1,19
 249 480 249 480 249 577 c 256,4,5
172 577 m 256,20,21
 172 459 172 459 231 357 c 128,-1,22
 290 255 290 255 391.5 196 c 128,-1,23
 493 137 493 137 612 137 c 0,24,25
 730 137 730 137 832.5 196 c 128,-1,26
 935 255 935 255 994 357.5 c 128,-1,27
 1053 460 1053 460 1053 577 c 0,28,29
 1053 695 1053 695 994 797.5 c 128,-1,30
 935 900 935 900 833 959 c 128,-1,31
 731 1018 731 1018 612 1018 c 0,32,33
 494 1018 494 1018 391.5 958.5 c 128,-1,34
 289 899 289 899 230.5 797 c 128,-1,35
 172 695 172 695 172 577 c 256,20,21
EndSplineSet
Validated: 1
EndChar

StartChar: smileface
Encoding: 9786 9786 382
Width: 1229
GlyphClass: 2
Flags: W
LayerCount: 2
Fore
SplineSet
27 589 m 256,0,1
 27 747 27 747 105.5 883 c 128,-1,2
 184 1019 184 1019 320 1097.5 c 128,-1,3
 456 1176 456 1176 614 1176 c 256,4,5
 772 1176 772 1176 907.5 1097.5 c 128,-1,6
 1043 1019 1043 1019 1122 883 c 128,-1,7
 1201 747 1201 747 1201 589 c 256,8,9
 1201 431 1201 431 1122.5 295 c 128,-1,10
 1044 159 1044 159 908 80.5 c 128,-1,11
 772 2 772 2 614 2 c 256,12,13
 456 2 456 2 320 80.5 c 128,-1,14
 184 159 184 159 105.5 295 c 128,-1,15
 27 431 27 431 27 589 c 256,0,1
90 589 m 0,16,17
 90 449 90 449 160 327.5 c 128,-1,18
 230 206 230 206 351.5 135.5 c 128,-1,19
 473 65 473 65 614 65 c 0,20,21
 754 65 754 65 875.5 135.5 c 128,-1,22
 997 206 997 206 1067 328 c 128,-1,23
 1137 450 1137 450 1137 589 c 0,24,25
 1137 729 1137 729 1067 850 c 128,-1,26
 997 971 997 971 876 1041.5 c 128,-1,27
 755 1112 755 1112 614 1112 c 0,28,29
 474 1112 474 1112 352.5 1042 c 128,-1,30
 231 972 231 972 160.5 850 c 128,-1,31
 90 728 90 728 90 589 c 0,16,17
326 741 m 256,32,33
 326 770 326 770 346.5 791 c 128,-1,34
 367 812 367 812 396 812 c 256,35,36
 425 812 425 812 446 791 c 128,-1,37
 467 770 467 770 467 741 c 256,38,39
 467 712 467 712 446 691.5 c 128,-1,40
 425 671 425 671 396 671 c 256,41,42
 367 671 367 671 346.5 691.5 c 128,-1,43
 326 712 326 712 326 741 c 256,32,33
761 741 m 256,44,45
 761 770 761 770 781.5 791 c 128,-1,46
 802 812 802 812 831 812 c 256,47,48
 860 812 860 812 881 791 c 128,-1,49
 902 770 902 770 902 741 c 256,50,51
 902 712 902 712 881 691.5 c 128,-1,52
 860 671 860 671 831 671 c 256,53,54
 802 671 802 671 781.5 691.5 c 128,-1,55
 761 712 761 712 761 741 c 256,44,45
353 442 m 1,56,57
 411 364 411 364 473.5 335 c 128,-1,58
 536 306 536 306 614 306 c 0,59,60
 694 306 694 306 756 335.5 c 128,-1,61
 818 365 818 365 875 442 c 1,62,-1
 933 393 l 1,63,64
 821 216 821 216 614 216 c 0,65,66
 543 216 543 216 485.5 236 c 128,-1,67
 428 256 428 256 384.5 290 c 128,-1,68
 341 324 341 324 295 393 c 1,69,-1
 353 442 l 1,56,57
EndSplineSet
Validated: 1
EndChar

StartChar: invsmileface
Encoding: 9787 9787 383
Width: 1229
GlyphClass: 2
Flags: W
LayerCount: 2
Fore
SplineSet
27 589 m 256,0,1
 27 747 27 747 105.5 883 c 128,-1,2
 184 1019 184 1019 320 1097.5 c 128,-1,3
 456 1176 456 1176 614 1176 c 256,4,5
 772 1176 772 1176 907.5 1097.5 c 128,-1,6
 1043 1019 1043 1019 1122 883 c 128,-1,7
 1201 747 1201 747 1201 589 c 256,8,9
 1201 431 1201 431 1122.5 295 c 128,-1,10
 1044 159 1044 159 908 80.5 c 128,-1,11
 772 2 772 2 614 2 c 256,12,13
 456 2 456 2 320 80.5 c 128,-1,14
 184 159 184 159 105.5 295 c 128,-1,15
 27 431 27 431 27 589 c 256,0,1
326 741 m 256,16,17
 326 712 326 712 346.5 691.5 c 128,-1,18
 367 671 367 671 396 671 c 256,19,20
 425 671 425 671 446 691.5 c 128,-1,21
 467 712 467 712 467 741 c 256,22,23
 467 770 467 770 446 791 c 128,-1,24
 425 812 425 812 396 812 c 256,25,26
 367 812 367 812 346.5 791 c 128,-1,27
 326 770 326 770 326 741 c 256,16,17
761 741 m 256,28,29
 761 712 761 712 781.5 691.5 c 128,-1,30
 802 671 802 671 831 671 c 256,31,32
 860 671 860 671 881 691.5 c 128,-1,33
 902 712 902 712 902 741 c 256,34,35
 902 770 902 770 881 791 c 128,-1,36
 860 812 860 812 831 812 c 256,37,38
 802 812 802 812 781.5 791 c 128,-1,39
 761 770 761 770 761 741 c 256,28,29
295 393 m 1,40,41
 340 325 340 325 383.5 291 c 128,-1,42
 427 257 427 257 484 236.5 c 128,-1,43
 541 216 541 216 614 216 c 0,44,45
 821 216 821 216 933 393 c 1,46,-1
 875 442 l 1,47,48
 817 364 817 364 754.5 335 c 128,-1,49
 692 306 692 306 614 306 c 0,50,51
 535 306 535 306 472.5 335.5 c 128,-1,52
 410 365 410 365 353 442 c 1,53,-1
 295 393 l 1,40,41
EndSplineSet
Validated: 1
EndChar

StartChar: sun
Encoding: 9788 9788 384
Width: 1229
GlyphClass: 2
Flags: W
LayerCount: 2
Fore
SplineSet
224 907 m 1,0,-1
 388 742 l 1,1,2
 475 811 475 811 578 821 c 1,3,-1
 578 1054 l 1,4,-1
 650 1054 l 1,5,-1
 650 821 l 1,6,7
 752 812 752 812 839 742 c 1,8,-1
 1004 907 l 1,9,-1
 1055 856 l 1,10,-1
 890 691 l 1,11,12
 960 604 960 604 969 502 c 1,13,-1
 1202 502 l 1,14,-1
 1202 430 l 1,15,-1
 969 430 l 1,16,17
 959 327 959 327 890 240 c 1,18,-1
 1055 76 l 1,19,-1
 1004 25 l 1,20,-1
 839 189 l 1,21,22
 752 119 752 119 650 110 c 1,23,-1
 650 -122 l 1,24,-1
 578 -122 l 1,25,-1
 578 110 l 1,26,27
 475 120 475 120 388 189 c 1,28,-1
 224 25 l 1,29,-1
 173 76 l 1,30,-1
 337 240 l 1,31,32
 268 327 268 327 258 430 c 1,33,-1
 26 430 l 1,34,-1
 26 502 l 1,35,-1
 258 502 l 1,36,37
 267 604 267 604 337 691 c 1,38,-1
 173 856 l 1,39,-1
 224 907 l 1,0,-1
329 466 m 256,40,41
 329 348 329 348 411.5 264.5 c 128,-1,42
 494 181 494 181 614 181 c 256,43,44
 734 181 734 181 816.5 264.5 c 128,-1,45
 899 348 899 348 899 466 c 256,46,47
 899 584 899 584 815.5 667.5 c 128,-1,48
 732 751 732 751 614 751 c 256,49,50
 496 751 496 751 412.5 667.5 c 128,-1,51
 329 584 329 584 329 466 c 256,40,41
EndSplineSet
Validated: 1
EndChar

StartChar: female
Encoding: 9792 9792 385
Width: 1229
GlyphClass: 2
Flags: W
LayerCount: 2
Fore
SplineSet
344 376 m 1,0,-1
 578 376 l 1,1,-1
 578 578 l 1,2,3
 464 592 464 592 390 677 c 128,-1,4
 316 762 316 762 316 874 c 0,5,6
 316 997 316 997 403.5 1084.5 c 128,-1,7
 491 1172 491 1172 614 1172 c 256,8,9
 737 1172 737 1172 824.5 1084.5 c 128,-1,10
 912 997 912 997 912 874 c 0,11,12
 912 763 912 763 838 678 c 128,-1,13
 764 593 764 593 650 578 c 1,14,-1
 650 376 l 1,15,-1
 884 376 l 1,16,-1
 884 304 l 1,17,-1
 650 304 l 1,18,-1
 650 70 l 1,19,-1
 578 70 l 1,20,-1
 578 304 l 1,21,-1
 344 304 l 1,22,-1
 344 376 l 1,0,-1
388 874 m 0,23,24
 388 780 388 780 454 714 c 128,-1,25
 520 648 520 648 614 648 c 0,26,27
 709 648 709 648 774.5 715 c 128,-1,28
 840 782 840 782 840 874 c 0,29,30
 840 967 840 967 774 1033.5 c 128,-1,31
 708 1100 708 1100 614 1100 c 0,32,33
 523 1100 523 1100 455.5 1035 c 128,-1,34
 388 970 388 970 388 874 c 0,23,24
EndSplineSet
Validated: 1
EndChar

StartChar: male
Encoding: 9794 9794 386
Width: 1229
GlyphClass: 2
Flags: W
LayerCount: 2
Fore
SplineSet
164 412 m 256,0,1
 164 535 164 535 251.5 622.5 c 128,-1,2
 339 710 339 710 462 710 c 0,3,4
 564 710 564 710 645 646 c 1,5,-1
 902 903 l 1,6,-1
 676 923 l 1,7,-1
 674 978 l 1,8,-1
 1005 978 l 1,9,-1
 1028 955 l 1,10,-1
 1028 624 l 1,11,-1
 973 626 l 1,12,-1
 953 852 l 1,13,-1
 696 595 l 1,14,15
 760 514 760 514 760 412 c 0,16,17
 760 289 760 289 672.5 201.5 c 128,-1,18
 585 114 585 114 462 114 c 256,19,20
 339 114 339 114 251.5 201.5 c 128,-1,21
 164 289 164 289 164 412 c 256,0,1
236 412 m 0,22,23
 236 318 236 318 302 252 c 128,-1,24
 368 186 368 186 462 186 c 0,25,26
 557 186 557 186 622.5 253 c 128,-1,27
 688 320 688 320 688 412 c 0,28,29
 688 505 688 505 622 571.5 c 128,-1,30
 556 638 556 638 462 638 c 0,31,32
 371 638 371 638 303.5 573 c 128,-1,33
 236 508 236 508 236 412 c 0,22,23
EndSplineSet
Validated: 1
EndChar

